<mxfile host="Electron" modified="2024-01-22T17:08:41.535Z" agent="Mozilla/5.0 (Windows NT 10.0; Win64; x64) AppleWebKit/537.36 (KHTML, like Gecko) draw.io/22.1.16 Chrome/120.0.6099.109 Electron/28.1.0 Safari/537.36" etag="1ix-dxpFJldxfbCpMtvt" version="22.1.16" type="device" pages="5">
  <diagram name="基础转置卷积" id="SI5eAt8SQb0-Zgueay_q">
    <mxGraphModel dx="1036" dy="615" grid="1" gridSize="10" guides="1" tooltips="1" connect="1" arrows="1" fold="1" page="1" pageScale="1" pageWidth="827" pageHeight="1169" math="1" shadow="0">
      <root>
        <mxCell id="0" />
        <mxCell id="1" parent="0" />
        <mxCell id="JWgJpdZnl4A-yOBEKnvu-19" style="rounded=0;orthogonalLoop=1;jettySize=auto;html=1;exitX=1;exitY=0.5;exitDx=0;exitDy=0;entryX=0;entryY=0.5;entryDx=0;entryDy=0;fillColor=#0050ef;strokeColor=#001DBC;strokeWidth=2;" parent="1" source="JWgJpdZnl4A-yOBEKnvu-8" target="JWgJpdZnl4A-yOBEKnvu-13" edge="1">
          <mxGeometry relative="1" as="geometry" />
        </mxCell>
        <mxCell id="JWgJpdZnl4A-yOBEKnvu-8" value="$$x_1$$" style="rounded=1;whiteSpace=wrap;html=1;shadow=0;fillColor=#ffe6cc;strokeColor=#d79b00;" parent="1" vertex="1">
          <mxGeometry x="40" y="120" width="80" height="40" as="geometry" />
        </mxCell>
        <mxCell id="JWgJpdZnl4A-yOBEKnvu-20" style="rounded=0;orthogonalLoop=1;jettySize=auto;html=1;exitX=1;exitY=0.5;exitDx=0;exitDy=0;entryX=0;entryY=0.5;entryDx=0;entryDy=0;fillColor=#60a917;strokeColor=#2D7600;strokeWidth=2;" parent="1" source="JWgJpdZnl4A-yOBEKnvu-9" target="JWgJpdZnl4A-yOBEKnvu-13" edge="1">
          <mxGeometry relative="1" as="geometry" />
        </mxCell>
        <mxCell id="JWgJpdZnl4A-yOBEKnvu-22" style="rounded=0;orthogonalLoop=1;jettySize=auto;html=1;exitX=1;exitY=0.5;exitDx=0;exitDy=0;entryX=0;entryY=0.5;entryDx=0;entryDy=0;fillColor=#0050ef;strokeColor=#001DBC;strokeWidth=2;" parent="1" source="JWgJpdZnl4A-yOBEKnvu-9" target="JWgJpdZnl4A-yOBEKnvu-14" edge="1">
          <mxGeometry relative="1" as="geometry" />
        </mxCell>
        <mxCell id="JWgJpdZnl4A-yOBEKnvu-9" value="$$x_2$$" style="rounded=1;whiteSpace=wrap;html=1;shadow=0;fillColor=#ffe6cc;strokeColor=#d79b00;" parent="1" vertex="1">
          <mxGeometry x="40" y="200" width="80" height="40" as="geometry" />
        </mxCell>
        <mxCell id="JWgJpdZnl4A-yOBEKnvu-21" style="rounded=0;orthogonalLoop=1;jettySize=auto;html=1;exitX=1;exitY=0.5;exitDx=0;exitDy=0;entryX=0;entryY=0.5;entryDx=0;entryDy=0;fillColor=#e51400;strokeColor=#FF0000;strokeWidth=2;" parent="1" source="JWgJpdZnl4A-yOBEKnvu-10" target="JWgJpdZnl4A-yOBEKnvu-13" edge="1">
          <mxGeometry relative="1" as="geometry" />
        </mxCell>
        <mxCell id="JWgJpdZnl4A-yOBEKnvu-23" style="rounded=0;orthogonalLoop=1;jettySize=auto;html=1;exitX=1;exitY=0.5;exitDx=0;exitDy=0;fillColor=#60a917;strokeColor=#2D7600;strokeWidth=2;" parent="1" source="JWgJpdZnl4A-yOBEKnvu-10" edge="1">
          <mxGeometry relative="1" as="geometry">
            <mxPoint x="200" y="300" as="targetPoint" />
          </mxGeometry>
        </mxCell>
        <mxCell id="JWgJpdZnl4A-yOBEKnvu-25" style="rounded=0;orthogonalLoop=1;jettySize=auto;html=1;exitX=1;exitY=0.5;exitDx=0;exitDy=0;entryX=0;entryY=0.5;entryDx=0;entryDy=0;fillColor=#0050ef;strokeColor=#001DBC;strokeWidth=2;" parent="1" source="JWgJpdZnl4A-yOBEKnvu-10" target="JWgJpdZnl4A-yOBEKnvu-15" edge="1">
          <mxGeometry relative="1" as="geometry" />
        </mxCell>
        <mxCell id="JWgJpdZnl4A-yOBEKnvu-10" value="$$x_3$$" style="rounded=1;whiteSpace=wrap;html=1;shadow=0;fillColor=#ffe6cc;strokeColor=#d79b00;" parent="1" vertex="1">
          <mxGeometry x="40" y="280" width="80" height="40" as="geometry" />
        </mxCell>
        <mxCell id="JWgJpdZnl4A-yOBEKnvu-24" style="rounded=0;orthogonalLoop=1;jettySize=auto;html=1;exitX=1;exitY=0.5;exitDx=0;exitDy=0;entryX=0;entryY=0.5;entryDx=0;entryDy=0;fillColor=#e51400;strokeColor=#FF0000;strokeWidth=2;" parent="1" source="JWgJpdZnl4A-yOBEKnvu-11" target="JWgJpdZnl4A-yOBEKnvu-14" edge="1">
          <mxGeometry relative="1" as="geometry" />
        </mxCell>
        <mxCell id="JWgJpdZnl4A-yOBEKnvu-26" style="rounded=0;orthogonalLoop=1;jettySize=auto;html=1;exitX=1;exitY=0.5;exitDx=0;exitDy=0;fillColor=#60a917;strokeColor=#2D7600;strokeWidth=2;" parent="1" source="JWgJpdZnl4A-yOBEKnvu-11" target="JWgJpdZnl4A-yOBEKnvu-15" edge="1">
          <mxGeometry relative="1" as="geometry" />
        </mxCell>
        <mxCell id="JWgJpdZnl4A-yOBEKnvu-11" value="$$x_4$$" style="rounded=1;whiteSpace=wrap;html=1;shadow=0;fillColor=#ffe6cc;strokeColor=#d79b00;" parent="1" vertex="1">
          <mxGeometry x="40" y="360" width="80" height="40" as="geometry" />
        </mxCell>
        <mxCell id="JWgJpdZnl4A-yOBEKnvu-27" style="rounded=0;orthogonalLoop=1;jettySize=auto;html=1;exitX=1;exitY=0.5;exitDx=0;exitDy=0;entryX=0;entryY=0.5;entryDx=0;entryDy=0;fillColor=#e51400;strokeColor=#FF0000;strokeWidth=2;" parent="1" source="JWgJpdZnl4A-yOBEKnvu-12" target="JWgJpdZnl4A-yOBEKnvu-15" edge="1">
          <mxGeometry relative="1" as="geometry" />
        </mxCell>
        <mxCell id="JWgJpdZnl4A-yOBEKnvu-12" value="$$x_5$$" style="rounded=1;whiteSpace=wrap;html=1;shadow=0;fillColor=#ffe6cc;strokeColor=#d79b00;" parent="1" vertex="1">
          <mxGeometry x="40" y="440" width="80" height="40" as="geometry" />
        </mxCell>
        <mxCell id="JWgJpdZnl4A-yOBEKnvu-13" value="$$o_1 = x_1 w_1 +&amp;nbsp;&lt;br&gt;x_2 w_2+ x_3 w_3&lt;br&gt;$$" style="rounded=1;whiteSpace=wrap;html=1;fillColor=#e1d5e7;strokeColor=#9673a6;" parent="1" vertex="1">
          <mxGeometry x="200" y="200" width="180" height="40" as="geometry" />
        </mxCell>
        <mxCell id="JWgJpdZnl4A-yOBEKnvu-14" value="$$o_2 = x_2 w_1 +&amp;nbsp;&lt;br&gt;x_3 w_2+ x_4 w_3&lt;br&gt;$$" style="rounded=1;whiteSpace=wrap;html=1;fillColor=#e1d5e7;strokeColor=#9673a6;" parent="1" vertex="1">
          <mxGeometry x="200" y="280" width="180" height="40" as="geometry" />
        </mxCell>
        <mxCell id="JWgJpdZnl4A-yOBEKnvu-15" value="$$o_3 = x_3 w_1 +&amp;nbsp;&lt;br&gt;x_4 w_2 + x_5 w_3&lt;br&gt;$$" style="rounded=1;whiteSpace=wrap;html=1;fillColor=#e1d5e7;strokeColor=#9673a6;" parent="1" vertex="1">
          <mxGeometry x="200" y="360" width="180" height="40" as="geometry" />
        </mxCell>
        <mxCell id="JWgJpdZnl4A-yOBEKnvu-28" value="$$\color{blue}{w_1}$$" style="text;html=1;strokeColor=none;fillColor=none;align=center;verticalAlign=middle;whiteSpace=wrap;rounded=0;" parent="1" vertex="1">
          <mxGeometry x="120" y="141" width="60" height="30" as="geometry" />
        </mxCell>
        <mxCell id="JWgJpdZnl4A-yOBEKnvu-30" value="$$\color{green}{w_2}$$" style="text;html=1;strokeColor=none;fillColor=none;align=center;verticalAlign=middle;whiteSpace=wrap;rounded=0;" parent="1" vertex="1">
          <mxGeometry x="119" y="197" width="60" height="30" as="geometry" />
        </mxCell>
        <mxCell id="JWgJpdZnl4A-yOBEKnvu-32" value="$$\color{red}{w_3}$$" style="text;html=1;strokeColor=none;fillColor=none;align=center;verticalAlign=middle;whiteSpace=wrap;rounded=0;" parent="1" vertex="1">
          <mxGeometry x="110" y="250" width="60" height="30" as="geometry" />
        </mxCell>
        <mxCell id="JWgJpdZnl4A-yOBEKnvu-33" value="$$\color{blue}{w_1}$$" style="text;html=1;strokeColor=none;fillColor=none;align=center;verticalAlign=middle;whiteSpace=wrap;rounded=0;" parent="1" vertex="1">
          <mxGeometry x="120" y="220" width="60" height="30" as="geometry" />
        </mxCell>
        <mxCell id="JWgJpdZnl4A-yOBEKnvu-34" value="$$\color{green}{w_2}$$" style="text;html=1;strokeColor=none;fillColor=none;align=center;verticalAlign=middle;whiteSpace=wrap;rounded=0;" parent="1" vertex="1">
          <mxGeometry x="120" y="277" width="60" height="30" as="geometry" />
        </mxCell>
        <mxCell id="JWgJpdZnl4A-yOBEKnvu-35" value="$$\color{red}{w_3}$$" style="text;html=1;strokeColor=none;fillColor=none;align=center;verticalAlign=middle;whiteSpace=wrap;rounded=0;" parent="1" vertex="1">
          <mxGeometry x="110" y="329" width="60" height="30" as="geometry" />
        </mxCell>
        <mxCell id="JWgJpdZnl4A-yOBEKnvu-36" value="$$\color{blue}{w_1}$$" style="text;html=1;strokeColor=none;fillColor=none;align=center;verticalAlign=middle;whiteSpace=wrap;rounded=0;" parent="1" vertex="1">
          <mxGeometry x="120" y="303" width="60" height="30" as="geometry" />
        </mxCell>
        <mxCell id="JWgJpdZnl4A-yOBEKnvu-37" value="$$\color{green}{w_2}$$" style="text;html=1;strokeColor=none;fillColor=none;align=center;verticalAlign=middle;whiteSpace=wrap;rounded=0;" parent="1" vertex="1">
          <mxGeometry x="119" y="357" width="60" height="30" as="geometry" />
        </mxCell>
        <mxCell id="JWgJpdZnl4A-yOBEKnvu-38" value="$$\color{red}{w_3}$$" style="text;html=1;strokeColor=none;fillColor=none;align=center;verticalAlign=middle;whiteSpace=wrap;rounded=0;" parent="1" vertex="1">
          <mxGeometry x="109" y="411" width="60" height="30" as="geometry" />
        </mxCell>
        <mxCell id="JWgJpdZnl4A-yOBEKnvu-73" style="rounded=0;orthogonalLoop=1;jettySize=auto;html=1;exitX=1;exitY=0.5;exitDx=0;exitDy=0;entryX=0;entryY=0.5;entryDx=0;entryDy=0;fillColor=#0050ef;strokeColor=#001DBC;strokeWidth=2;" parent="1" source="JWgJpdZnl4A-yOBEKnvu-65" target="JWgJpdZnl4A-yOBEKnvu-68" edge="1">
          <mxGeometry relative="1" as="geometry" />
        </mxCell>
        <mxCell id="JWgJpdZnl4A-yOBEKnvu-74" style="edgeStyle=orthogonalEdgeStyle;rounded=0;orthogonalLoop=1;jettySize=auto;html=1;exitX=1;exitY=0.5;exitDx=0;exitDy=0;entryX=0;entryY=0.5;entryDx=0;entryDy=0;strokeWidth=2;fillColor=#60a917;strokeColor=#2D7600;" parent="1" source="JWgJpdZnl4A-yOBEKnvu-65" target="JWgJpdZnl4A-yOBEKnvu-69" edge="1">
          <mxGeometry relative="1" as="geometry" />
        </mxCell>
        <mxCell id="JWgJpdZnl4A-yOBEKnvu-75" style="rounded=0;orthogonalLoop=1;jettySize=auto;html=1;exitX=1;exitY=0.5;exitDx=0;exitDy=0;entryX=0;entryY=0.5;entryDx=0;entryDy=0;strokeColor=#FF0000;strokeWidth=2;" parent="1" source="JWgJpdZnl4A-yOBEKnvu-65" target="JWgJpdZnl4A-yOBEKnvu-70" edge="1">
          <mxGeometry relative="1" as="geometry" />
        </mxCell>
        <mxCell id="JWgJpdZnl4A-yOBEKnvu-65" value="$$o_1^{\prime}$$" style="rounded=1;whiteSpace=wrap;html=1;fillColor=#e1d5e7;strokeColor=#9673a6;" parent="1" vertex="1">
          <mxGeometry x="440" y="200" width="80" height="40" as="geometry" />
        </mxCell>
        <mxCell id="JWgJpdZnl4A-yOBEKnvu-76" style="rounded=0;orthogonalLoop=1;jettySize=auto;html=1;exitX=1;exitY=0.5;exitDx=0;exitDy=0;entryX=0;entryY=0.5;entryDx=0;entryDy=0;fillColor=#0050ef;strokeColor=#001DBC;strokeWidth=2;" parent="1" source="JWgJpdZnl4A-yOBEKnvu-66" target="JWgJpdZnl4A-yOBEKnvu-69" edge="1">
          <mxGeometry relative="1" as="geometry" />
        </mxCell>
        <mxCell id="JWgJpdZnl4A-yOBEKnvu-77" style="edgeStyle=orthogonalEdgeStyle;rounded=0;orthogonalLoop=1;jettySize=auto;html=1;exitX=1;exitY=0.5;exitDx=0;exitDy=0;entryX=0;entryY=0.5;entryDx=0;entryDy=0;strokeWidth=2;fillColor=#60a917;strokeColor=#2D7600;" parent="1" source="JWgJpdZnl4A-yOBEKnvu-66" target="JWgJpdZnl4A-yOBEKnvu-70" edge="1">
          <mxGeometry relative="1" as="geometry" />
        </mxCell>
        <mxCell id="JWgJpdZnl4A-yOBEKnvu-78" style="rounded=0;orthogonalLoop=1;jettySize=auto;html=1;exitX=1;exitY=0.5;exitDx=0;exitDy=0;entryX=0;entryY=0.5;entryDx=0;entryDy=0;strokeColor=#FF0000;strokeWidth=2;" parent="1" source="JWgJpdZnl4A-yOBEKnvu-66" target="JWgJpdZnl4A-yOBEKnvu-71" edge="1">
          <mxGeometry relative="1" as="geometry" />
        </mxCell>
        <mxCell id="JWgJpdZnl4A-yOBEKnvu-66" value="$$o_2^{\prime}$$" style="rounded=1;whiteSpace=wrap;html=1;fillColor=#e1d5e7;strokeColor=#9673a6;" parent="1" vertex="1">
          <mxGeometry x="440" y="280" width="80" height="40" as="geometry" />
        </mxCell>
        <mxCell id="JWgJpdZnl4A-yOBEKnvu-79" style="rounded=0;orthogonalLoop=1;jettySize=auto;html=1;exitX=1;exitY=0.5;exitDx=0;exitDy=0;entryX=0;entryY=0.5;entryDx=0;entryDy=0;fillColor=#0050ef;strokeColor=#001DBC;strokeWidth=2;" parent="1" source="JWgJpdZnl4A-yOBEKnvu-67" target="JWgJpdZnl4A-yOBEKnvu-70" edge="1">
          <mxGeometry relative="1" as="geometry" />
        </mxCell>
        <mxCell id="JWgJpdZnl4A-yOBEKnvu-80" style="rounded=0;orthogonalLoop=1;jettySize=auto;html=1;exitX=1;exitY=0.5;exitDx=0;exitDy=0;entryX=0;entryY=0.5;entryDx=0;entryDy=0;strokeWidth=2;fillColor=#60a917;strokeColor=#2D7600;" parent="1" source="JWgJpdZnl4A-yOBEKnvu-67" target="JWgJpdZnl4A-yOBEKnvu-71" edge="1">
          <mxGeometry relative="1" as="geometry" />
        </mxCell>
        <mxCell id="JWgJpdZnl4A-yOBEKnvu-81" style="rounded=0;orthogonalLoop=1;jettySize=auto;html=1;exitX=1;exitY=0.5;exitDx=0;exitDy=0;entryX=0;entryY=0.5;entryDx=0;entryDy=0;strokeColor=#FF0000;strokeWidth=2;" parent="1" source="JWgJpdZnl4A-yOBEKnvu-67" target="JWgJpdZnl4A-yOBEKnvu-72" edge="1">
          <mxGeometry relative="1" as="geometry" />
        </mxCell>
        <mxCell id="JWgJpdZnl4A-yOBEKnvu-67" value="$$o_3^{\prime}$$" style="rounded=1;whiteSpace=wrap;html=1;fillColor=#e1d5e7;strokeColor=#9673a6;" parent="1" vertex="1">
          <mxGeometry x="440" y="360" width="80" height="40" as="geometry" />
        </mxCell>
        <mxCell id="JWgJpdZnl4A-yOBEKnvu-68" value="$$x_1^{\prime} = o_1^{\prime} w_1$$" style="rounded=1;whiteSpace=wrap;html=1;shadow=0;fillColor=#ffe6cc;strokeColor=#d79b00;" parent="1" vertex="1">
          <mxGeometry x="600" y="120" width="180" height="40" as="geometry" />
        </mxCell>
        <mxCell id="JWgJpdZnl4A-yOBEKnvu-69" value="$$x_2^{\prime} = o_1^{\prime} w_2 +o_2^{\prime} w_1&lt;br&gt;$$" style="rounded=1;whiteSpace=wrap;html=1;shadow=0;fillColor=#ffe6cc;strokeColor=#d79b00;" parent="1" vertex="1">
          <mxGeometry x="600" y="200" width="180" height="40" as="geometry" />
        </mxCell>
        <mxCell id="JWgJpdZnl4A-yOBEKnvu-70" value="$$x_3^{\prime} = o_1^{\prime} w_3 +o_2^{\prime} w_2 + o_3^{\prime} w_1&lt;br&gt;$$" style="rounded=1;whiteSpace=wrap;html=1;shadow=0;fillColor=#ffe6cc;strokeColor=#d79b00;" parent="1" vertex="1">
          <mxGeometry x="600" y="280" width="180" height="40" as="geometry" />
        </mxCell>
        <mxCell id="JWgJpdZnl4A-yOBEKnvu-71" value="$$x_4^{\prime} = o_2^{\prime} w_3 +o_3^{\prime} w_2&lt;br style=&quot;border-color: var(--border-color);&quot;&gt;$$" style="rounded=1;whiteSpace=wrap;html=1;shadow=0;fillColor=#ffe6cc;strokeColor=#d79b00;" parent="1" vertex="1">
          <mxGeometry x="600" y="360" width="180" height="40" as="geometry" />
        </mxCell>
        <mxCell id="JWgJpdZnl4A-yOBEKnvu-72" value="$$x_5^{\prime} = o_3^{\prime} w_3$$" style="rounded=1;whiteSpace=wrap;html=1;shadow=0;fillColor=#ffe6cc;strokeColor=#d79b00;" parent="1" vertex="1">
          <mxGeometry x="600" y="440" width="180" height="40" as="geometry" />
        </mxCell>
        <mxCell id="JWgJpdZnl4A-yOBEKnvu-82" value="$$\color{blue}{w_1}$$" style="text;html=1;strokeColor=none;fillColor=none;align=center;verticalAlign=middle;whiteSpace=wrap;rounded=0;" parent="1" vertex="1">
          <mxGeometry x="540" y="141" width="60" height="30" as="geometry" />
        </mxCell>
        <mxCell id="JWgJpdZnl4A-yOBEKnvu-83" value="$$\color{green}{w_2}$$" style="text;html=1;strokeColor=none;fillColor=none;align=center;verticalAlign=middle;whiteSpace=wrap;rounded=0;" parent="1" vertex="1">
          <mxGeometry x="540" y="197" width="60" height="30" as="geometry" />
        </mxCell>
        <mxCell id="JWgJpdZnl4A-yOBEKnvu-84" value="$$\color{blue}{w_1}$$" style="text;html=1;strokeColor=none;fillColor=none;align=center;verticalAlign=middle;whiteSpace=wrap;rounded=0;" parent="1" vertex="1">
          <mxGeometry x="540" y="220" width="60" height="30" as="geometry" />
        </mxCell>
        <mxCell id="JWgJpdZnl4A-yOBEKnvu-85" value="$$\color{red}{w_3}$$" style="text;html=1;strokeColor=none;fillColor=none;align=center;verticalAlign=middle;whiteSpace=wrap;rounded=0;" parent="1" vertex="1">
          <mxGeometry x="550" y="250" width="60" height="30" as="geometry" />
        </mxCell>
        <mxCell id="JWgJpdZnl4A-yOBEKnvu-86" value="$$\color{green}{w_2}$$" style="text;html=1;strokeColor=none;fillColor=none;align=center;verticalAlign=middle;whiteSpace=wrap;rounded=0;" parent="1" vertex="1">
          <mxGeometry x="540" y="277" width="60" height="30" as="geometry" />
        </mxCell>
        <mxCell id="JWgJpdZnl4A-yOBEKnvu-87" value="$$\color{blue}{w_1}$$" style="text;html=1;strokeColor=none;fillColor=none;align=center;verticalAlign=middle;whiteSpace=wrap;rounded=0;" parent="1" vertex="1">
          <mxGeometry x="538" y="303" width="60" height="30" as="geometry" />
        </mxCell>
        <mxCell id="JWgJpdZnl4A-yOBEKnvu-90" value="$$\color{red}{w_3}$$" style="text;html=1;strokeColor=none;fillColor=none;align=center;verticalAlign=middle;whiteSpace=wrap;rounded=0;" parent="1" vertex="1">
          <mxGeometry x="550" y="333" width="60" height="30" as="geometry" />
        </mxCell>
        <mxCell id="JWgJpdZnl4A-yOBEKnvu-91" value="$$\color{green}{w_2}$$" style="text;html=1;strokeColor=none;fillColor=none;align=center;verticalAlign=middle;whiteSpace=wrap;rounded=0;" parent="1" vertex="1">
          <mxGeometry x="538" y="357" width="60" height="30" as="geometry" />
        </mxCell>
        <mxCell id="JWgJpdZnl4A-yOBEKnvu-92" value="$$\color{red}{w_3}$$" style="text;html=1;strokeColor=none;fillColor=none;align=center;verticalAlign=middle;whiteSpace=wrap;rounded=0;" parent="1" vertex="1">
          <mxGeometry x="550" y="411" width="60" height="30" as="geometry" />
        </mxCell>
        <mxCell id="JWgJpdZnl4A-yOBEKnvu-94" value="&lt;font style=&quot;font-size: 15px;&quot;&gt;图一: 基本转置卷积示意图&lt;/font&gt;" style="text;html=1;strokeColor=none;fillColor=none;align=center;verticalAlign=middle;whiteSpace=wrap;rounded=0;" parent="1" vertex="1">
          <mxGeometry x="314" y="64" width="200" height="30" as="geometry" />
        </mxCell>
        <mxCell id="JWgJpdZnl4A-yOBEKnvu-96" style="rounded=0;orthogonalLoop=1;jettySize=auto;html=1;exitX=1;exitY=0.5;exitDx=0;exitDy=0;entryX=0;entryY=0.5;entryDx=0;entryDy=0;fillColor=#0050ef;strokeColor=#001DBC;strokeWidth=2;" parent="1" source="JWgJpdZnl4A-yOBEKnvu-99" target="JWgJpdZnl4A-yOBEKnvu-108" edge="1">
          <mxGeometry relative="1" as="geometry" />
        </mxCell>
        <mxCell id="JWgJpdZnl4A-yOBEKnvu-97" style="edgeStyle=orthogonalEdgeStyle;rounded=0;orthogonalLoop=1;jettySize=auto;html=1;exitX=1;exitY=0.5;exitDx=0;exitDy=0;entryX=0;entryY=0.5;entryDx=0;entryDy=0;strokeWidth=2;fillColor=#60a917;strokeColor=#2D7600;" parent="1" source="JWgJpdZnl4A-yOBEKnvu-99" target="JWgJpdZnl4A-yOBEKnvu-109" edge="1">
          <mxGeometry relative="1" as="geometry" />
        </mxCell>
        <mxCell id="JWgJpdZnl4A-yOBEKnvu-98" style="rounded=0;orthogonalLoop=1;jettySize=auto;html=1;exitX=1;exitY=0.5;exitDx=0;exitDy=0;entryX=0;entryY=0.5;entryDx=0;entryDy=0;strokeColor=#FF0000;strokeWidth=2;" parent="1" source="JWgJpdZnl4A-yOBEKnvu-99" target="JWgJpdZnl4A-yOBEKnvu-110" edge="1">
          <mxGeometry relative="1" as="geometry" />
        </mxCell>
        <mxCell id="JWgJpdZnl4A-yOBEKnvu-99" value="$$o_1^{\prime}$$" style="rounded=1;whiteSpace=wrap;html=1;fillColor=#e1d5e7;strokeColor=#9673a6;" parent="1" vertex="1">
          <mxGeometry x="244" y="700" width="80" height="40" as="geometry" />
        </mxCell>
        <mxCell id="JWgJpdZnl4A-yOBEKnvu-100" style="rounded=0;orthogonalLoop=1;jettySize=auto;html=1;exitX=1;exitY=0.5;exitDx=0;exitDy=0;entryX=0;entryY=0.5;entryDx=0;entryDy=0;fillColor=#0050ef;strokeColor=#001DBC;strokeWidth=2;" parent="1" source="JWgJpdZnl4A-yOBEKnvu-103" target="JWgJpdZnl4A-yOBEKnvu-109" edge="1">
          <mxGeometry relative="1" as="geometry" />
        </mxCell>
        <mxCell id="JWgJpdZnl4A-yOBEKnvu-101" style="edgeStyle=orthogonalEdgeStyle;rounded=0;orthogonalLoop=1;jettySize=auto;html=1;exitX=1;exitY=0.5;exitDx=0;exitDy=0;entryX=0;entryY=0.5;entryDx=0;entryDy=0;strokeWidth=2;fillColor=#60a917;strokeColor=#2D7600;" parent="1" source="JWgJpdZnl4A-yOBEKnvu-103" target="JWgJpdZnl4A-yOBEKnvu-110" edge="1">
          <mxGeometry relative="1" as="geometry" />
        </mxCell>
        <mxCell id="JWgJpdZnl4A-yOBEKnvu-102" style="rounded=0;orthogonalLoop=1;jettySize=auto;html=1;exitX=1;exitY=0.5;exitDx=0;exitDy=0;entryX=0;entryY=0.5;entryDx=0;entryDy=0;strokeColor=#FF0000;strokeWidth=2;" parent="1" source="JWgJpdZnl4A-yOBEKnvu-103" target="JWgJpdZnl4A-yOBEKnvu-111" edge="1">
          <mxGeometry relative="1" as="geometry" />
        </mxCell>
        <mxCell id="JWgJpdZnl4A-yOBEKnvu-103" value="$$o_2^{\prime}$$" style="rounded=1;whiteSpace=wrap;html=1;fillColor=#e1d5e7;strokeColor=#9673a6;" parent="1" vertex="1">
          <mxGeometry x="244" y="780" width="80" height="40" as="geometry" />
        </mxCell>
        <mxCell id="JWgJpdZnl4A-yOBEKnvu-104" style="rounded=0;orthogonalLoop=1;jettySize=auto;html=1;exitX=1;exitY=0.5;exitDx=0;exitDy=0;entryX=0;entryY=0.5;entryDx=0;entryDy=0;fillColor=#0050ef;strokeColor=#001DBC;strokeWidth=2;" parent="1" source="JWgJpdZnl4A-yOBEKnvu-107" target="JWgJpdZnl4A-yOBEKnvu-110" edge="1">
          <mxGeometry relative="1" as="geometry" />
        </mxCell>
        <mxCell id="JWgJpdZnl4A-yOBEKnvu-105" style="rounded=0;orthogonalLoop=1;jettySize=auto;html=1;exitX=1;exitY=0.5;exitDx=0;exitDy=0;entryX=0;entryY=0.5;entryDx=0;entryDy=0;strokeWidth=2;fillColor=#60a917;strokeColor=#2D7600;" parent="1" source="JWgJpdZnl4A-yOBEKnvu-107" target="JWgJpdZnl4A-yOBEKnvu-111" edge="1">
          <mxGeometry relative="1" as="geometry" />
        </mxCell>
        <mxCell id="JWgJpdZnl4A-yOBEKnvu-106" style="rounded=0;orthogonalLoop=1;jettySize=auto;html=1;exitX=1;exitY=0.5;exitDx=0;exitDy=0;entryX=0;entryY=0.5;entryDx=0;entryDy=0;strokeColor=#FF0000;strokeWidth=2;" parent="1" source="JWgJpdZnl4A-yOBEKnvu-107" target="JWgJpdZnl4A-yOBEKnvu-112" edge="1">
          <mxGeometry relative="1" as="geometry" />
        </mxCell>
        <mxCell id="JWgJpdZnl4A-yOBEKnvu-107" value="$$o_3^{\prime}$$" style="rounded=1;whiteSpace=wrap;html=1;fillColor=#e1d5e7;strokeColor=#9673a6;" parent="1" vertex="1">
          <mxGeometry x="244" y="860" width="80" height="40" as="geometry" />
        </mxCell>
        <mxCell id="JWgJpdZnl4A-yOBEKnvu-108" value="$$x_1^{\prime} = 0 w_3 + 0 w_2 + o_1^{\prime} w_1$$" style="rounded=1;whiteSpace=wrap;html=1;shadow=0;fillColor=#ffe6cc;strokeColor=#d79b00;" parent="1" vertex="1">
          <mxGeometry x="404" y="620" width="180" height="40" as="geometry" />
        </mxCell>
        <mxCell id="JWgJpdZnl4A-yOBEKnvu-109" value="$$x_2^{\prime} = 0 w_3 + o_1^{\prime} w_2 +o_2^{\prime} w_1&lt;br&gt;$$" style="rounded=1;whiteSpace=wrap;html=1;shadow=0;fillColor=#ffe6cc;strokeColor=#d79b00;" parent="1" vertex="1">
          <mxGeometry x="404" y="700" width="180" height="40" as="geometry" />
        </mxCell>
        <mxCell id="JWgJpdZnl4A-yOBEKnvu-110" value="$$x_3^{\prime} = o_1^{\prime} w_3 +o_2^{\prime} w_2 + o_3^{\prime} w_1&lt;br&gt;$$" style="rounded=1;whiteSpace=wrap;html=1;shadow=0;fillColor=#ffe6cc;strokeColor=#d79b00;" parent="1" vertex="1">
          <mxGeometry x="404" y="780" width="180" height="40" as="geometry" />
        </mxCell>
        <mxCell id="JWgJpdZnl4A-yOBEKnvu-111" value="$$x_4^{\prime} = o_2^{\prime} w_3 +o_3^{\prime} w_2 + 0 w_1&lt;br style=&quot;border-color: var(--border-color);&quot;&gt;$$" style="rounded=1;whiteSpace=wrap;html=1;shadow=0;fillColor=#ffe6cc;strokeColor=#d79b00;" parent="1" vertex="1">
          <mxGeometry x="404" y="860" width="180" height="40" as="geometry" />
        </mxCell>
        <mxCell id="JWgJpdZnl4A-yOBEKnvu-112" value="$$x_5^{\prime} = o_3^{\prime} w_3 + 0 w_2 + 0 w_1$$" style="rounded=1;whiteSpace=wrap;html=1;shadow=0;fillColor=#ffe6cc;strokeColor=#d79b00;" parent="1" vertex="1">
          <mxGeometry x="404" y="940" width="180" height="40" as="geometry" />
        </mxCell>
        <mxCell id="JWgJpdZnl4A-yOBEKnvu-113" value="$$\color{blue}{w_1}$$" style="text;html=1;strokeColor=none;fillColor=none;align=center;verticalAlign=middle;whiteSpace=wrap;rounded=0;" parent="1" vertex="1">
          <mxGeometry x="344" y="641" width="60" height="30" as="geometry" />
        </mxCell>
        <mxCell id="JWgJpdZnl4A-yOBEKnvu-114" value="$$\color{green}{w_2}$$" style="text;html=1;strokeColor=none;fillColor=none;align=center;verticalAlign=middle;whiteSpace=wrap;rounded=0;" parent="1" vertex="1">
          <mxGeometry x="344" y="697" width="60" height="30" as="geometry" />
        </mxCell>
        <mxCell id="JWgJpdZnl4A-yOBEKnvu-115" value="$$\color{blue}{w_1}$$" style="text;html=1;strokeColor=none;fillColor=none;align=center;verticalAlign=middle;whiteSpace=wrap;rounded=0;" parent="1" vertex="1">
          <mxGeometry x="344" y="720" width="60" height="30" as="geometry" />
        </mxCell>
        <mxCell id="JWgJpdZnl4A-yOBEKnvu-116" value="$$\color{red}{w_3}$$" style="text;html=1;strokeColor=none;fillColor=none;align=center;verticalAlign=middle;whiteSpace=wrap;rounded=0;" parent="1" vertex="1">
          <mxGeometry x="354" y="750" width="60" height="30" as="geometry" />
        </mxCell>
        <mxCell id="JWgJpdZnl4A-yOBEKnvu-117" value="$$\color{green}{w_2}$$" style="text;html=1;strokeColor=none;fillColor=none;align=center;verticalAlign=middle;whiteSpace=wrap;rounded=0;" parent="1" vertex="1">
          <mxGeometry x="344" y="777" width="60" height="30" as="geometry" />
        </mxCell>
        <mxCell id="JWgJpdZnl4A-yOBEKnvu-118" value="$$\color{blue}{w_1}$$" style="text;html=1;strokeColor=none;fillColor=none;align=center;verticalAlign=middle;whiteSpace=wrap;rounded=0;" parent="1" vertex="1">
          <mxGeometry x="342" y="803" width="60" height="30" as="geometry" />
        </mxCell>
        <mxCell id="JWgJpdZnl4A-yOBEKnvu-119" value="$$\color{red}{w_3}$$" style="text;html=1;strokeColor=none;fillColor=none;align=center;verticalAlign=middle;whiteSpace=wrap;rounded=0;" parent="1" vertex="1">
          <mxGeometry x="354" y="833" width="60" height="30" as="geometry" />
        </mxCell>
        <mxCell id="JWgJpdZnl4A-yOBEKnvu-120" value="$$\color{green}{w_2}$$" style="text;html=1;strokeColor=none;fillColor=none;align=center;verticalAlign=middle;whiteSpace=wrap;rounded=0;" parent="1" vertex="1">
          <mxGeometry x="342" y="857" width="60" height="30" as="geometry" />
        </mxCell>
        <mxCell id="JWgJpdZnl4A-yOBEKnvu-121" value="$$\color{red}{w_3}$$" style="text;html=1;strokeColor=none;fillColor=none;align=center;verticalAlign=middle;whiteSpace=wrap;rounded=0;" parent="1" vertex="1">
          <mxGeometry x="354" y="911" width="60" height="30" as="geometry" />
        </mxCell>
        <mxCell id="JWgJpdZnl4A-yOBEKnvu-127" style="edgeStyle=orthogonalEdgeStyle;rounded=0;orthogonalLoop=1;jettySize=auto;html=1;exitX=1;exitY=0.5;exitDx=0;exitDy=0;entryX=0;entryY=0.5;entryDx=0;entryDy=0;fillColor=#60a917;strokeColor=#2D7600;strokeWidth=2;dashed=1;" parent="1" source="JWgJpdZnl4A-yOBEKnvu-122" target="JWgJpdZnl4A-yOBEKnvu-108" edge="1">
          <mxGeometry relative="1" as="geometry" />
        </mxCell>
        <mxCell id="JWgJpdZnl4A-yOBEKnvu-130" style="rounded=0;orthogonalLoop=1;jettySize=auto;html=1;exitX=1;exitY=0.5;exitDx=0;exitDy=0;entryX=0;entryY=0.5;entryDx=0;entryDy=0;strokeColor=#FF0000;strokeWidth=2;dashed=1;" parent="1" source="JWgJpdZnl4A-yOBEKnvu-122" target="JWgJpdZnl4A-yOBEKnvu-109" edge="1">
          <mxGeometry relative="1" as="geometry" />
        </mxCell>
        <mxCell id="JWgJpdZnl4A-yOBEKnvu-122" value="$$ 0 $$" style="rounded=1;whiteSpace=wrap;html=1;fillColor=#e1d5e7;strokeColor=#9673a6;dashed=1;" parent="1" vertex="1">
          <mxGeometry x="244" y="620" width="80" height="40" as="geometry" />
        </mxCell>
        <mxCell id="JWgJpdZnl4A-yOBEKnvu-129" style="rounded=0;orthogonalLoop=1;jettySize=auto;html=1;exitX=1;exitY=0.5;exitDx=0;exitDy=0;entryX=0;entryY=0.5;entryDx=0;entryDy=0;strokeColor=#FF0000;strokeWidth=2;dashed=1;" parent="1" source="JWgJpdZnl4A-yOBEKnvu-123" target="JWgJpdZnl4A-yOBEKnvu-108" edge="1">
          <mxGeometry relative="1" as="geometry" />
        </mxCell>
        <mxCell id="JWgJpdZnl4A-yOBEKnvu-123" value="$$ 0 $$" style="rounded=1;whiteSpace=wrap;html=1;fillColor=#e1d5e7;strokeColor=#9673a6;dashed=1;" parent="1" vertex="1">
          <mxGeometry x="244" y="540" width="80" height="40" as="geometry" />
        </mxCell>
        <mxCell id="JWgJpdZnl4A-yOBEKnvu-131" style="rounded=0;orthogonalLoop=1;jettySize=auto;html=1;exitX=1;exitY=0.5;exitDx=0;exitDy=0;entryX=0;entryY=0.5;entryDx=0;entryDy=0;fillColor=#0050ef;strokeColor=#001DBC;strokeWidth=2;dashed=1;" parent="1" source="JWgJpdZnl4A-yOBEKnvu-124" target="JWgJpdZnl4A-yOBEKnvu-111" edge="1">
          <mxGeometry relative="1" as="geometry" />
        </mxCell>
        <mxCell id="JWgJpdZnl4A-yOBEKnvu-133" style="edgeStyle=orthogonalEdgeStyle;rounded=0;orthogonalLoop=1;jettySize=auto;html=1;exitX=1;exitY=0.5;exitDx=0;exitDy=0;entryX=0;entryY=0.5;entryDx=0;entryDy=0;fillColor=#60a917;strokeColor=#2D7600;strokeWidth=2;dashed=1;" parent="1" source="JWgJpdZnl4A-yOBEKnvu-124" target="JWgJpdZnl4A-yOBEKnvu-112" edge="1">
          <mxGeometry relative="1" as="geometry" />
        </mxCell>
        <mxCell id="JWgJpdZnl4A-yOBEKnvu-124" value="$$ 0 $$" style="rounded=1;whiteSpace=wrap;html=1;fillColor=#e1d5e7;strokeColor=#9673a6;dashed=1;" parent="1" vertex="1">
          <mxGeometry x="244" y="941" width="80" height="40" as="geometry" />
        </mxCell>
        <mxCell id="JWgJpdZnl4A-yOBEKnvu-132" style="rounded=0;orthogonalLoop=1;jettySize=auto;html=1;exitX=1;exitY=0.5;exitDx=0;exitDy=0;entryX=0;entryY=0.5;entryDx=0;entryDy=0;fillColor=#0050ef;strokeColor=#001DBC;strokeWidth=2;dashed=1;" parent="1" source="JWgJpdZnl4A-yOBEKnvu-125" target="JWgJpdZnl4A-yOBEKnvu-112" edge="1">
          <mxGeometry relative="1" as="geometry" />
        </mxCell>
        <mxCell id="JWgJpdZnl4A-yOBEKnvu-125" value="$$ 0 $$" style="rounded=1;whiteSpace=wrap;html=1;fillColor=#e1d5e7;strokeColor=#9673a6;dashed=1;" parent="1" vertex="1">
          <mxGeometry x="244" y="1020" width="80" height="40" as="geometry" />
        </mxCell>
        <mxCell id="JWgJpdZnl4A-yOBEKnvu-136" value="$$\color{red}{w_3}$$" style="text;html=1;strokeColor=none;fillColor=none;align=center;verticalAlign=middle;whiteSpace=wrap;rounded=0;" parent="1" vertex="1">
          <mxGeometry x="354" y="672" width="60" height="30" as="geometry" />
        </mxCell>
        <mxCell id="JWgJpdZnl4A-yOBEKnvu-137" value="$$\color{red}{w_3}$$" style="text;html=1;strokeColor=none;fillColor=none;align=center;verticalAlign=middle;whiteSpace=wrap;rounded=0;" parent="1" vertex="1">
          <mxGeometry x="354" y="592" width="60" height="30" as="geometry" />
        </mxCell>
        <mxCell id="JWgJpdZnl4A-yOBEKnvu-138" value="$$\color{green}{w_2}$$" style="text;html=1;strokeColor=none;fillColor=none;align=center;verticalAlign=middle;whiteSpace=wrap;rounded=0;" parent="1" vertex="1">
          <mxGeometry x="344" y="617" width="60" height="30" as="geometry" />
        </mxCell>
        <mxCell id="JWgJpdZnl4A-yOBEKnvu-139" value="$$\color{green}{w_2}$$" style="text;html=1;strokeColor=none;fillColor=none;align=center;verticalAlign=middle;whiteSpace=wrap;rounded=0;" parent="1" vertex="1">
          <mxGeometry x="342" y="937" width="60" height="30" as="geometry" />
        </mxCell>
        <mxCell id="JWgJpdZnl4A-yOBEKnvu-140" value="$$\color{blue}{w_1}$$" style="text;html=1;strokeColor=none;fillColor=none;align=center;verticalAlign=middle;whiteSpace=wrap;rounded=0;" parent="1" vertex="1">
          <mxGeometry x="344" y="881" width="60" height="30" as="geometry" />
        </mxCell>
        <mxCell id="JWgJpdZnl4A-yOBEKnvu-141" value="$$\color{blue}{w_1}$$" style="text;html=1;strokeColor=none;fillColor=none;align=center;verticalAlign=middle;whiteSpace=wrap;rounded=0;" parent="1" vertex="1">
          <mxGeometry x="344" y="961" width="60" height="30" as="geometry" />
        </mxCell>
        <mxCell id="JWgJpdZnl4A-yOBEKnvu-142" value="&lt;font style=&quot;font-size: 13px;&quot;&gt;(1-a) 卷积运算&lt;/font&gt;" style="text;html=1;strokeColor=none;fillColor=none;align=center;verticalAlign=middle;whiteSpace=wrap;rounded=0;" parent="1" vertex="1">
          <mxGeometry x="40" y="490" width="340" height="30" as="geometry" />
        </mxCell>
        <mxCell id="JWgJpdZnl4A-yOBEKnvu-143" value="&lt;font style=&quot;font-size: 13px;&quot;&gt;(1-b) 卷积运算反向过程&lt;/font&gt;" style="text;html=1;strokeColor=none;fillColor=none;align=center;verticalAlign=middle;whiteSpace=wrap;rounded=0;" parent="1" vertex="1">
          <mxGeometry x="440" y="490" width="340" height="30" as="geometry" />
        </mxCell>
        <mxCell id="JWgJpdZnl4A-yOBEKnvu-144" value="&lt;font style=&quot;font-size: 13px;&quot;&gt;(1-c)&amp;nbsp;&lt;/font&gt;卷积运算反向过程 full padding 示意" style="text;html=1;strokeColor=none;fillColor=none;align=center;verticalAlign=middle;whiteSpace=wrap;rounded=0;" parent="1" vertex="1">
          <mxGeometry x="244" y="1080" width="340" height="30" as="geometry" />
        </mxCell>
      </root>
    </mxGraphModel>
  </diagram>
  <diagram id="47z0_3q_DJHVQm8C0Onz" name="填充转置卷积">
    <mxGraphModel dx="1036" dy="615" grid="1" gridSize="10" guides="1" tooltips="1" connect="1" arrows="1" fold="1" page="1" pageScale="1" pageWidth="827" pageHeight="1169" math="1" shadow="0">
      <root>
        <mxCell id="0" />
        <mxCell id="1" parent="0" />
        <mxCell id="NSD28dVi1ABvFPaUCvlh-2" style="rounded=0;orthogonalLoop=1;jettySize=auto;html=1;exitX=1;exitY=0.5;exitDx=0;exitDy=0;entryX=0;entryY=0.5;entryDx=0;entryDy=0;fillColor=#0050ef;strokeColor=#001DBC;strokeWidth=2;dashed=1;" parent="1" source="NSD28dVi1ABvFPaUCvlh-3" target="NSD28dVi1ABvFPaUCvlh-19" edge="1">
          <mxGeometry relative="1" as="geometry" />
        </mxCell>
        <mxCell id="NSD28dVi1ABvFPaUCvlh-3" value="$$0$$" style="rounded=1;whiteSpace=wrap;html=1;shadow=0;fillColor=#ffe6cc;strokeColor=#d79b00;dashed=1;" parent="1" vertex="1">
          <mxGeometry x="40" y="240" width="80" height="40" as="geometry" />
        </mxCell>
        <mxCell id="NSD28dVi1ABvFPaUCvlh-5" style="rounded=0;orthogonalLoop=1;jettySize=auto;html=1;exitX=1;exitY=0.5;exitDx=0;exitDy=0;fillColor=#60a917;strokeColor=#2D7600;strokeWidth=2;" parent="1" source="NSD28dVi1ABvFPaUCvlh-7" edge="1">
          <mxGeometry relative="1" as="geometry">
            <mxPoint x="200" y="340" as="targetPoint" />
          </mxGeometry>
        </mxCell>
        <mxCell id="NSD28dVi1ABvFPaUCvlh-6" style="rounded=0;orthogonalLoop=1;jettySize=auto;html=1;exitX=1;exitY=0.5;exitDx=0;exitDy=0;entryX=0;entryY=0.5;entryDx=0;entryDy=0;fillColor=#0050ef;strokeColor=#001DBC;strokeWidth=2;" parent="1" source="NSD28dVi1ABvFPaUCvlh-7" target="NSD28dVi1ABvFPaUCvlh-20" edge="1">
          <mxGeometry relative="1" as="geometry" />
        </mxCell>
        <mxCell id="NSD28dVi1ABvFPaUCvlh-7" value="$$x_1$$" style="rounded=1;whiteSpace=wrap;html=1;shadow=0;fillColor=#ffe6cc;strokeColor=#d79b00;" parent="1" vertex="1">
          <mxGeometry x="40" y="320" width="80" height="40" as="geometry" />
        </mxCell>
        <mxCell id="NSD28dVi1ABvFPaUCvlh-8" style="rounded=0;orthogonalLoop=1;jettySize=auto;html=1;exitX=1;exitY=0.5;exitDx=0;exitDy=0;entryX=0;entryY=0.5;entryDx=0;entryDy=0;strokeColor=#FF0000;strokeWidth=2;" parent="1" source="NSD28dVi1ABvFPaUCvlh-11" target="NSD28dVi1ABvFPaUCvlh-19" edge="1">
          <mxGeometry relative="1" as="geometry" />
        </mxCell>
        <mxCell id="NSD28dVi1ABvFPaUCvlh-9" style="rounded=0;orthogonalLoop=1;jettySize=auto;html=1;exitX=1;exitY=0.5;exitDx=0;exitDy=0;fillColor=#60a917;strokeColor=#2D7600;strokeWidth=2;" parent="1" source="NSD28dVi1ABvFPaUCvlh-11" target="NSD28dVi1ABvFPaUCvlh-20" edge="1">
          <mxGeometry relative="1" as="geometry" />
        </mxCell>
        <mxCell id="NSD28dVi1ABvFPaUCvlh-10" style="rounded=0;orthogonalLoop=1;jettySize=auto;html=1;exitX=1;exitY=0.5;exitDx=0;exitDy=0;entryX=0;entryY=0.5;entryDx=0;entryDy=0;fillColor=#0050ef;strokeColor=#001DBC;strokeWidth=2;" parent="1" source="NSD28dVi1ABvFPaUCvlh-11" target="NSD28dVi1ABvFPaUCvlh-21" edge="1">
          <mxGeometry relative="1" as="geometry" />
        </mxCell>
        <mxCell id="NSD28dVi1ABvFPaUCvlh-11" value="$$x_2$$" style="rounded=1;whiteSpace=wrap;html=1;shadow=0;fillColor=#ffe6cc;strokeColor=#d79b00;" parent="1" vertex="1">
          <mxGeometry x="40" y="400" width="80" height="40" as="geometry" />
        </mxCell>
        <mxCell id="NSD28dVi1ABvFPaUCvlh-12" style="rounded=0;orthogonalLoop=1;jettySize=auto;html=1;exitX=1;exitY=0.5;exitDx=0;exitDy=0;entryX=0;entryY=0.5;entryDx=0;entryDy=0;strokeColor=#FF0000;strokeWidth=2;" parent="1" source="NSD28dVi1ABvFPaUCvlh-15" target="NSD28dVi1ABvFPaUCvlh-20" edge="1">
          <mxGeometry relative="1" as="geometry" />
        </mxCell>
        <mxCell id="NSD28dVi1ABvFPaUCvlh-13" style="rounded=0;orthogonalLoop=1;jettySize=auto;html=1;exitX=1;exitY=0.5;exitDx=0;exitDy=0;entryX=0;entryY=0.5;entryDx=0;entryDy=0;fillColor=#60a917;strokeColor=#2D7600;strokeWidth=2;" parent="1" source="NSD28dVi1ABvFPaUCvlh-15" target="NSD28dVi1ABvFPaUCvlh-21" edge="1">
          <mxGeometry relative="1" as="geometry" />
        </mxCell>
        <mxCell id="NSD28dVi1ABvFPaUCvlh-15" value="$$x_3$$" style="rounded=1;whiteSpace=wrap;html=1;shadow=0;fillColor=#ffe6cc;strokeColor=#d79b00;" parent="1" vertex="1">
          <mxGeometry x="40" y="480" width="80" height="40" as="geometry" />
        </mxCell>
        <mxCell id="NSD28dVi1ABvFPaUCvlh-16" style="rounded=0;orthogonalLoop=1;jettySize=auto;html=1;exitX=1;exitY=0.5;exitDx=0;exitDy=0;entryX=0;entryY=0.5;entryDx=0;entryDy=0;strokeColor=#FF0000;strokeWidth=2;dashed=1;" parent="1" source="NSD28dVi1ABvFPaUCvlh-18" target="NSD28dVi1ABvFPaUCvlh-21" edge="1">
          <mxGeometry relative="1" as="geometry" />
        </mxCell>
        <mxCell id="NSD28dVi1ABvFPaUCvlh-18" value="$$0$$" style="rounded=1;whiteSpace=wrap;html=1;shadow=0;fillColor=#ffe6cc;strokeColor=#d79b00;dashed=1;" parent="1" vertex="1">
          <mxGeometry x="40" y="560" width="80" height="40" as="geometry" />
        </mxCell>
        <mxCell id="NSD28dVi1ABvFPaUCvlh-19" value="$$o_1 = 0 w_1 +&amp;nbsp;&lt;br&gt;x_1 w_2 + x_2 w_3&lt;br&gt;$$" style="rounded=1;whiteSpace=wrap;html=1;fillColor=#e1d5e7;strokeColor=#9673a6;" parent="1" vertex="1">
          <mxGeometry x="200" y="320" width="180" height="40" as="geometry" />
        </mxCell>
        <mxCell id="NSD28dVi1ABvFPaUCvlh-20" value="$$o_2 = x_1 w_1 +&amp;nbsp;&lt;br&gt;x_2 w_2+ x_3 w_3&lt;br&gt;$$" style="rounded=1;whiteSpace=wrap;html=1;fillColor=#e1d5e7;strokeColor=#9673a6;" parent="1" vertex="1">
          <mxGeometry x="200" y="400" width="180" height="40" as="geometry" />
        </mxCell>
        <mxCell id="NSD28dVi1ABvFPaUCvlh-21" value="$$o_3 = x_2 w_1 +&amp;nbsp;&lt;br&gt;x_3 w_2 + 0 w_3&lt;br&gt;$$" style="rounded=1;whiteSpace=wrap;html=1;fillColor=#e1d5e7;strokeColor=#9673a6;" parent="1" vertex="1">
          <mxGeometry x="200" y="480" width="180" height="40" as="geometry" />
        </mxCell>
        <mxCell id="NSD28dVi1ABvFPaUCvlh-22" style="edgeStyle=orthogonalEdgeStyle;rounded=0;orthogonalLoop=1;jettySize=auto;html=1;exitX=1;exitY=0.5;exitDx=0;exitDy=0;entryX=0;entryY=0.5;entryDx=0;entryDy=0;strokeWidth=2;fillColor=#60a917;strokeColor=#2D7600;" parent="1" source="NSD28dVi1ABvFPaUCvlh-25" target="NSD28dVi1ABvFPaUCvlh-35" edge="1">
          <mxGeometry relative="1" as="geometry" />
        </mxCell>
        <mxCell id="NSD28dVi1ABvFPaUCvlh-23" style="rounded=0;orthogonalLoop=1;jettySize=auto;html=1;exitX=1;exitY=0.5;exitDx=0;exitDy=0;entryX=0;entryY=0.5;entryDx=0;entryDy=0;strokeColor=#FF0000;strokeWidth=2;" parent="1" source="NSD28dVi1ABvFPaUCvlh-25" target="NSD28dVi1ABvFPaUCvlh-36" edge="1">
          <mxGeometry relative="1" as="geometry" />
        </mxCell>
        <mxCell id="NSD28dVi1ABvFPaUCvlh-24" style="rounded=0;orthogonalLoop=1;jettySize=auto;html=1;exitX=1;exitY=0.5;exitDx=0;exitDy=0;entryX=0;entryY=0.5;entryDx=0;entryDy=0;fillColor=#0050ef;strokeColor=#001DBC;strokeWidth=2;dashed=1;" parent="1" source="NSD28dVi1ABvFPaUCvlh-25" target="NSD28dVi1ABvFPaUCvlh-34" edge="1">
          <mxGeometry relative="1" as="geometry" />
        </mxCell>
        <mxCell id="NSD28dVi1ABvFPaUCvlh-25" value="$$o_1^{\prime}$$" style="rounded=1;whiteSpace=wrap;html=1;fillColor=#e1d5e7;strokeColor=#9673a6;" parent="1" vertex="1">
          <mxGeometry x="440" y="319" width="80" height="40" as="geometry" />
        </mxCell>
        <mxCell id="NSD28dVi1ABvFPaUCvlh-26" style="rounded=0;orthogonalLoop=1;jettySize=auto;html=1;exitX=1;exitY=0.5;exitDx=0;exitDy=0;entryX=0;entryY=0.5;entryDx=0;entryDy=0;fillColor=#0050ef;strokeColor=#001DBC;strokeWidth=2;" parent="1" source="NSD28dVi1ABvFPaUCvlh-29" target="NSD28dVi1ABvFPaUCvlh-35" edge="1">
          <mxGeometry relative="1" as="geometry" />
        </mxCell>
        <mxCell id="NSD28dVi1ABvFPaUCvlh-27" style="edgeStyle=orthogonalEdgeStyle;rounded=0;orthogonalLoop=1;jettySize=auto;html=1;exitX=1;exitY=0.5;exitDx=0;exitDy=0;entryX=0;entryY=0.5;entryDx=0;entryDy=0;strokeWidth=2;fillColor=#60a917;strokeColor=#2D7600;" parent="1" source="NSD28dVi1ABvFPaUCvlh-29" target="NSD28dVi1ABvFPaUCvlh-36" edge="1">
          <mxGeometry relative="1" as="geometry" />
        </mxCell>
        <mxCell id="NSD28dVi1ABvFPaUCvlh-28" style="rounded=0;orthogonalLoop=1;jettySize=auto;html=1;exitX=1;exitY=0.5;exitDx=0;exitDy=0;entryX=0;entryY=0.5;entryDx=0;entryDy=0;strokeColor=#FF0000;strokeWidth=2;" parent="1" source="NSD28dVi1ABvFPaUCvlh-29" target="NSD28dVi1ABvFPaUCvlh-37" edge="1">
          <mxGeometry relative="1" as="geometry" />
        </mxCell>
        <mxCell id="NSD28dVi1ABvFPaUCvlh-29" value="$$o_2^{\prime}$$" style="rounded=1;whiteSpace=wrap;html=1;fillColor=#e1d5e7;strokeColor=#9673a6;" parent="1" vertex="1">
          <mxGeometry x="440" y="399" width="80" height="40" as="geometry" />
        </mxCell>
        <mxCell id="NSD28dVi1ABvFPaUCvlh-30" style="rounded=0;orthogonalLoop=1;jettySize=auto;html=1;exitX=1;exitY=0.5;exitDx=0;exitDy=0;entryX=0;entryY=0.5;entryDx=0;entryDy=0;fillColor=#0050ef;strokeColor=#001DBC;strokeWidth=2;" parent="1" source="NSD28dVi1ABvFPaUCvlh-33" target="NSD28dVi1ABvFPaUCvlh-36" edge="1">
          <mxGeometry relative="1" as="geometry" />
        </mxCell>
        <mxCell id="NSD28dVi1ABvFPaUCvlh-31" style="rounded=0;orthogonalLoop=1;jettySize=auto;html=1;exitX=1;exitY=0.5;exitDx=0;exitDy=0;entryX=0;entryY=0.5;entryDx=0;entryDy=0;strokeWidth=2;fillColor=#60a917;strokeColor=#2D7600;" parent="1" source="NSD28dVi1ABvFPaUCvlh-33" target="NSD28dVi1ABvFPaUCvlh-37" edge="1">
          <mxGeometry relative="1" as="geometry" />
        </mxCell>
        <mxCell id="NSD28dVi1ABvFPaUCvlh-32" style="rounded=0;orthogonalLoop=1;jettySize=auto;html=1;exitX=1;exitY=0.5;exitDx=0;exitDy=0;entryX=0;entryY=0.5;entryDx=0;entryDy=0;strokeColor=#FF0000;strokeWidth=2;dashed=1;" parent="1" source="NSD28dVi1ABvFPaUCvlh-33" target="NSD28dVi1ABvFPaUCvlh-38" edge="1">
          <mxGeometry relative="1" as="geometry" />
        </mxCell>
        <mxCell id="NSD28dVi1ABvFPaUCvlh-33" value="$$o_3^{\prime}$$" style="rounded=1;whiteSpace=wrap;html=1;fillColor=#e1d5e7;strokeColor=#9673a6;" parent="1" vertex="1">
          <mxGeometry x="440" y="479" width="80" height="40" as="geometry" />
        </mxCell>
        <mxCell id="NSD28dVi1ABvFPaUCvlh-34" value="丢弃" style="rounded=1;whiteSpace=wrap;html=1;shadow=0;fillColor=#ffe6cc;strokeColor=#d79b00;dashed=1;" parent="1" vertex="1">
          <mxGeometry x="600" y="239" width="180" height="40" as="geometry" />
        </mxCell>
        <mxCell id="NSD28dVi1ABvFPaUCvlh-35" value="$$x_1^{\prime} = 0 w_3 + o_1^{\prime} w_2 +o_2^{\prime} w_1&lt;br&gt;$$" style="rounded=1;whiteSpace=wrap;html=1;shadow=0;fillColor=#ffe6cc;strokeColor=#d79b00;" parent="1" vertex="1">
          <mxGeometry x="600" y="319" width="180" height="40" as="geometry" />
        </mxCell>
        <mxCell id="NSD28dVi1ABvFPaUCvlh-36" value="$$x_2^{\prime} = o_1^{\prime} w_3 + o_2^{\prime} w_2 +o_3^{\prime} w_1&lt;br style=&quot;border-color: var(--border-color);&quot;&gt;$$" style="rounded=1;whiteSpace=wrap;html=1;shadow=0;fillColor=#ffe6cc;strokeColor=#d79b00;" parent="1" vertex="1">
          <mxGeometry x="600" y="399" width="180" height="40" as="geometry" />
        </mxCell>
        <mxCell id="NSD28dVi1ABvFPaUCvlh-37" value="$$x_3^{\prime} = o_2^{\prime} w_3 + o_3^{\prime} w_2 + 0 w_1&lt;br style=&quot;border-color: var(--border-color);&quot;&gt;$$" style="rounded=1;whiteSpace=wrap;html=1;shadow=0;fillColor=#ffe6cc;strokeColor=#d79b00;" parent="1" vertex="1">
          <mxGeometry x="600" y="479" width="180" height="40" as="geometry" />
        </mxCell>
        <mxCell id="NSD28dVi1ABvFPaUCvlh-38" value="丢弃" style="rounded=1;whiteSpace=wrap;html=1;shadow=0;fillColor=#ffe6cc;strokeColor=#d79b00;dashed=1;" parent="1" vertex="1">
          <mxGeometry x="600" y="559" width="180" height="40" as="geometry" />
        </mxCell>
        <mxCell id="NSD28dVi1ABvFPaUCvlh-39" value="&lt;font style=&quot;font-size: 15px;&quot;&gt;图二: 填充转置卷积示意图&lt;/font&gt;" style="text;html=1;strokeColor=none;fillColor=none;align=center;verticalAlign=middle;whiteSpace=wrap;rounded=0;" parent="1" vertex="1">
          <mxGeometry x="314" y="110" width="200" height="30" as="geometry" />
        </mxCell>
        <mxCell id="NSD28dVi1ABvFPaUCvlh-48" value="$$\color{blue}{w_1}$$" style="text;html=1;strokeColor=none;fillColor=none;align=center;verticalAlign=middle;whiteSpace=wrap;rounded=0;" parent="1" vertex="1">
          <mxGeometry x="110" y="330" width="60" height="30" as="geometry" />
        </mxCell>
        <mxCell id="NSD28dVi1ABvFPaUCvlh-49" value="$$\color{blue}{w_1}$$" style="text;html=1;strokeColor=none;fillColor=none;align=center;verticalAlign=middle;whiteSpace=wrap;rounded=0;" parent="1" vertex="1">
          <mxGeometry x="110" y="410" width="60" height="30" as="geometry" />
        </mxCell>
        <mxCell id="NSD28dVi1ABvFPaUCvlh-52" value="$$\color{green}{w_2}$$" style="text;html=1;strokeColor=none;fillColor=none;align=center;verticalAlign=middle;whiteSpace=wrap;rounded=0;" parent="1" vertex="1">
          <mxGeometry x="134" y="316" width="60" height="30" as="geometry" />
        </mxCell>
        <mxCell id="NSD28dVi1ABvFPaUCvlh-53" value="$$\color{green}{w_2}$$" style="text;html=1;strokeColor=none;fillColor=none;align=center;verticalAlign=middle;whiteSpace=wrap;rounded=0;" parent="1" vertex="1">
          <mxGeometry x="134" y="396" width="60" height="30" as="geometry" />
        </mxCell>
        <mxCell id="NSD28dVi1ABvFPaUCvlh-54" value="$$\color{green}{w_2}$$" style="text;html=1;strokeColor=none;fillColor=none;align=center;verticalAlign=middle;whiteSpace=wrap;rounded=0;" parent="1" vertex="1">
          <mxGeometry x="134" y="476" width="60" height="30" as="geometry" />
        </mxCell>
        <mxCell id="NSD28dVi1ABvFPaUCvlh-57" value="$$\color{red}{w_3}$$" style="text;html=1;strokeColor=none;fillColor=none;align=center;verticalAlign=middle;whiteSpace=wrap;rounded=0;" parent="1" vertex="1">
          <mxGeometry x="100" y="380" width="60" height="30" as="geometry" />
        </mxCell>
        <mxCell id="NSD28dVi1ABvFPaUCvlh-58" value="$$\color{red}{w_3}$$" style="text;html=1;strokeColor=none;fillColor=none;align=center;verticalAlign=middle;whiteSpace=wrap;rounded=0;" parent="1" vertex="1">
          <mxGeometry x="100" y="460" width="60" height="30" as="geometry" />
        </mxCell>
        <mxCell id="NSD28dVi1ABvFPaUCvlh-59" value="$$\color{red}{w_3}$$" style="text;html=1;strokeColor=none;fillColor=none;align=center;verticalAlign=middle;whiteSpace=wrap;rounded=0;" parent="1" vertex="1">
          <mxGeometry x="100" y="540" width="60" height="30" as="geometry" />
        </mxCell>
        <mxCell id="NSD28dVi1ABvFPaUCvlh-62" style="rounded=0;orthogonalLoop=1;jettySize=auto;html=1;exitX=1;exitY=0.5;exitDx=0;exitDy=0;entryX=0;entryY=0.5;entryDx=0;entryDy=0;fillColor=#60a917;strokeColor=#2D7600;strokeWidth=2;dashed=1;" parent="1" source="NSD28dVi1ABvFPaUCvlh-64" target="NSD28dVi1ABvFPaUCvlh-34" edge="1">
          <mxGeometry relative="1" as="geometry" />
        </mxCell>
        <mxCell id="NSD28dVi1ABvFPaUCvlh-63" style="rounded=0;orthogonalLoop=1;jettySize=auto;html=1;exitX=1;exitY=0.5;exitDx=0;exitDy=0;entryX=0;entryY=0.5;entryDx=0;entryDy=0;strokeColor=#FF0000;strokeWidth=2;dashed=1;" parent="1" source="NSD28dVi1ABvFPaUCvlh-64" target="NSD28dVi1ABvFPaUCvlh-35" edge="1">
          <mxGeometry relative="1" as="geometry" />
        </mxCell>
        <mxCell id="NSD28dVi1ABvFPaUCvlh-64" value="$$0$$" style="rounded=1;whiteSpace=wrap;html=1;fillColor=#e1d5e7;strokeColor=#9673a6;dashed=1;" parent="1" vertex="1">
          <mxGeometry x="440" y="239" width="80" height="40" as="geometry" />
        </mxCell>
        <mxCell id="NSD28dVi1ABvFPaUCvlh-65" style="rounded=0;orthogonalLoop=1;jettySize=auto;html=1;exitX=1;exitY=0.5;exitDx=0;exitDy=0;entryX=0;entryY=0.5;entryDx=0;entryDy=0;fillColor=#0050ef;strokeColor=#001DBC;strokeWidth=2;dashed=1;" parent="1" source="NSD28dVi1ABvFPaUCvlh-68" target="NSD28dVi1ABvFPaUCvlh-37" edge="1">
          <mxGeometry relative="1" as="geometry" />
        </mxCell>
        <mxCell id="NSD28dVi1ABvFPaUCvlh-66" style="edgeStyle=orthogonalEdgeStyle;rounded=0;orthogonalLoop=1;jettySize=auto;html=1;exitX=1;exitY=0.5;exitDx=0;exitDy=0;entryX=0;entryY=0.5;entryDx=0;entryDy=0;fillColor=#60a917;strokeColor=#2D7600;strokeWidth=2;dashed=1;" parent="1" source="NSD28dVi1ABvFPaUCvlh-68" target="NSD28dVi1ABvFPaUCvlh-38" edge="1">
          <mxGeometry relative="1" as="geometry" />
        </mxCell>
        <mxCell id="NSD28dVi1ABvFPaUCvlh-68" value="$$0$$" style="rounded=1;whiteSpace=wrap;html=1;fillColor=#e1d5e7;strokeColor=#9673a6;dashed=1;" parent="1" vertex="1">
          <mxGeometry x="440" y="559" width="80" height="40" as="geometry" />
        </mxCell>
        <mxCell id="NSD28dVi1ABvFPaUCvlh-72" style="rounded=0;orthogonalLoop=1;jettySize=auto;html=1;exitX=1;exitY=0.5;exitDx=0;exitDy=0;entryX=0;entryY=0.5;entryDx=0;entryDy=0;strokeColor=#FF0000;strokeWidth=2;dashed=1;" parent="1" source="NSD28dVi1ABvFPaUCvlh-73" target="NSD28dVi1ABvFPaUCvlh-34" edge="1">
          <mxGeometry relative="1" as="geometry" />
        </mxCell>
        <mxCell id="NSD28dVi1ABvFPaUCvlh-73" value="$$0$$" style="rounded=1;whiteSpace=wrap;html=1;fillColor=#e1d5e7;strokeColor=#9673a6;dashed=1;" parent="1" vertex="1">
          <mxGeometry x="440" y="160" width="80" height="40" as="geometry" />
        </mxCell>
        <mxCell id="NSD28dVi1ABvFPaUCvlh-74" style="rounded=0;orthogonalLoop=1;jettySize=auto;html=1;exitX=1;exitY=0.5;exitDx=0;exitDy=0;entryX=0;entryY=0.5;entryDx=0;entryDy=0;fillColor=#0050ef;strokeColor=#001DBC;strokeWidth=2;dashed=1;" parent="1" source="NSD28dVi1ABvFPaUCvlh-76" target="NSD28dVi1ABvFPaUCvlh-38" edge="1">
          <mxGeometry relative="1" as="geometry" />
        </mxCell>
        <mxCell id="NSD28dVi1ABvFPaUCvlh-76" value="$$0$$" style="rounded=1;whiteSpace=wrap;html=1;fillColor=#e1d5e7;strokeColor=#9673a6;dashed=1;" parent="1" vertex="1">
          <mxGeometry x="440" y="639" width="80" height="40" as="geometry" />
        </mxCell>
        <mxCell id="NSD28dVi1ABvFPaUCvlh-82" value="$$\color{red}{w_3}$$" style="text;html=1;strokeColor=none;fillColor=none;align=center;verticalAlign=middle;whiteSpace=wrap;rounded=0;" parent="1" vertex="1">
          <mxGeometry x="520" y="180" width="60" height="30" as="geometry" />
        </mxCell>
        <mxCell id="NSD28dVi1ABvFPaUCvlh-83" value="$$\color{red}{w_3}$$" style="text;html=1;strokeColor=none;fillColor=none;align=center;verticalAlign=middle;whiteSpace=wrap;rounded=0;" parent="1" vertex="1">
          <mxGeometry x="520" y="260" width="60" height="30" as="geometry" />
        </mxCell>
        <mxCell id="NSD28dVi1ABvFPaUCvlh-84" value="$$\color{red}{w_3}$$" style="text;html=1;strokeColor=none;fillColor=none;align=center;verticalAlign=middle;whiteSpace=wrap;rounded=0;" parent="1" vertex="1">
          <mxGeometry x="520" y="340" width="60" height="30" as="geometry" />
        </mxCell>
        <mxCell id="NSD28dVi1ABvFPaUCvlh-85" value="$$\color{red}{w_3}$$" style="text;html=1;strokeColor=none;fillColor=none;align=center;verticalAlign=middle;whiteSpace=wrap;rounded=0;" parent="1" vertex="1">
          <mxGeometry x="520" y="420" width="60" height="30" as="geometry" />
        </mxCell>
        <mxCell id="NSD28dVi1ABvFPaUCvlh-86" value="$$\color{red}{w_3}$$" style="text;html=1;strokeColor=none;fillColor=none;align=center;verticalAlign=middle;whiteSpace=wrap;rounded=0;" parent="1" vertex="1">
          <mxGeometry x="520" y="500" width="60" height="30" as="geometry" />
        </mxCell>
        <mxCell id="NSD28dVi1ABvFPaUCvlh-87" value="$$\color{red}{w_3}$$" style="text;html=1;strokeColor=none;fillColor=none;align=center;verticalAlign=middle;whiteSpace=wrap;rounded=0;" parent="1" vertex="1">
          <mxGeometry x="520" y="580" width="60" height="30" as="geometry" />
        </mxCell>
        <mxCell id="NSD28dVi1ABvFPaUCvlh-89" value="$$\color{green}{w_2}$$" style="text;html=1;strokeColor=none;fillColor=none;align=center;verticalAlign=middle;whiteSpace=wrap;rounded=0;" parent="1" vertex="1">
          <mxGeometry x="530" y="235" width="60" height="30" as="geometry" />
        </mxCell>
        <mxCell id="NSD28dVi1ABvFPaUCvlh-90" value="$$\color{green}{w_2}$$" style="text;html=1;strokeColor=none;fillColor=none;align=center;verticalAlign=middle;whiteSpace=wrap;rounded=0;" parent="1" vertex="1">
          <mxGeometry x="530" y="315" width="60" height="30" as="geometry" />
        </mxCell>
        <mxCell id="NSD28dVi1ABvFPaUCvlh-91" value="$$\color{green}{w_2}$$" style="text;html=1;strokeColor=none;fillColor=none;align=center;verticalAlign=middle;whiteSpace=wrap;rounded=0;" parent="1" vertex="1">
          <mxGeometry x="530" y="395" width="60" height="30" as="geometry" />
        </mxCell>
        <mxCell id="NSD28dVi1ABvFPaUCvlh-92" value="$$\color{green}{w_2}$$" style="text;html=1;strokeColor=none;fillColor=none;align=center;verticalAlign=middle;whiteSpace=wrap;rounded=0;" parent="1" vertex="1">
          <mxGeometry x="530" y="475" width="60" height="30" as="geometry" />
        </mxCell>
        <mxCell id="NSD28dVi1ABvFPaUCvlh-93" value="$$\color{green}{w_2}$$" style="text;html=1;strokeColor=none;fillColor=none;align=center;verticalAlign=middle;whiteSpace=wrap;rounded=0;" parent="1" vertex="1">
          <mxGeometry x="530" y="555" width="60" height="30" as="geometry" />
        </mxCell>
        <mxCell id="NSD28dVi1ABvFPaUCvlh-96" value="$$\color{blue}{w_1}$$" style="text;html=1;strokeColor=none;fillColor=none;align=center;verticalAlign=middle;whiteSpace=wrap;rounded=0;" parent="1" vertex="1">
          <mxGeometry x="510" y="289" width="60" height="30" as="geometry" />
        </mxCell>
        <mxCell id="NSD28dVi1ABvFPaUCvlh-97" value="$$\color{blue}{w_1}$$" style="text;html=1;strokeColor=none;fillColor=none;align=center;verticalAlign=middle;whiteSpace=wrap;rounded=0;" parent="1" vertex="1">
          <mxGeometry x="510" y="369" width="60" height="30" as="geometry" />
        </mxCell>
        <mxCell id="NSD28dVi1ABvFPaUCvlh-98" value="$$\color{blue}{w_1}$$" style="text;html=1;strokeColor=none;fillColor=none;align=center;verticalAlign=middle;whiteSpace=wrap;rounded=0;" parent="1" vertex="1">
          <mxGeometry x="510" y="529" width="60" height="30" as="geometry" />
        </mxCell>
        <mxCell id="NSD28dVi1ABvFPaUCvlh-99" value="$$\color{blue}{w_1}$$" style="text;html=1;strokeColor=none;fillColor=none;align=center;verticalAlign=middle;whiteSpace=wrap;rounded=0;" parent="1" vertex="1">
          <mxGeometry x="510" y="609" width="60" height="30" as="geometry" />
        </mxCell>
        <mxCell id="NSD28dVi1ABvFPaUCvlh-101" value="&lt;font style=&quot;font-size: 13px;&quot;&gt;图 (2-a) 填充卷积运算&lt;/font&gt;" style="text;html=1;strokeColor=none;fillColor=none;align=center;verticalAlign=middle;whiteSpace=wrap;rounded=0;" parent="1" vertex="1">
          <mxGeometry x="40" y="690" width="340" height="30" as="geometry" />
        </mxCell>
        <mxCell id="NSD28dVi1ABvFPaUCvlh-102" value="&lt;font style=&quot;font-size: 13px;&quot;&gt;图 (2-b) 填充&lt;/font&gt;卷积运算反向过程" style="text;html=1;strokeColor=none;fillColor=none;align=center;verticalAlign=middle;whiteSpace=wrap;rounded=0;" parent="1" vertex="1">
          <mxGeometry x="440" y="690" width="340" height="30" as="geometry" />
        </mxCell>
        <mxCell id="nnGhAEQGa-DwCt2-Y0oA-1" value="$$\color{blue}{w_1}$$" style="text;html=1;strokeColor=none;fillColor=none;align=center;verticalAlign=middle;whiteSpace=wrap;rounded=0;" parent="1" vertex="1">
          <mxGeometry x="110" y="251" width="60" height="30" as="geometry" />
        </mxCell>
      </root>
    </mxGraphModel>
  </diagram>
  <diagram id="Bjki536Yd1pdw4O3r061" name="步长转置卷积">
    <mxGraphModel dx="1036" dy="615" grid="1" gridSize="10" guides="1" tooltips="1" connect="1" arrows="1" fold="1" page="1" pageScale="1" pageWidth="827" pageHeight="1169" math="1" shadow="0">
      <root>
        <mxCell id="0" />
        <mxCell id="1" parent="0" />
        <mxCell id="-2-6svMrbEB_n0YDEXx4-1" style="rounded=0;orthogonalLoop=1;jettySize=auto;html=1;exitX=1;exitY=0.5;exitDx=0;exitDy=0;entryX=0;entryY=0.5;entryDx=0;entryDy=0;fillColor=#0050ef;strokeColor=#001DBC;strokeWidth=2;" parent="1" source="-2-6svMrbEB_n0YDEXx4-2" target="-2-6svMrbEB_n0YDEXx4-15" edge="1">
          <mxGeometry relative="1" as="geometry" />
        </mxCell>
        <mxCell id="-2-6svMrbEB_n0YDEXx4-2" value="$$x_1$$" style="rounded=1;whiteSpace=wrap;html=1;shadow=0;fillColor=#ffe6cc;strokeColor=#d79b00;" parent="1" vertex="1">
          <mxGeometry x="40" y="240" width="80" height="40" as="geometry" />
        </mxCell>
        <mxCell id="-2-6svMrbEB_n0YDEXx4-3" style="rounded=0;orthogonalLoop=1;jettySize=auto;html=1;exitX=1;exitY=0.5;exitDx=0;exitDy=0;fillColor=#60a917;strokeColor=#2D7600;strokeWidth=2;" parent="1" source="-2-6svMrbEB_n0YDEXx4-5" edge="1">
          <mxGeometry relative="1" as="geometry">
            <mxPoint x="200" y="340" as="targetPoint" />
          </mxGeometry>
        </mxCell>
        <mxCell id="-2-6svMrbEB_n0YDEXx4-4" style="rounded=0;orthogonalLoop=1;jettySize=auto;html=1;exitX=1;exitY=0.5;exitDx=0;exitDy=0;entryX=0;entryY=0.5;entryDx=0;entryDy=0;fillColor=#0050ef;strokeColor=#001DBC;strokeWidth=2;dashed=1;" parent="1" source="-2-6svMrbEB_n0YDEXx4-5" target="-2-6svMrbEB_n0YDEXx4-16" edge="1">
          <mxGeometry relative="1" as="geometry" />
        </mxCell>
        <mxCell id="-2-6svMrbEB_n0YDEXx4-5" value="$$x_2$$" style="rounded=1;whiteSpace=wrap;html=1;shadow=0;fillColor=#ffe6cc;strokeColor=#d79b00;" parent="1" vertex="1">
          <mxGeometry x="40" y="320" width="80" height="40" as="geometry" />
        </mxCell>
        <mxCell id="-2-6svMrbEB_n0YDEXx4-6" style="rounded=0;orthogonalLoop=1;jettySize=auto;html=1;exitX=1;exitY=0.5;exitDx=0;exitDy=0;entryX=0;entryY=0.5;entryDx=0;entryDy=0;strokeColor=#FF0000;strokeWidth=2;" parent="1" source="-2-6svMrbEB_n0YDEXx4-9" target="-2-6svMrbEB_n0YDEXx4-15" edge="1">
          <mxGeometry relative="1" as="geometry" />
        </mxCell>
        <mxCell id="-2-6svMrbEB_n0YDEXx4-7" style="rounded=0;orthogonalLoop=1;jettySize=auto;html=1;exitX=1;exitY=0.5;exitDx=0;exitDy=0;fillColor=#60a917;strokeColor=#2D7600;strokeWidth=2;dashed=1;" parent="1" source="-2-6svMrbEB_n0YDEXx4-9" target="-2-6svMrbEB_n0YDEXx4-16" edge="1">
          <mxGeometry relative="1" as="geometry" />
        </mxCell>
        <mxCell id="-2-6svMrbEB_n0YDEXx4-8" style="rounded=0;orthogonalLoop=1;jettySize=auto;html=1;exitX=1;exitY=0.5;exitDx=0;exitDy=0;entryX=0;entryY=0.5;entryDx=0;entryDy=0;fillColor=#0050ef;strokeColor=#001DBC;strokeWidth=2;" parent="1" source="-2-6svMrbEB_n0YDEXx4-9" target="-2-6svMrbEB_n0YDEXx4-17" edge="1">
          <mxGeometry relative="1" as="geometry" />
        </mxCell>
        <mxCell id="-2-6svMrbEB_n0YDEXx4-9" value="$$x_3$$" style="rounded=1;whiteSpace=wrap;html=1;shadow=0;fillColor=#ffe6cc;strokeColor=#d79b00;" parent="1" vertex="1">
          <mxGeometry x="40" y="400" width="80" height="40" as="geometry" />
        </mxCell>
        <mxCell id="-2-6svMrbEB_n0YDEXx4-10" style="rounded=0;orthogonalLoop=1;jettySize=auto;html=1;exitX=1;exitY=0.5;exitDx=0;exitDy=0;entryX=0;entryY=0.5;entryDx=0;entryDy=0;strokeColor=#FF0000;strokeWidth=2;dashed=1;" parent="1" source="-2-6svMrbEB_n0YDEXx4-12" target="-2-6svMrbEB_n0YDEXx4-16" edge="1">
          <mxGeometry relative="1" as="geometry" />
        </mxCell>
        <mxCell id="-2-6svMrbEB_n0YDEXx4-11" style="rounded=0;orthogonalLoop=1;jettySize=auto;html=1;exitX=1;exitY=0.5;exitDx=0;exitDy=0;entryX=0;entryY=0.5;entryDx=0;entryDy=0;fillColor=#60a917;strokeColor=#2D7600;strokeWidth=2;" parent="1" source="-2-6svMrbEB_n0YDEXx4-12" target="-2-6svMrbEB_n0YDEXx4-17" edge="1">
          <mxGeometry relative="1" as="geometry" />
        </mxCell>
        <mxCell id="7N6ZYgFK__Qs7cdN6edb-3" style="rounded=0;orthogonalLoop=1;jettySize=auto;html=1;exitX=1;exitY=0.5;exitDx=0;exitDy=0;entryX=0;entryY=0.5;entryDx=0;entryDy=0;strokeWidth=2;dashed=1;fillColor=#0050ef;strokeColor=#001DBC;" parent="1" source="-2-6svMrbEB_n0YDEXx4-12" target="7N6ZYgFK__Qs7cdN6edb-1" edge="1">
          <mxGeometry relative="1" as="geometry" />
        </mxCell>
        <mxCell id="-2-6svMrbEB_n0YDEXx4-12" value="$$x_4$$" style="rounded=1;whiteSpace=wrap;html=1;shadow=0;fillColor=#ffe6cc;strokeColor=#d79b00;" parent="1" vertex="1">
          <mxGeometry x="40" y="480" width="80" height="40" as="geometry" />
        </mxCell>
        <mxCell id="-2-6svMrbEB_n0YDEXx4-13" style="rounded=0;orthogonalLoop=1;jettySize=auto;html=1;exitX=1;exitY=0.5;exitDx=0;exitDy=0;entryX=0;entryY=0.5;entryDx=0;entryDy=0;strokeColor=#FF0000;strokeWidth=2;" parent="1" source="-2-6svMrbEB_n0YDEXx4-14" target="-2-6svMrbEB_n0YDEXx4-17" edge="1">
          <mxGeometry relative="1" as="geometry" />
        </mxCell>
        <mxCell id="7N6ZYgFK__Qs7cdN6edb-5" style="rounded=0;orthogonalLoop=1;jettySize=auto;html=1;exitX=1;exitY=0.5;exitDx=0;exitDy=0;entryX=0;entryY=0.5;entryDx=0;entryDy=0;strokeWidth=2;dashed=1;fillColor=#60a917;strokeColor=#2D7600;" parent="1" source="-2-6svMrbEB_n0YDEXx4-14" target="7N6ZYgFK__Qs7cdN6edb-1" edge="1">
          <mxGeometry relative="1" as="geometry" />
        </mxCell>
        <mxCell id="7N6ZYgFK__Qs7cdN6edb-7" style="rounded=0;orthogonalLoop=1;jettySize=auto;html=1;exitX=1;exitY=0.5;exitDx=0;exitDy=0;entryX=0;entryY=0.5;entryDx=0;entryDy=0;strokeWidth=2;fillColor=#0050ef;strokeColor=#001DBC;" parent="1" source="-2-6svMrbEB_n0YDEXx4-14" target="7N6ZYgFK__Qs7cdN6edb-2" edge="1">
          <mxGeometry relative="1" as="geometry" />
        </mxCell>
        <mxCell id="-2-6svMrbEB_n0YDEXx4-14" value="$$x_5$$" style="rounded=1;whiteSpace=wrap;html=1;shadow=0;fillColor=#ffe6cc;strokeColor=#d79b00;" parent="1" vertex="1">
          <mxGeometry x="40" y="560" width="80" height="40" as="geometry" />
        </mxCell>
        <mxCell id="-2-6svMrbEB_n0YDEXx4-15" value="$$o_1 = x_1 w_1 +&amp;nbsp;&lt;br&gt;x_2 w_2+ x_3 w_3&lt;br&gt;$$" style="rounded=1;whiteSpace=wrap;html=1;fillColor=#e1d5e7;strokeColor=#9673a6;" parent="1" vertex="1">
          <mxGeometry x="200" y="320" width="180" height="40" as="geometry" />
        </mxCell>
        <mxCell id="-2-6svMrbEB_n0YDEXx4-16" value="丢弃" style="rounded=1;whiteSpace=wrap;html=1;fillColor=#e1d5e7;strokeColor=#9673a6;" parent="1" vertex="1">
          <mxGeometry x="200" y="400" width="180" height="40" as="geometry" />
        </mxCell>
        <mxCell id="-2-6svMrbEB_n0YDEXx4-17" value="$$o_2 = x_3 w_1 +&amp;nbsp;&lt;br&gt;x_4 w_2 + x_5 w_3&lt;br&gt;$$" style="rounded=1;whiteSpace=wrap;html=1;fillColor=#e1d5e7;strokeColor=#9673a6;" parent="1" vertex="1">
          <mxGeometry x="200" y="480" width="180" height="40" as="geometry" />
        </mxCell>
        <mxCell id="-2-6svMrbEB_n0YDEXx4-18" style="edgeStyle=orthogonalEdgeStyle;rounded=0;orthogonalLoop=1;jettySize=auto;html=1;exitX=1;exitY=0.5;exitDx=0;exitDy=0;entryX=0;entryY=0.5;entryDx=0;entryDy=0;strokeWidth=2;fillColor=#60a917;strokeColor=#2D7600;" parent="1" source="-2-6svMrbEB_n0YDEXx4-21" target="-2-6svMrbEB_n0YDEXx4-31" edge="1">
          <mxGeometry relative="1" as="geometry" />
        </mxCell>
        <mxCell id="-2-6svMrbEB_n0YDEXx4-19" style="rounded=0;orthogonalLoop=1;jettySize=auto;html=1;exitX=1;exitY=0.5;exitDx=0;exitDy=0;entryX=0;entryY=0.5;entryDx=0;entryDy=0;strokeColor=#FF0000;strokeWidth=2;" parent="1" source="-2-6svMrbEB_n0YDEXx4-21" target="-2-6svMrbEB_n0YDEXx4-32" edge="1">
          <mxGeometry relative="1" as="geometry" />
        </mxCell>
        <mxCell id="-2-6svMrbEB_n0YDEXx4-20" style="rounded=0;orthogonalLoop=1;jettySize=auto;html=1;exitX=1;exitY=0.5;exitDx=0;exitDy=0;entryX=0;entryY=0.5;entryDx=0;entryDy=0;fillColor=#0050ef;strokeColor=#001DBC;strokeWidth=2;" parent="1" source="-2-6svMrbEB_n0YDEXx4-21" target="-2-6svMrbEB_n0YDEXx4-30" edge="1">
          <mxGeometry relative="1" as="geometry" />
        </mxCell>
        <mxCell id="-2-6svMrbEB_n0YDEXx4-21" value="$$o_1^{\prime}$$" style="rounded=1;whiteSpace=wrap;html=1;fillColor=#e1d5e7;strokeColor=#9673a6;" parent="1" vertex="1">
          <mxGeometry x="438" y="319" width="80" height="40" as="geometry" />
        </mxCell>
        <mxCell id="-2-6svMrbEB_n0YDEXx4-22" style="rounded=0;orthogonalLoop=1;jettySize=auto;html=1;exitX=1;exitY=0.5;exitDx=0;exitDy=0;entryX=0;entryY=0.5;entryDx=0;entryDy=0;fillColor=#0050ef;strokeColor=#001DBC;strokeWidth=2;dashed=1;" parent="1" source="-2-6svMrbEB_n0YDEXx4-25" target="-2-6svMrbEB_n0YDEXx4-31" edge="1">
          <mxGeometry relative="1" as="geometry" />
        </mxCell>
        <mxCell id="-2-6svMrbEB_n0YDEXx4-23" style="edgeStyle=orthogonalEdgeStyle;rounded=0;orthogonalLoop=1;jettySize=auto;html=1;exitX=1;exitY=0.5;exitDx=0;exitDy=0;entryX=0;entryY=0.5;entryDx=0;entryDy=0;strokeWidth=2;fillColor=#60a917;strokeColor=#2D7600;dashed=1;" parent="1" source="-2-6svMrbEB_n0YDEXx4-25" target="-2-6svMrbEB_n0YDEXx4-32" edge="1">
          <mxGeometry relative="1" as="geometry" />
        </mxCell>
        <mxCell id="-2-6svMrbEB_n0YDEXx4-24" style="rounded=0;orthogonalLoop=1;jettySize=auto;html=1;exitX=1;exitY=0.5;exitDx=0;exitDy=0;entryX=0;entryY=0.5;entryDx=0;entryDy=0;strokeColor=#FF0000;strokeWidth=2;dashed=1;" parent="1" source="-2-6svMrbEB_n0YDEXx4-25" target="-2-6svMrbEB_n0YDEXx4-33" edge="1">
          <mxGeometry relative="1" as="geometry" />
        </mxCell>
        <mxCell id="-2-6svMrbEB_n0YDEXx4-25" value="$$0$$" style="rounded=1;whiteSpace=wrap;html=1;fillColor=#e1d5e7;strokeColor=#9673a6;dashed=1;" parent="1" vertex="1">
          <mxGeometry x="438" y="399" width="80" height="40" as="geometry" />
        </mxCell>
        <mxCell id="-2-6svMrbEB_n0YDEXx4-26" style="rounded=0;orthogonalLoop=1;jettySize=auto;html=1;exitX=1;exitY=0.5;exitDx=0;exitDy=0;entryX=0;entryY=0.5;entryDx=0;entryDy=0;fillColor=#0050ef;strokeColor=#001DBC;strokeWidth=2;" parent="1" source="-2-6svMrbEB_n0YDEXx4-29" target="-2-6svMrbEB_n0YDEXx4-32" edge="1">
          <mxGeometry relative="1" as="geometry" />
        </mxCell>
        <mxCell id="-2-6svMrbEB_n0YDEXx4-27" style="rounded=0;orthogonalLoop=1;jettySize=auto;html=1;exitX=1;exitY=0.5;exitDx=0;exitDy=0;entryX=0;entryY=0.5;entryDx=0;entryDy=0;strokeWidth=2;fillColor=#60a917;strokeColor=#2D7600;" parent="1" source="-2-6svMrbEB_n0YDEXx4-29" target="-2-6svMrbEB_n0YDEXx4-33" edge="1">
          <mxGeometry relative="1" as="geometry" />
        </mxCell>
        <mxCell id="-2-6svMrbEB_n0YDEXx4-28" style="rounded=0;orthogonalLoop=1;jettySize=auto;html=1;exitX=1;exitY=0.5;exitDx=0;exitDy=0;entryX=0;entryY=0.5;entryDx=0;entryDy=0;strokeColor=#FF0000;strokeWidth=2;" parent="1" source="-2-6svMrbEB_n0YDEXx4-29" target="-2-6svMrbEB_n0YDEXx4-34" edge="1">
          <mxGeometry relative="1" as="geometry" />
        </mxCell>
        <mxCell id="-2-6svMrbEB_n0YDEXx4-29" value="$$o_2^{\prime}$$" style="rounded=1;whiteSpace=wrap;html=1;fillColor=#e1d5e7;strokeColor=#9673a6;" parent="1" vertex="1">
          <mxGeometry x="438" y="479" width="80" height="40" as="geometry" />
        </mxCell>
        <mxCell id="-2-6svMrbEB_n0YDEXx4-30" value="$$x^{\prime}&lt;br&gt;_1 = 0 w_3 + 0 w_2 +o_1^{\prime} w_1&lt;br style=&quot;border-color: var(--border-color);&quot;&gt;$$" style="rounded=1;whiteSpace=wrap;html=1;shadow=0;fillColor=#ffe6cc;strokeColor=#d79b00;" parent="1" vertex="1">
          <mxGeometry x="598" y="239" width="180" height="40" as="geometry" />
        </mxCell>
        <mxCell id="-2-6svMrbEB_n0YDEXx4-31" value="$$x^{\prime}_2 = 0 w_3 + o^{\prime}_1 w_2 + 0 w_1$$" style="rounded=1;whiteSpace=wrap;html=1;shadow=0;fillColor=#ffe6cc;strokeColor=#d79b00;" parent="1" vertex="1">
          <mxGeometry x="598" y="319" width="180" height="40" as="geometry" />
        </mxCell>
        <mxCell id="-2-6svMrbEB_n0YDEXx4-32" value="$$&lt;br&gt;x^{\prime}_3 = &lt;br&gt;o^{\prime}_1&amp;nbsp;w_3 + &lt;br&gt;0 w_2 + &lt;br&gt;o^{\prime}_2&amp;nbsp;w_1&lt;br&gt;$$" style="rounded=1;whiteSpace=wrap;html=1;shadow=0;fillColor=#ffe6cc;strokeColor=#d79b00;" parent="1" vertex="1">
          <mxGeometry x="598" y="399" width="180" height="40" as="geometry" />
        </mxCell>
        <mxCell id="-2-6svMrbEB_n0YDEXx4-33" value="$$x^{\prime}_4 = 0&amp;nbsp;w_3 &lt;br&gt;+ o^{\prime}_2&amp;nbsp;w_2 &lt;br&gt;+ 0&amp;nbsp;w_1$$" style="rounded=1;whiteSpace=wrap;html=1;shadow=0;fillColor=#ffe6cc;strokeColor=#d79b00;" parent="1" vertex="1">
          <mxGeometry x="598" y="479" width="180" height="40" as="geometry" />
        </mxCell>
        <mxCell id="-2-6svMrbEB_n0YDEXx4-34" value="$$&lt;br style=&quot;border-color: var(--border-color);&quot;&gt;x^{\prime}_5 =&lt;br style=&quot;border-color: var(--border-color);&quot;&gt;o^{\prime}_2 w_3 +&lt;br style=&quot;border-color: var(--border-color);&quot;&gt;0 w_2 +&lt;br style=&quot;border-color: var(--border-color);&quot;&gt;o^{\prime}_3 w_1&lt;br style=&quot;border-color: var(--border-color);&quot;&gt;$$" style="rounded=1;whiteSpace=wrap;html=1;shadow=0;fillColor=#ffe6cc;strokeColor=#d79b00;" parent="1" vertex="1">
          <mxGeometry x="598" y="559" width="180" height="40" as="geometry" />
        </mxCell>
        <mxCell id="-2-6svMrbEB_n0YDEXx4-35" value="&lt;font style=&quot;font-size: 15px;&quot;&gt;图三: 步长转置卷积示意图&lt;/font&gt;" style="text;html=1;strokeColor=none;fillColor=none;align=center;verticalAlign=middle;whiteSpace=wrap;rounded=0;" parent="1" vertex="1">
          <mxGeometry x="314" y="110" width="200" height="30" as="geometry" />
        </mxCell>
        <mxCell id="-2-6svMrbEB_n0YDEXx4-36" value="$$\color{blue}{w_1}$$" style="text;html=1;strokeColor=none;fillColor=none;align=center;verticalAlign=middle;whiteSpace=wrap;rounded=0;" parent="1" vertex="1">
          <mxGeometry x="110" y="330" width="60" height="30" as="geometry" />
        </mxCell>
        <mxCell id="-2-6svMrbEB_n0YDEXx4-37" value="$$\color{blue}{w_1}$$" style="text;html=1;strokeColor=none;fillColor=none;align=center;verticalAlign=middle;whiteSpace=wrap;rounded=0;" parent="1" vertex="1">
          <mxGeometry x="110" y="410" width="60" height="30" as="geometry" />
        </mxCell>
        <mxCell id="-2-6svMrbEB_n0YDEXx4-41" value="$$\color{red}{w_3}$$" style="text;html=1;strokeColor=none;fillColor=none;align=center;verticalAlign=middle;whiteSpace=wrap;rounded=0;" parent="1" vertex="1">
          <mxGeometry x="100" y="380" width="60" height="30" as="geometry" />
        </mxCell>
        <mxCell id="-2-6svMrbEB_n0YDEXx4-42" value="$$\color{red}{w_3}$$" style="text;html=1;strokeColor=none;fillColor=none;align=center;verticalAlign=middle;whiteSpace=wrap;rounded=0;" parent="1" vertex="1">
          <mxGeometry x="100" y="460" width="60" height="30" as="geometry" />
        </mxCell>
        <mxCell id="-2-6svMrbEB_n0YDEXx4-43" value="$$\color{red}{w_3}$$" style="text;html=1;strokeColor=none;fillColor=none;align=center;verticalAlign=middle;whiteSpace=wrap;rounded=0;" parent="1" vertex="1">
          <mxGeometry x="100" y="540" width="60" height="30" as="geometry" />
        </mxCell>
        <mxCell id="-2-6svMrbEB_n0YDEXx4-44" style="rounded=0;orthogonalLoop=1;jettySize=auto;html=1;exitX=1;exitY=0.5;exitDx=0;exitDy=0;entryX=0;entryY=0.5;entryDx=0;entryDy=0;fillColor=#60a917;strokeColor=#2D7600;strokeWidth=2;dashed=1;" parent="1" source="-2-6svMrbEB_n0YDEXx4-46" target="-2-6svMrbEB_n0YDEXx4-30" edge="1">
          <mxGeometry relative="1" as="geometry" />
        </mxCell>
        <mxCell id="-2-6svMrbEB_n0YDEXx4-45" style="rounded=0;orthogonalLoop=1;jettySize=auto;html=1;exitX=1;exitY=0.5;exitDx=0;exitDy=0;entryX=0;entryY=0.5;entryDx=0;entryDy=0;strokeColor=#FF0000;strokeWidth=2;dashed=1;" parent="1" source="-2-6svMrbEB_n0YDEXx4-46" target="-2-6svMrbEB_n0YDEXx4-31" edge="1">
          <mxGeometry relative="1" as="geometry" />
        </mxCell>
        <mxCell id="-2-6svMrbEB_n0YDEXx4-46" value="$$0$$" style="rounded=1;whiteSpace=wrap;html=1;fillColor=#e1d5e7;strokeColor=#9673a6;dashed=1;" parent="1" vertex="1">
          <mxGeometry x="438" y="239" width="80" height="40" as="geometry" />
        </mxCell>
        <mxCell id="-2-6svMrbEB_n0YDEXx4-47" style="rounded=0;orthogonalLoop=1;jettySize=auto;html=1;exitX=1;exitY=0.5;exitDx=0;exitDy=0;entryX=0;entryY=0.5;entryDx=0;entryDy=0;fillColor=#0050ef;strokeColor=#001DBC;strokeWidth=2;dashed=1;" parent="1" source="-2-6svMrbEB_n0YDEXx4-49" target="-2-6svMrbEB_n0YDEXx4-33" edge="1">
          <mxGeometry relative="1" as="geometry" />
        </mxCell>
        <mxCell id="-2-6svMrbEB_n0YDEXx4-48" style="edgeStyle=orthogonalEdgeStyle;rounded=0;orthogonalLoop=1;jettySize=auto;html=1;exitX=1;exitY=0.5;exitDx=0;exitDy=0;entryX=0;entryY=0.5;entryDx=0;entryDy=0;fillColor=#60a917;strokeColor=#2D7600;strokeWidth=2;dashed=1;" parent="1" source="-2-6svMrbEB_n0YDEXx4-49" target="-2-6svMrbEB_n0YDEXx4-34" edge="1">
          <mxGeometry relative="1" as="geometry" />
        </mxCell>
        <mxCell id="3jas37c9RGcNiRQFZtfy-2" style="rounded=0;orthogonalLoop=1;jettySize=auto;html=1;exitX=1;exitY=0.5;exitDx=0;exitDy=0;entryX=0;entryY=0.5;entryDx=0;entryDy=0;strokeWidth=2;strokeColor=#FF0000;dashed=1;" parent="1" source="-2-6svMrbEB_n0YDEXx4-49" target="rLYTM7lwZfLSVaU4BKdp-1" edge="1">
          <mxGeometry relative="1" as="geometry" />
        </mxCell>
        <mxCell id="-2-6svMrbEB_n0YDEXx4-49" value="$$0$$" style="rounded=1;whiteSpace=wrap;html=1;fillColor=#e1d5e7;strokeColor=#9673a6;dashed=1;" parent="1" vertex="1">
          <mxGeometry x="438" y="559" width="80" height="40" as="geometry" />
        </mxCell>
        <mxCell id="-2-6svMrbEB_n0YDEXx4-50" style="rounded=0;orthogonalLoop=1;jettySize=auto;html=1;exitX=1;exitY=0.5;exitDx=0;exitDy=0;entryX=0;entryY=0.5;entryDx=0;entryDy=0;strokeColor=#FF0000;strokeWidth=2;dashed=1;" parent="1" source="-2-6svMrbEB_n0YDEXx4-51" target="-2-6svMrbEB_n0YDEXx4-30" edge="1">
          <mxGeometry relative="1" as="geometry" />
        </mxCell>
        <mxCell id="-2-6svMrbEB_n0YDEXx4-51" value="$$0$$" style="rounded=1;whiteSpace=wrap;html=1;fillColor=#e1d5e7;strokeColor=#9673a6;dashed=1;" parent="1" vertex="1">
          <mxGeometry x="438" y="160" width="80" height="40" as="geometry" />
        </mxCell>
        <mxCell id="-2-6svMrbEB_n0YDEXx4-52" style="rounded=0;orthogonalLoop=1;jettySize=auto;html=1;exitX=1;exitY=0.5;exitDx=0;exitDy=0;entryX=0;entryY=0.5;entryDx=0;entryDy=0;fillColor=#0050ef;strokeColor=#001DBC;strokeWidth=2;" parent="1" source="-2-6svMrbEB_n0YDEXx4-53" target="-2-6svMrbEB_n0YDEXx4-34" edge="1">
          <mxGeometry relative="1" as="geometry" />
        </mxCell>
        <mxCell id="3jas37c9RGcNiRQFZtfy-4" style="rounded=0;orthogonalLoop=1;jettySize=auto;html=1;exitX=1;exitY=0.5;exitDx=0;exitDy=0;entryX=0;entryY=0.5;entryDx=0;entryDy=0;strokeWidth=2;fillColor=#60a917;strokeColor=#2D7600;" parent="1" source="-2-6svMrbEB_n0YDEXx4-53" target="rLYTM7lwZfLSVaU4BKdp-1" edge="1">
          <mxGeometry relative="1" as="geometry" />
        </mxCell>
        <mxCell id="3jas37c9RGcNiRQFZtfy-6" style="rounded=0;orthogonalLoop=1;jettySize=auto;html=1;exitX=1;exitY=0.5;exitDx=0;exitDy=0;entryX=0;entryY=0.5;entryDx=0;entryDy=0;strokeWidth=2;strokeColor=#FF0000;" parent="1" source="-2-6svMrbEB_n0YDEXx4-53" target="rLYTM7lwZfLSVaU4BKdp-2" edge="1">
          <mxGeometry relative="1" as="geometry" />
        </mxCell>
        <mxCell id="-2-6svMrbEB_n0YDEXx4-53" value="$$o^{\prime}_3$$" style="rounded=1;whiteSpace=wrap;html=1;fillColor=#e1d5e7;strokeColor=#9673a6;" parent="1" vertex="1">
          <mxGeometry x="438" y="639" width="80" height="40" as="geometry" />
        </mxCell>
        <mxCell id="-2-6svMrbEB_n0YDEXx4-54" value="$$\color{red}{w_3}$$" style="text;html=1;strokeColor=none;fillColor=none;align=center;verticalAlign=middle;whiteSpace=wrap;rounded=0;" parent="1" vertex="1">
          <mxGeometry x="518" y="180" width="60" height="30" as="geometry" />
        </mxCell>
        <mxCell id="-2-6svMrbEB_n0YDEXx4-55" value="$$\color{red}{w_3}$$" style="text;html=1;strokeColor=none;fillColor=none;align=center;verticalAlign=middle;whiteSpace=wrap;rounded=0;" parent="1" vertex="1">
          <mxGeometry x="518" y="260" width="60" height="30" as="geometry" />
        </mxCell>
        <mxCell id="-2-6svMrbEB_n0YDEXx4-56" value="$$\color{red}{w_3}$$" style="text;html=1;strokeColor=none;fillColor=none;align=center;verticalAlign=middle;whiteSpace=wrap;rounded=0;" parent="1" vertex="1">
          <mxGeometry x="518" y="340" width="60" height="30" as="geometry" />
        </mxCell>
        <mxCell id="-2-6svMrbEB_n0YDEXx4-57" value="$$\color{red}{w_3}$$" style="text;html=1;strokeColor=none;fillColor=none;align=center;verticalAlign=middle;whiteSpace=wrap;rounded=0;" parent="1" vertex="1">
          <mxGeometry x="518" y="420" width="60" height="30" as="geometry" />
        </mxCell>
        <mxCell id="-2-6svMrbEB_n0YDEXx4-58" value="$$\color{red}{w_3}$$" style="text;html=1;strokeColor=none;fillColor=none;align=center;verticalAlign=middle;whiteSpace=wrap;rounded=0;" parent="1" vertex="1">
          <mxGeometry x="518" y="500" width="60" height="30" as="geometry" />
        </mxCell>
        <mxCell id="-2-6svMrbEB_n0YDEXx4-60" value="$$\color{green}{w_2}$$" style="text;html=1;strokeColor=none;fillColor=none;align=center;verticalAlign=middle;whiteSpace=wrap;rounded=0;" parent="1" vertex="1">
          <mxGeometry x="528" y="235" width="60" height="30" as="geometry" />
        </mxCell>
        <mxCell id="-2-6svMrbEB_n0YDEXx4-61" value="$$\color{green}{w_2}$$" style="text;html=1;strokeColor=none;fillColor=none;align=center;verticalAlign=middle;whiteSpace=wrap;rounded=0;" parent="1" vertex="1">
          <mxGeometry x="528" y="315" width="60" height="30" as="geometry" />
        </mxCell>
        <mxCell id="-2-6svMrbEB_n0YDEXx4-62" value="$$\color{green}{w_2}$$" style="text;html=1;strokeColor=none;fillColor=none;align=center;verticalAlign=middle;whiteSpace=wrap;rounded=0;" parent="1" vertex="1">
          <mxGeometry x="528" y="395" width="60" height="30" as="geometry" />
        </mxCell>
        <mxCell id="-2-6svMrbEB_n0YDEXx4-63" value="$$\color{green}{w_2}$$" style="text;html=1;strokeColor=none;fillColor=none;align=center;verticalAlign=middle;whiteSpace=wrap;rounded=0;" parent="1" vertex="1">
          <mxGeometry x="528" y="475" width="60" height="30" as="geometry" />
        </mxCell>
        <mxCell id="-2-6svMrbEB_n0YDEXx4-64" value="$$\color{green}{w_2}$$" style="text;html=1;strokeColor=none;fillColor=none;align=center;verticalAlign=middle;whiteSpace=wrap;rounded=0;" parent="1" vertex="1">
          <mxGeometry x="528" y="555" width="60" height="30" as="geometry" />
        </mxCell>
        <mxCell id="-2-6svMrbEB_n0YDEXx4-65" value="$$\color{blue}{w_1}$$" style="text;html=1;strokeColor=none;fillColor=none;align=center;verticalAlign=middle;whiteSpace=wrap;rounded=0;" parent="1" vertex="1">
          <mxGeometry x="508" y="289" width="60" height="30" as="geometry" />
        </mxCell>
        <mxCell id="-2-6svMrbEB_n0YDEXx4-66" value="$$\color{blue}{w_1}$$" style="text;html=1;strokeColor=none;fillColor=none;align=center;verticalAlign=middle;whiteSpace=wrap;rounded=0;" parent="1" vertex="1">
          <mxGeometry x="508" y="369" width="60" height="30" as="geometry" />
        </mxCell>
        <mxCell id="-2-6svMrbEB_n0YDEXx4-67" value="$$\color{blue}{w_1}$$" style="text;html=1;strokeColor=none;fillColor=none;align=center;verticalAlign=middle;whiteSpace=wrap;rounded=0;" parent="1" vertex="1">
          <mxGeometry x="508" y="529" width="60" height="30" as="geometry" />
        </mxCell>
        <mxCell id="-2-6svMrbEB_n0YDEXx4-68" value="$$\color{blue}{w_1}$$" style="text;html=1;strokeColor=none;fillColor=none;align=center;verticalAlign=middle;whiteSpace=wrap;rounded=0;" parent="1" vertex="1">
          <mxGeometry x="508" y="609" width="60" height="30" as="geometry" />
        </mxCell>
        <mxCell id="-2-6svMrbEB_n0YDEXx4-69" value="&lt;font style=&quot;font-size: 13px;&quot;&gt;图 (3-a) 步长卷积运算&lt;/font&gt;" style="text;html=1;strokeColor=none;fillColor=none;align=center;verticalAlign=middle;whiteSpace=wrap;rounded=0;" parent="1" vertex="1">
          <mxGeometry x="39" y="850" width="340" height="30" as="geometry" />
        </mxCell>
        <mxCell id="-2-6svMrbEB_n0YDEXx4-70" value="&lt;font style=&quot;font-size: 13px;&quot;&gt;图 (3-b) 步长卷积运算反向过程&lt;/font&gt;" style="text;html=1;strokeColor=none;fillColor=none;align=center;verticalAlign=middle;whiteSpace=wrap;rounded=0;" parent="1" vertex="1">
          <mxGeometry x="439" y="850" width="340" height="30" as="geometry" />
        </mxCell>
        <mxCell id="-2-6svMrbEB_n0YDEXx4-71" value="$$\color{blue}{w_1}$$" style="text;html=1;strokeColor=none;fillColor=none;align=center;verticalAlign=middle;whiteSpace=wrap;rounded=0;" parent="1" vertex="1">
          <mxGeometry x="110" y="251" width="60" height="30" as="geometry" />
        </mxCell>
        <mxCell id="7N6ZYgFK__Qs7cdN6edb-6" style="rounded=0;orthogonalLoop=1;jettySize=auto;html=1;exitX=1;exitY=0.5;exitDx=0;exitDy=0;entryX=0;entryY=0.5;entryDx=0;entryDy=0;strokeWidth=2;dashed=1;strokeColor=#FF0000;" parent="1" source="QvFPBwItCjLMzxj8DgTN-1" target="7N6ZYgFK__Qs7cdN6edb-1" edge="1">
          <mxGeometry relative="1" as="geometry" />
        </mxCell>
        <mxCell id="7N6ZYgFK__Qs7cdN6edb-9" style="rounded=0;orthogonalLoop=1;jettySize=auto;html=1;exitX=1;exitY=0.5;exitDx=0;exitDy=0;entryX=0;entryY=0.5;entryDx=0;entryDy=0;strokeWidth=2;fillColor=#60a917;strokeColor=#2D7600;" parent="1" source="QvFPBwItCjLMzxj8DgTN-1" target="7N6ZYgFK__Qs7cdN6edb-2" edge="1">
          <mxGeometry relative="1" as="geometry" />
        </mxCell>
        <mxCell id="QvFPBwItCjLMzxj8DgTN-1" value="$$x_6$$" style="rounded=1;whiteSpace=wrap;html=1;shadow=0;fillColor=#ffe6cc;strokeColor=#d79b00;" parent="1" vertex="1">
          <mxGeometry x="40" y="639" width="80" height="40" as="geometry" />
        </mxCell>
        <mxCell id="7N6ZYgFK__Qs7cdN6edb-11" style="rounded=0;orthogonalLoop=1;jettySize=auto;html=1;exitX=1;exitY=0.5;exitDx=0;exitDy=0;entryX=0;entryY=0.5;entryDx=0;entryDy=0;strokeWidth=2;strokeColor=#FF0000;" parent="1" source="QvFPBwItCjLMzxj8DgTN-2" target="7N6ZYgFK__Qs7cdN6edb-2" edge="1">
          <mxGeometry relative="1" as="geometry" />
        </mxCell>
        <mxCell id="QvFPBwItCjLMzxj8DgTN-2" value="$$x_7$$" style="rounded=1;whiteSpace=wrap;html=1;shadow=0;fillColor=#ffe6cc;strokeColor=#d79b00;" parent="1" vertex="1">
          <mxGeometry x="40" y="720" width="80" height="40" as="geometry" />
        </mxCell>
        <mxCell id="7N6ZYgFK__Qs7cdN6edb-1" value="丢弃" style="rounded=1;whiteSpace=wrap;html=1;fillColor=#e1d5e7;strokeColor=#9673a6;" parent="1" vertex="1">
          <mxGeometry x="200" y="560" width="180" height="40" as="geometry" />
        </mxCell>
        <mxCell id="7N6ZYgFK__Qs7cdN6edb-2" value="$$o_3 = x_5 w_1 + x_6 w_2 + x_7 w_3$$" style="rounded=1;whiteSpace=wrap;html=1;fillColor=#e1d5e7;strokeColor=#9673a6;" parent="1" vertex="1">
          <mxGeometry x="200" y="639" width="180" height="40" as="geometry" />
        </mxCell>
        <mxCell id="7N6ZYgFK__Qs7cdN6edb-12" value="$$\color{blue}{w_1}$$" style="text;html=1;strokeColor=none;fillColor=none;align=center;verticalAlign=middle;whiteSpace=wrap;rounded=0;" parent="1" vertex="1">
          <mxGeometry x="110" y="490" width="60" height="30" as="geometry" />
        </mxCell>
        <mxCell id="7N6ZYgFK__Qs7cdN6edb-13" value="$$\color{blue}{w_1}$$" style="text;html=1;strokeColor=none;fillColor=none;align=center;verticalAlign=middle;whiteSpace=wrap;rounded=0;" parent="1" vertex="1">
          <mxGeometry x="110" y="572" width="60" height="30" as="geometry" />
        </mxCell>
        <mxCell id="7N6ZYgFK__Qs7cdN6edb-14" value="$$\color{red}{w_3}$$" style="text;html=1;strokeColor=none;fillColor=none;align=center;verticalAlign=middle;whiteSpace=wrap;rounded=0;" parent="1" vertex="1">
          <mxGeometry x="100" y="620" width="60" height="30" as="geometry" />
        </mxCell>
        <mxCell id="7N6ZYgFK__Qs7cdN6edb-15" value="$$\color{red}{w_3}$$" style="text;html=1;strokeColor=none;fillColor=none;align=center;verticalAlign=middle;whiteSpace=wrap;rounded=0;" parent="1" vertex="1">
          <mxGeometry x="100" y="700" width="60" height="30" as="geometry" />
        </mxCell>
        <mxCell id="7N6ZYgFK__Qs7cdN6edb-16" value="$$\color{green}{w_2}$$" style="text;html=1;strokeColor=none;fillColor=none;align=center;verticalAlign=middle;whiteSpace=wrap;rounded=0;" parent="1" vertex="1">
          <mxGeometry x="130" y="315" width="60" height="30" as="geometry" />
        </mxCell>
        <mxCell id="7N6ZYgFK__Qs7cdN6edb-18" value="$$\color{green}{w_2}$$" style="text;html=1;strokeColor=none;fillColor=none;align=center;verticalAlign=middle;whiteSpace=wrap;rounded=0;" parent="1" vertex="1">
          <mxGeometry x="130" y="395" width="60" height="30" as="geometry" />
        </mxCell>
        <mxCell id="7N6ZYgFK__Qs7cdN6edb-19" value="$$\color{green}{w_2}$$" style="text;html=1;strokeColor=none;fillColor=none;align=center;verticalAlign=middle;whiteSpace=wrap;rounded=0;" parent="1" vertex="1">
          <mxGeometry x="130" y="475" width="60" height="30" as="geometry" />
        </mxCell>
        <mxCell id="7N6ZYgFK__Qs7cdN6edb-20" value="$$\color{green}{w_2}$$" style="text;html=1;strokeColor=none;fillColor=none;align=center;verticalAlign=middle;whiteSpace=wrap;rounded=0;" parent="1" vertex="1">
          <mxGeometry x="130" y="555" width="60" height="30" as="geometry" />
        </mxCell>
        <mxCell id="7N6ZYgFK__Qs7cdN6edb-21" value="$$\color{green}{w_2}$$" style="text;html=1;strokeColor=none;fillColor=none;align=center;verticalAlign=middle;whiteSpace=wrap;rounded=0;" parent="1" vertex="1">
          <mxGeometry x="130" y="636" width="60" height="30" as="geometry" />
        </mxCell>
        <mxCell id="3jas37c9RGcNiRQFZtfy-5" style="rounded=0;orthogonalLoop=1;jettySize=auto;html=1;exitX=1;exitY=0.5;exitDx=0;exitDy=0;entryX=0;entryY=0.5;entryDx=0;entryDy=0;fillColor=#0050ef;strokeColor=#001DBC;strokeWidth=2;dashed=1;" parent="1" source="7N6ZYgFK__Qs7cdN6edb-22" target="rLYTM7lwZfLSVaU4BKdp-1" edge="1">
          <mxGeometry relative="1" as="geometry" />
        </mxCell>
        <mxCell id="3jas37c9RGcNiRQFZtfy-7" style="rounded=0;orthogonalLoop=1;jettySize=auto;html=1;exitX=1;exitY=0.5;exitDx=0;exitDy=0;entryX=0;entryY=0.5;entryDx=0;entryDy=0;strokeWidth=2;fillColor=#60a917;strokeColor=#2D7600;dashed=1;" parent="1" source="7N6ZYgFK__Qs7cdN6edb-22" target="rLYTM7lwZfLSVaU4BKdp-2" edge="1">
          <mxGeometry relative="1" as="geometry" />
        </mxCell>
        <mxCell id="7N6ZYgFK__Qs7cdN6edb-22" value="$$0$$" style="rounded=1;whiteSpace=wrap;html=1;fillColor=#e1d5e7;strokeColor=#9673a6;dashed=1;" parent="1" vertex="1">
          <mxGeometry x="438" y="720" width="80" height="40" as="geometry" />
        </mxCell>
        <mxCell id="3jas37c9RGcNiRQFZtfy-8" style="rounded=0;orthogonalLoop=1;jettySize=auto;html=1;exitX=1;exitY=0.5;exitDx=0;exitDy=0;entryX=0;entryY=0.5;entryDx=0;entryDy=0;fillColor=#0050ef;strokeColor=#001DBC;strokeWidth=2;dashed=1;" parent="1" source="7N6ZYgFK__Qs7cdN6edb-23" target="rLYTM7lwZfLSVaU4BKdp-2" edge="1">
          <mxGeometry relative="1" as="geometry" />
        </mxCell>
        <mxCell id="7N6ZYgFK__Qs7cdN6edb-23" value="$$0$$" style="rounded=1;whiteSpace=wrap;html=1;fillColor=#e1d5e7;strokeColor=#9673a6;dashed=1;" parent="1" vertex="1">
          <mxGeometry x="438" y="800" width="80" height="40" as="geometry" />
        </mxCell>
        <mxCell id="rLYTM7lwZfLSVaU4BKdp-1" value="$$x^{\prime}_6 = 0 w_3 + o^{\prime}_3 w_2 + 0 w_1$$" style="rounded=1;whiteSpace=wrap;html=1;shadow=0;fillColor=#ffe6cc;strokeColor=#d79b00;" parent="1" vertex="1">
          <mxGeometry x="598" y="639" width="180" height="40" as="geometry" />
        </mxCell>
        <mxCell id="rLYTM7lwZfLSVaU4BKdp-2" value="$$x^{\prime}_7 = o^{\prime}_3 w_3 + 0 w_2 + 0 w_1$$" style="rounded=1;whiteSpace=wrap;html=1;shadow=0;fillColor=#ffe6cc;strokeColor=#d79b00;" parent="1" vertex="1">
          <mxGeometry x="598" y="720" width="180" height="40" as="geometry" />
        </mxCell>
        <mxCell id="12D5qolqlFI6ySRVaFb2-1" value="$$\color{blue}{w_1}$$" style="text;html=1;strokeColor=none;fillColor=none;align=center;verticalAlign=middle;whiteSpace=wrap;rounded=0;" parent="1" vertex="1">
          <mxGeometry x="508" y="449" width="60" height="30" as="geometry" />
        </mxCell>
        <mxCell id="12D5qolqlFI6ySRVaFb2-2" value="$$\color{red}{w_3}$$" style="text;html=1;strokeColor=none;fillColor=none;align=center;verticalAlign=middle;whiteSpace=wrap;rounded=0;" parent="1" vertex="1">
          <mxGeometry x="518" y="662" width="60" height="30" as="geometry" />
        </mxCell>
        <mxCell id="12D5qolqlFI6ySRVaFb2-3" value="$$\color{green}{w_2}$$" style="text;html=1;strokeColor=none;fillColor=none;align=center;verticalAlign=middle;whiteSpace=wrap;rounded=0;" parent="1" vertex="1">
          <mxGeometry x="528" y="717" width="60" height="30" as="geometry" />
        </mxCell>
        <mxCell id="12D5qolqlFI6ySRVaFb2-4" value="$$\color{blue}{w_1}$$" style="text;html=1;strokeColor=none;fillColor=none;align=center;verticalAlign=middle;whiteSpace=wrap;rounded=0;" parent="1" vertex="1">
          <mxGeometry x="508" y="771" width="60" height="30" as="geometry" />
        </mxCell>
        <mxCell id="12D5qolqlFI6ySRVaFb2-5" value="$$\color{red}{w_3}$$" style="text;html=1;strokeColor=none;fillColor=none;align=center;verticalAlign=middle;whiteSpace=wrap;rounded=0;" parent="1" vertex="1">
          <mxGeometry x="518" y="581" width="60" height="30" as="geometry" />
        </mxCell>
        <mxCell id="12D5qolqlFI6ySRVaFb2-6" value="$$\color{green}{w_2}$$" style="text;html=1;strokeColor=none;fillColor=none;align=center;verticalAlign=middle;whiteSpace=wrap;rounded=0;" parent="1" vertex="1">
          <mxGeometry x="528" y="636" width="60" height="30" as="geometry" />
        </mxCell>
        <mxCell id="12D5qolqlFI6ySRVaFb2-7" value="$$\color{blue}{w_1}$$" style="text;html=1;strokeColor=none;fillColor=none;align=center;verticalAlign=middle;whiteSpace=wrap;rounded=0;" parent="1" vertex="1">
          <mxGeometry x="508" y="690" width="60" height="30" as="geometry" />
        </mxCell>
      </root>
    </mxGraphModel>
  </diagram>
  <diagram id="QpAPRYfuzZGJ2nAoXvTN" name="膨胀转置卷积">
    <mxGraphModel dx="1036" dy="615" grid="1" gridSize="10" guides="1" tooltips="1" connect="1" arrows="1" fold="1" page="1" pageScale="1" pageWidth="827" pageHeight="1169" math="1" shadow="0">
      <root>
        <mxCell id="0" />
        <mxCell id="1" parent="0" />
        <mxCell id="AI9wzrMsEUOPAEiOR618-104" style="rounded=0;orthogonalLoop=1;jettySize=auto;html=1;exitX=1;exitY=0.5;exitDx=0;exitDy=0;entryX=0;entryY=0.5;entryDx=0;entryDy=0;fillColor=#0050ef;strokeColor=#001DBC;strokeWidth=2;" parent="1" source="AI9wzrMsEUOPAEiOR618-2" target="AI9wzrMsEUOPAEiOR618-18" edge="1">
          <mxGeometry relative="1" as="geometry" />
        </mxCell>
        <mxCell id="AI9wzrMsEUOPAEiOR618-2" value="$$x_1$$" style="rounded=1;whiteSpace=wrap;html=1;shadow=0;fillColor=#ffe6cc;strokeColor=#d79b00;" parent="1" vertex="1">
          <mxGeometry x="40" y="240" width="80" height="40" as="geometry" />
        </mxCell>
        <mxCell id="AI9wzrMsEUOPAEiOR618-107" style="rounded=0;orthogonalLoop=1;jettySize=auto;html=1;exitX=1;exitY=0.5;exitDx=0;exitDy=0;entryX=0;entryY=0.5;entryDx=0;entryDy=0;fillColor=#0050ef;strokeColor=#001DBC;strokeWidth=2;" parent="1" source="AI9wzrMsEUOPAEiOR618-5" target="AI9wzrMsEUOPAEiOR618-20" edge="1">
          <mxGeometry relative="1" as="geometry" />
        </mxCell>
        <mxCell id="AI9wzrMsEUOPAEiOR618-114" style="rounded=0;orthogonalLoop=1;jettySize=auto;html=1;exitX=1;exitY=0.5;exitDx=0;exitDy=0;entryX=0;entryY=0.5;entryDx=0;entryDy=0;dashed=1;" parent="1" source="AI9wzrMsEUOPAEiOR618-5" target="AI9wzrMsEUOPAEiOR618-18" edge="1">
          <mxGeometry relative="1" as="geometry" />
        </mxCell>
        <mxCell id="AI9wzrMsEUOPAEiOR618-5" value="$$x_2$$" style="rounded=1;whiteSpace=wrap;html=1;shadow=0;fillColor=#ffe6cc;strokeColor=#d79b00;" parent="1" vertex="1">
          <mxGeometry x="40" y="320" width="80" height="40" as="geometry" />
        </mxCell>
        <mxCell id="AI9wzrMsEUOPAEiOR618-105" style="rounded=0;orthogonalLoop=1;jettySize=auto;html=1;exitX=1;exitY=0.5;exitDx=0;exitDy=0;entryX=0;entryY=0.5;entryDx=0;entryDy=0;fillColor=#60a917;strokeColor=#2D7600;strokeWidth=2;" parent="1" source="AI9wzrMsEUOPAEiOR618-9" target="AI9wzrMsEUOPAEiOR618-18" edge="1">
          <mxGeometry relative="1" as="geometry" />
        </mxCell>
        <mxCell id="AI9wzrMsEUOPAEiOR618-111" style="rounded=0;orthogonalLoop=1;jettySize=auto;html=1;exitX=1;exitY=0.5;exitDx=0;exitDy=0;entryX=0;entryY=0.5;entryDx=0;entryDy=0;fillColor=#0050ef;strokeColor=#001DBC;strokeWidth=2;" parent="1" source="AI9wzrMsEUOPAEiOR618-9" target="AI9wzrMsEUOPAEiOR618-80" edge="1">
          <mxGeometry relative="1" as="geometry" />
        </mxCell>
        <mxCell id="o7moGbQMxYeGnO_uJNgM-1" style="rounded=0;orthogonalLoop=1;jettySize=auto;html=1;exitX=1;exitY=0.5;exitDx=0;exitDy=0;entryX=0;entryY=0.5;entryDx=0;entryDy=0;dashed=1;" parent="1" source="AI9wzrMsEUOPAEiOR618-9" target="AI9wzrMsEUOPAEiOR618-20" edge="1">
          <mxGeometry relative="1" as="geometry" />
        </mxCell>
        <mxCell id="AI9wzrMsEUOPAEiOR618-9" value="$$x_3$$" style="rounded=1;whiteSpace=wrap;html=1;shadow=0;fillColor=#ffe6cc;strokeColor=#d79b00;" parent="1" vertex="1">
          <mxGeometry x="40" y="400" width="80" height="40" as="geometry" />
        </mxCell>
        <mxCell id="AI9wzrMsEUOPAEiOR618-108" style="rounded=0;orthogonalLoop=1;jettySize=auto;html=1;exitX=1;exitY=0.5;exitDx=0;exitDy=0;entryX=0;entryY=0.5;entryDx=0;entryDy=0;fillColor=#60a917;strokeColor=#2D7600;strokeWidth=2;" parent="1" source="AI9wzrMsEUOPAEiOR618-13" target="AI9wzrMsEUOPAEiOR618-20" edge="1">
          <mxGeometry relative="1" as="geometry" />
        </mxCell>
        <mxCell id="AI9wzrMsEUOPAEiOR618-116" style="rounded=0;orthogonalLoop=1;jettySize=auto;html=1;exitX=1;exitY=0.5;exitDx=0;exitDy=0;entryX=0;entryY=0.5;entryDx=0;entryDy=0;dashed=1;" parent="1" source="AI9wzrMsEUOPAEiOR618-13" target="AI9wzrMsEUOPAEiOR618-18" edge="1">
          <mxGeometry relative="1" as="geometry" />
        </mxCell>
        <mxCell id="o7moGbQMxYeGnO_uJNgM-3" style="rounded=0;orthogonalLoop=1;jettySize=auto;html=1;exitX=1;exitY=0.5;exitDx=0;exitDy=0;entryX=0;entryY=0.5;entryDx=0;entryDy=0;dashed=1;" parent="1" source="AI9wzrMsEUOPAEiOR618-13" target="AI9wzrMsEUOPAEiOR618-80" edge="1">
          <mxGeometry relative="1" as="geometry" />
        </mxCell>
        <mxCell id="AI9wzrMsEUOPAEiOR618-13" value="$$x_4$$" style="rounded=1;whiteSpace=wrap;html=1;shadow=0;fillColor=#ffe6cc;strokeColor=#d79b00;" parent="1" vertex="1">
          <mxGeometry x="40" y="480" width="80" height="40" as="geometry" />
        </mxCell>
        <mxCell id="AI9wzrMsEUOPAEiOR618-106" style="rounded=0;orthogonalLoop=1;jettySize=auto;html=1;exitX=1;exitY=0.5;exitDx=0;exitDy=0;entryX=0;entryY=0.5;entryDx=0;entryDy=0;strokeColor=#FF0000;strokeWidth=2;" parent="1" source="AI9wzrMsEUOPAEiOR618-17" target="AI9wzrMsEUOPAEiOR618-18" edge="1">
          <mxGeometry relative="1" as="geometry" />
        </mxCell>
        <mxCell id="AI9wzrMsEUOPAEiOR618-112" style="rounded=0;orthogonalLoop=1;jettySize=auto;html=1;exitX=1;exitY=0.5;exitDx=0;exitDy=0;entryX=0;entryY=0.5;entryDx=0;entryDy=0;fillColor=#60a917;strokeColor=#2D7600;strokeWidth=2;" parent="1" source="AI9wzrMsEUOPAEiOR618-17" target="AI9wzrMsEUOPAEiOR618-80" edge="1">
          <mxGeometry relative="1" as="geometry" />
        </mxCell>
        <mxCell id="o7moGbQMxYeGnO_uJNgM-2" style="rounded=0;orthogonalLoop=1;jettySize=auto;html=1;exitX=1;exitY=0.5;exitDx=0;exitDy=0;entryX=0;entryY=0.5;entryDx=0;entryDy=0;dashed=1;" parent="1" source="AI9wzrMsEUOPAEiOR618-17" target="AI9wzrMsEUOPAEiOR618-20" edge="1">
          <mxGeometry relative="1" as="geometry" />
        </mxCell>
        <mxCell id="AI9wzrMsEUOPAEiOR618-17" value="$$x_5$$" style="rounded=1;whiteSpace=wrap;html=1;shadow=0;fillColor=#ffe6cc;strokeColor=#d79b00;" parent="1" vertex="1">
          <mxGeometry x="40" y="560" width="80" height="40" as="geometry" />
        </mxCell>
        <mxCell id="AI9wzrMsEUOPAEiOR618-18" value="$$\begin{align*}&lt;br&gt;o_1 &amp;amp;= x_1 \cdot w_1 +&amp;nbsp;x_2 \cdot 0 \\&lt;br&gt;&amp;amp;+ x_3\cdot&amp;nbsp;w_2 + x_4\cdot 0 + x_5\cdot w_3 \end{align*}&lt;br&gt;$$" style="rounded=1;whiteSpace=wrap;html=1;fillColor=#e1d5e7;strokeColor=#9673a6;" parent="1" vertex="1">
          <mxGeometry x="200" y="400" width="200" height="40" as="geometry" />
        </mxCell>
        <mxCell id="AI9wzrMsEUOPAEiOR618-20" value="$$\begin{align*}&lt;br style=&quot;border-color: var(--border-color);&quot;&gt;o_2 &amp;amp;= x_2 \cdot w_1 +&amp;nbsp;x_3 \cdot 0\\&lt;br style=&quot;border-color: var(--border-color);&quot;&gt;&amp;amp;+ x_4\cdot&amp;nbsp;w_2 + x_5\cdot 0 + x_6\cdot w_3 \end{align*}&lt;br style=&quot;border-color: var(--border-color);&quot;&gt;$$" style="rounded=1;whiteSpace=wrap;html=1;fillColor=#e1d5e7;strokeColor=#9673a6;" parent="1" vertex="1">
          <mxGeometry x="200" y="480" width="200" height="40" as="geometry" />
        </mxCell>
        <mxCell id="jrPqt0o_kJQLOIT-r3Px-2" style="rounded=0;orthogonalLoop=1;jettySize=auto;html=1;exitX=1;exitY=0.5;exitDx=0;exitDy=0;entryX=0;entryY=0.5;entryDx=0;entryDy=0;strokeWidth=2;fillColor=#0050ef;strokeColor=#001DBC;" parent="1" source="AI9wzrMsEUOPAEiOR618-24" target="AI9wzrMsEUOPAEiOR618-33" edge="1">
          <mxGeometry relative="1" as="geometry" />
        </mxCell>
        <mxCell id="jrPqt0o_kJQLOIT-r3Px-3" style="rounded=0;orthogonalLoop=1;jettySize=auto;html=1;exitX=1;exitY=0.5;exitDx=0;exitDy=0;strokeWidth=2;fillColor=#60a917;strokeColor=#2D7600;" parent="1" source="AI9wzrMsEUOPAEiOR618-24" target="AI9wzrMsEUOPAEiOR618-35" edge="1">
          <mxGeometry relative="1" as="geometry" />
        </mxCell>
        <mxCell id="jrPqt0o_kJQLOIT-r3Px-4" style="rounded=0;orthogonalLoop=1;jettySize=auto;html=1;exitX=1;exitY=0.5;exitDx=0;exitDy=0;entryX=0;entryY=0.5;entryDx=0;entryDy=0;strokeWidth=2;strokeColor=#FF0000;" parent="1" source="AI9wzrMsEUOPAEiOR618-24" target="AI9wzrMsEUOPAEiOR618-37" edge="1">
          <mxGeometry relative="1" as="geometry" />
        </mxCell>
        <mxCell id="X4rMLOZrYl8FUy3O-ZZZ-2" style="rounded=0;orthogonalLoop=1;jettySize=auto;html=1;exitX=1;exitY=0.5;exitDx=0;exitDy=0;entryX=0;entryY=0.5;entryDx=0;entryDy=0;dashed=1;" parent="1" source="AI9wzrMsEUOPAEiOR618-24" target="AI9wzrMsEUOPAEiOR618-34" edge="1">
          <mxGeometry relative="1" as="geometry" />
        </mxCell>
        <mxCell id="X4rMLOZrYl8FUy3O-ZZZ-3" style="rounded=0;orthogonalLoop=1;jettySize=auto;html=1;exitX=1;exitY=0.5;exitDx=0;exitDy=0;entryX=0;entryY=0.5;entryDx=0;entryDy=0;dashed=1;" parent="1" source="AI9wzrMsEUOPAEiOR618-24" target="AI9wzrMsEUOPAEiOR618-36" edge="1">
          <mxGeometry relative="1" as="geometry" />
        </mxCell>
        <mxCell id="AI9wzrMsEUOPAEiOR618-24" value="$$o_1^{\prime}$$" style="rounded=1;whiteSpace=wrap;html=1;fillColor=#e1d5e7;strokeColor=#9673a6;" parent="1" vertex="1">
          <mxGeometry x="439" y="400" width="80" height="40" as="geometry" />
        </mxCell>
        <mxCell id="jrPqt0o_kJQLOIT-r3Px-5" style="rounded=0;orthogonalLoop=1;jettySize=auto;html=1;exitX=1;exitY=0.5;exitDx=0;exitDy=0;entryX=0;entryY=0.5;entryDx=0;entryDy=0;strokeWidth=2;fillColor=#0050ef;strokeColor=#001DBC;" parent="1" source="AI9wzrMsEUOPAEiOR618-32" target="AI9wzrMsEUOPAEiOR618-34" edge="1">
          <mxGeometry relative="1" as="geometry" />
        </mxCell>
        <mxCell id="jrPqt0o_kJQLOIT-r3Px-6" style="rounded=0;orthogonalLoop=1;jettySize=auto;html=1;exitX=1;exitY=0.5;exitDx=0;exitDy=0;strokeWidth=2;fillColor=#60a917;strokeColor=#2D7600;" parent="1" source="AI9wzrMsEUOPAEiOR618-32" target="AI9wzrMsEUOPAEiOR618-36" edge="1">
          <mxGeometry relative="1" as="geometry" />
        </mxCell>
        <mxCell id="jrPqt0o_kJQLOIT-r3Px-7" style="rounded=0;orthogonalLoop=1;jettySize=auto;html=1;exitX=1;exitY=0.5;exitDx=0;exitDy=0;entryX=0;entryY=0.5;entryDx=0;entryDy=0;strokeWidth=2;strokeColor=#FF0000;" parent="1" source="AI9wzrMsEUOPAEiOR618-32" target="AI9wzrMsEUOPAEiOR618-95" edge="1">
          <mxGeometry relative="1" as="geometry" />
        </mxCell>
        <mxCell id="cOJxNtVdOqRdXwOeLeGy-4" style="rounded=0;orthogonalLoop=1;jettySize=auto;html=1;exitX=1;exitY=0.5;exitDx=0;exitDy=0;entryX=0;entryY=0.5;entryDx=0;entryDy=0;dashed=1;" parent="1" source="AI9wzrMsEUOPAEiOR618-32" target="AI9wzrMsEUOPAEiOR618-35" edge="1">
          <mxGeometry relative="1" as="geometry" />
        </mxCell>
        <mxCell id="cOJxNtVdOqRdXwOeLeGy-6" style="rounded=0;orthogonalLoop=1;jettySize=auto;html=1;exitX=1;exitY=0.5;exitDx=0;exitDy=0;entryX=0;entryY=0.5;entryDx=0;entryDy=0;dashed=1;" parent="1" source="AI9wzrMsEUOPAEiOR618-32" target="AI9wzrMsEUOPAEiOR618-37" edge="1">
          <mxGeometry relative="1" as="geometry" />
        </mxCell>
        <mxCell id="AI9wzrMsEUOPAEiOR618-32" value="$$o_2^{\prime}$$" style="rounded=1;whiteSpace=wrap;html=1;fillColor=#e1d5e7;strokeColor=#9673a6;" parent="1" vertex="1">
          <mxGeometry x="438" y="479" width="80" height="40" as="geometry" />
        </mxCell>
        <mxCell id="AI9wzrMsEUOPAEiOR618-33" value="$$\begin{align*}&lt;br&gt;x^{\prime}_1 &amp;amp;= 0 \cdot w_3 + 0 \cdot 0 \\&lt;br&gt;&amp;amp;+ 0 \cdot w_2 + 0 \cdot 0 + o_1^{\prime} \cdot w_1&lt;br&gt;\end{align*}$$" style="rounded=1;whiteSpace=wrap;html=1;shadow=0;fillColor=#ffe6cc;strokeColor=#d79b00;" parent="1" vertex="1">
          <mxGeometry x="598" y="239" width="202" height="40" as="geometry" />
        </mxCell>
        <mxCell id="AI9wzrMsEUOPAEiOR618-34" value="$$\begin{align*}&lt;br style=&quot;border-color: var(--border-color);&quot;&gt;x^{\prime}_2 &amp;amp;= 0 \cdot w_3 + 0 \cdot 0 \\&lt;br style=&quot;border-color: var(--border-color);&quot;&gt;&amp;amp;+ 0 \cdot w_2 + o^{\prime}_1 \cdot 0 + o_2^{\prime} \cdot w_1&lt;br style=&quot;border-color: var(--border-color);&quot;&gt;\end{align*}$$" style="rounded=1;whiteSpace=wrap;html=1;shadow=0;fillColor=#ffe6cc;strokeColor=#d79b00;" parent="1" vertex="1">
          <mxGeometry x="598" y="319" width="202" height="40" as="geometry" />
        </mxCell>
        <mxCell id="AI9wzrMsEUOPAEiOR618-35" value="$$\begin{align*}&lt;br style=&quot;border-color: var(--border-color);&quot;&gt;x^{\prime}_3 &amp;amp;= 0 \cdot w_3 + 0 \cdot 0 \\&lt;br style=&quot;border-color: var(--border-color);&quot;&gt;&amp;amp;+ o^{\prime}_1&amp;nbsp;\cdot w_2 + o^{\prime}_2 \cdot 0 + o_3^{\prime} \cdot w_1&lt;br style=&quot;border-color: var(--border-color);&quot;&gt;\end{align*}$$" style="rounded=1;whiteSpace=wrap;html=1;shadow=0;fillColor=#ffe6cc;strokeColor=#d79b00;" parent="1" vertex="1">
          <mxGeometry x="598" y="399" width="202" height="40" as="geometry" />
        </mxCell>
        <mxCell id="AI9wzrMsEUOPAEiOR618-36" value="$$\begin{align*}&lt;br style=&quot;border-color: var(--border-color);&quot;&gt;x^{\prime}_4 &amp;amp;= 0 \cdot w_3 + o^{\prime}_1&amp;nbsp;\cdot 0 \\&lt;br style=&quot;border-color: var(--border-color);&quot;&gt;&amp;amp;+ o^{\prime}_2 \cdot w_2 + o^{\prime}_3 \cdot 0 + 0 \cdot w_1&lt;br style=&quot;border-color: var(--border-color);&quot;&gt;\end{align*}$$" style="rounded=1;whiteSpace=wrap;html=1;shadow=0;fillColor=#ffe6cc;strokeColor=#d79b00;" parent="1" vertex="1">
          <mxGeometry x="598" y="479" width="202" height="40" as="geometry" />
        </mxCell>
        <mxCell id="AI9wzrMsEUOPAEiOR618-37" value="$$\begin{align*}&lt;br style=&quot;border-color: var(--border-color);&quot;&gt;x^{\prime}_5 &amp;amp;= o^{\prime}_1&amp;nbsp;\cdot w_3 + o^{\prime}_2 \cdot 0 \\&lt;br style=&quot;border-color: var(--border-color);&quot;&gt;&amp;amp;+ o^{\prime}_3 \cdot w_2 + 0 \cdot 0 + 0 \cdot w_1&lt;br style=&quot;border-color: var(--border-color);&quot;&gt;\end{align*}$$" style="rounded=1;whiteSpace=wrap;html=1;shadow=0;fillColor=#ffe6cc;strokeColor=#d79b00;dashed=1;" parent="1" vertex="1">
          <mxGeometry x="598" y="559" width="202" height="40" as="geometry" />
        </mxCell>
        <mxCell id="AI9wzrMsEUOPAEiOR618-38" value="&lt;font style=&quot;font-size: 15px;&quot;&gt;图四: 膨胀转置卷积示意图&lt;/font&gt;" style="text;html=1;strokeColor=none;fillColor=none;align=center;verticalAlign=middle;whiteSpace=wrap;rounded=0;" parent="1" vertex="1">
          <mxGeometry x="314" y="40" width="200" height="30" as="geometry" />
        </mxCell>
        <mxCell id="X4rMLOZrYl8FUy3O-ZZZ-5" style="rounded=0;orthogonalLoop=1;jettySize=auto;html=1;exitX=1;exitY=0.5;exitDx=0;exitDy=0;entryX=0;entryY=0.5;entryDx=0;entryDy=0;fillColor=#008a00;strokeColor=#005700;strokeWidth=2;dashed=1;" parent="1" source="AI9wzrMsEUOPAEiOR618-46" target="AI9wzrMsEUOPAEiOR618-34" edge="1">
          <mxGeometry relative="1" as="geometry" />
        </mxCell>
        <mxCell id="70FV3hWoP9IKaXDLPHWi-4" style="rounded=0;orthogonalLoop=1;jettySize=auto;html=1;exitX=1;exitY=0.5;exitDx=0;exitDy=0;entryX=0;entryY=0.5;entryDx=0;entryDy=0;strokeWidth=2;strokeColor=#FF0000;dashed=1;" parent="1" source="AI9wzrMsEUOPAEiOR618-46" target="AI9wzrMsEUOPAEiOR618-36" edge="1">
          <mxGeometry relative="1" as="geometry" />
        </mxCell>
        <mxCell id="cOJxNtVdOqRdXwOeLeGy-1" style="rounded=0;orthogonalLoop=1;jettySize=auto;html=1;exitX=1;exitY=0.5;exitDx=0;exitDy=0;entryX=0;entryY=0.5;entryDx=0;entryDy=0;dashed=1;" parent="1" source="AI9wzrMsEUOPAEiOR618-46" target="AI9wzrMsEUOPAEiOR618-33" edge="1">
          <mxGeometry relative="1" as="geometry" />
        </mxCell>
        <mxCell id="cOJxNtVdOqRdXwOeLeGy-3" style="rounded=0;orthogonalLoop=1;jettySize=auto;html=1;exitX=1;exitY=0.5;exitDx=0;exitDy=0;entryX=0;entryY=0.5;entryDx=0;entryDy=0;dashed=1;" parent="1" source="AI9wzrMsEUOPAEiOR618-46" target="AI9wzrMsEUOPAEiOR618-35" edge="1">
          <mxGeometry relative="1" as="geometry" />
        </mxCell>
        <mxCell id="AI9wzrMsEUOPAEiOR618-46" value="$$0$$" style="rounded=1;whiteSpace=wrap;html=1;fillColor=#e1d5e7;strokeColor=#9673a6;dashed=1;" parent="1" vertex="1">
          <mxGeometry x="439" y="319" width="80" height="40" as="geometry" />
        </mxCell>
        <mxCell id="70FV3hWoP9IKaXDLPHWi-3" style="rounded=0;orthogonalLoop=1;jettySize=auto;html=1;exitX=1;exitY=0.5;exitDx=0;exitDy=0;entryX=0;entryY=0.5;entryDx=0;entryDy=0;strokeColor=#FF0000;strokeWidth=2;dashed=1;" parent="1" source="AI9wzrMsEUOPAEiOR618-52" target="AI9wzrMsEUOPAEiOR618-35" edge="1">
          <mxGeometry relative="1" as="geometry" />
        </mxCell>
        <mxCell id="70FV3hWoP9IKaXDLPHWi-14" style="rounded=0;orthogonalLoop=1;jettySize=auto;html=1;exitX=1;exitY=0.5;exitDx=0;exitDy=0;entryX=0;entryY=0.5;entryDx=0;entryDy=0;fillColor=#60a917;strokeColor=#2D7600;strokeWidth=2;dashed=1;" parent="1" source="AI9wzrMsEUOPAEiOR618-52" target="AI9wzrMsEUOPAEiOR618-33" edge="1">
          <mxGeometry relative="1" as="geometry" />
        </mxCell>
        <mxCell id="cOJxNtVdOqRdXwOeLeGy-2" style="rounded=0;orthogonalLoop=1;jettySize=auto;html=1;exitX=1;exitY=0.5;exitDx=0;exitDy=0;entryX=0;entryY=0.5;entryDx=0;entryDy=0;dashed=1;" parent="1" source="AI9wzrMsEUOPAEiOR618-52" target="AI9wzrMsEUOPAEiOR618-34" edge="1">
          <mxGeometry relative="1" as="geometry" />
        </mxCell>
        <mxCell id="AI9wzrMsEUOPAEiOR618-52" value="$$0$$" style="rounded=1;whiteSpace=wrap;html=1;fillColor=#e1d5e7;strokeColor=#9673a6;dashed=1;" parent="1" vertex="1">
          <mxGeometry x="439" y="240" width="80" height="40" as="geometry" />
        </mxCell>
        <mxCell id="jrPqt0o_kJQLOIT-r3Px-9" style="rounded=0;orthogonalLoop=1;jettySize=auto;html=1;exitX=1;exitY=0.5;exitDx=0;exitDy=0;entryX=0;entryY=0.5;entryDx=0;entryDy=0;strokeWidth=2;fillColor=#0050ef;strokeColor=#001DBC;" parent="1" source="AI9wzrMsEUOPAEiOR618-56" target="AI9wzrMsEUOPAEiOR618-35" edge="1">
          <mxGeometry relative="1" as="geometry" />
        </mxCell>
        <mxCell id="jrPqt0o_kJQLOIT-r3Px-10" style="rounded=0;orthogonalLoop=1;jettySize=auto;html=1;exitX=1;exitY=0.5;exitDx=0;exitDy=0;entryX=0;entryY=0.5;entryDx=0;entryDy=0;strokeWidth=2;fillColor=#60a917;strokeColor=#2D7600;" parent="1" source="AI9wzrMsEUOPAEiOR618-56" target="AI9wzrMsEUOPAEiOR618-37" edge="1">
          <mxGeometry relative="1" as="geometry" />
        </mxCell>
        <mxCell id="jrPqt0o_kJQLOIT-r3Px-11" style="rounded=0;orthogonalLoop=1;jettySize=auto;html=1;exitX=1;exitY=0.5;exitDx=0;exitDy=0;entryX=0;entryY=0.5;entryDx=0;entryDy=0;strokeWidth=2;strokeColor=#FF0000;" parent="1" source="AI9wzrMsEUOPAEiOR618-56" target="AI9wzrMsEUOPAEiOR618-96" edge="1">
          <mxGeometry relative="1" as="geometry" />
        </mxCell>
        <mxCell id="cOJxNtVdOqRdXwOeLeGy-5" style="rounded=0;orthogonalLoop=1;jettySize=auto;html=1;exitX=1;exitY=0.5;exitDx=0;exitDy=0;entryX=0;entryY=0.5;entryDx=0;entryDy=0;dashed=1;" parent="1" source="AI9wzrMsEUOPAEiOR618-56" target="AI9wzrMsEUOPAEiOR618-36" edge="1">
          <mxGeometry relative="1" as="geometry" />
        </mxCell>
        <mxCell id="cOJxNtVdOqRdXwOeLeGy-8" style="rounded=0;orthogonalLoop=1;jettySize=auto;html=1;exitX=1;exitY=0.5;exitDx=0;exitDy=0;entryX=0;entryY=0.5;entryDx=0;entryDy=0;dashed=1;" parent="1" source="AI9wzrMsEUOPAEiOR618-56" target="AI9wzrMsEUOPAEiOR618-95" edge="1">
          <mxGeometry relative="1" as="geometry" />
        </mxCell>
        <mxCell id="AI9wzrMsEUOPAEiOR618-56" value="$$o^{\prime}_3$$" style="rounded=1;whiteSpace=wrap;html=1;fillColor=#e1d5e7;strokeColor=#9673a6;" parent="1" vertex="1">
          <mxGeometry x="439" y="559" width="80" height="40" as="geometry" />
        </mxCell>
        <mxCell id="AI9wzrMsEUOPAEiOR618-72" value="图 (4-b)&amp;nbsp;膨胀卷积运算反向过程" style="text;html=1;strokeColor=none;fillColor=none;align=center;verticalAlign=middle;whiteSpace=wrap;rounded=0;" parent="1" vertex="1">
          <mxGeometry x="439" y="930" width="340" height="30" as="geometry" />
        </mxCell>
        <mxCell id="AI9wzrMsEUOPAEiOR618-110" style="rounded=0;orthogonalLoop=1;jettySize=auto;html=1;exitX=1;exitY=0.5;exitDx=0;exitDy=0;entryX=0;entryY=0.5;entryDx=0;entryDy=0;strokeColor=#FF0000;strokeWidth=2;" parent="1" source="AI9wzrMsEUOPAEiOR618-76" target="AI9wzrMsEUOPAEiOR618-20" edge="1">
          <mxGeometry relative="1" as="geometry" />
        </mxCell>
        <mxCell id="o7moGbQMxYeGnO_uJNgM-5" style="rounded=0;orthogonalLoop=1;jettySize=auto;html=1;exitX=1;exitY=0.5;exitDx=0;exitDy=0;entryX=0;entryY=0.5;entryDx=0;entryDy=0;dashed=1;" parent="1" source="AI9wzrMsEUOPAEiOR618-76" target="AI9wzrMsEUOPAEiOR618-80" edge="1">
          <mxGeometry relative="1" as="geometry" />
        </mxCell>
        <mxCell id="AI9wzrMsEUOPAEiOR618-76" value="$$x_6$$" style="rounded=1;whiteSpace=wrap;html=1;shadow=0;fillColor=#ffe6cc;strokeColor=#d79b00;" parent="1" vertex="1">
          <mxGeometry x="40" y="639" width="80" height="40" as="geometry" />
        </mxCell>
        <mxCell id="AI9wzrMsEUOPAEiOR618-113" style="rounded=0;orthogonalLoop=1;jettySize=auto;html=1;exitX=1;exitY=0.5;exitDx=0;exitDy=0;entryX=0;entryY=0.5;entryDx=0;entryDy=0;strokeColor=#FF0000;strokeWidth=2;" parent="1" source="AI9wzrMsEUOPAEiOR618-78" target="AI9wzrMsEUOPAEiOR618-80" edge="1">
          <mxGeometry relative="1" as="geometry" />
        </mxCell>
        <mxCell id="AI9wzrMsEUOPAEiOR618-78" value="$$x_7$$" style="rounded=1;whiteSpace=wrap;html=1;shadow=0;fillColor=#ffe6cc;strokeColor=#d79b00;" parent="1" vertex="1">
          <mxGeometry x="40" y="720" width="80" height="40" as="geometry" />
        </mxCell>
        <mxCell id="AI9wzrMsEUOPAEiOR618-80" value="$$\begin{align*}&lt;br style=&quot;border-color: var(--border-color);&quot;&gt;o_2 &amp;amp;= x_3 \cdot w_1 +&amp;nbsp;x_4 \cdot 0\\&lt;br style=&quot;border-color: var(--border-color);&quot;&gt;&amp;amp;+ x_5\cdot&amp;nbsp;w_2 + x_6\cdot 0 + x_7\cdot w_3 \end{align*}&lt;br style=&quot;border-color: var(--border-color);&quot;&gt;$$" style="rounded=1;whiteSpace=wrap;html=1;fillColor=#e1d5e7;strokeColor=#9673a6;" parent="1" vertex="1">
          <mxGeometry x="200" y="560" width="200" height="40" as="geometry" />
        </mxCell>
        <mxCell id="70FV3hWoP9IKaXDLPHWi-5" style="rounded=0;orthogonalLoop=1;jettySize=auto;html=1;exitX=1;exitY=0.5;exitDx=0;exitDy=0;entryX=0;entryY=0.5;entryDx=0;entryDy=0;fillColor=#0050ef;strokeColor=#001DBC;strokeWidth=2;dashed=1;" parent="1" source="AI9wzrMsEUOPAEiOR618-94" target="AI9wzrMsEUOPAEiOR618-36" edge="1">
          <mxGeometry relative="1" as="geometry" />
        </mxCell>
        <mxCell id="70FV3hWoP9IKaXDLPHWi-12" style="rounded=0;orthogonalLoop=1;jettySize=auto;html=1;exitX=1;exitY=0.5;exitDx=0;exitDy=0;entryX=0;entryY=0.5;entryDx=0;entryDy=0;fillColor=#60a917;strokeColor=#2D7600;strokeWidth=2;dashed=1;" parent="1" source="AI9wzrMsEUOPAEiOR618-94" target="AI9wzrMsEUOPAEiOR618-95" edge="1">
          <mxGeometry relative="1" as="geometry" />
        </mxCell>
        <mxCell id="cOJxNtVdOqRdXwOeLeGy-7" style="rounded=0;orthogonalLoop=1;jettySize=auto;html=1;exitX=1;exitY=0.5;exitDx=0;exitDy=0;entryX=0;entryY=0.5;entryDx=0;entryDy=0;dashed=1;" parent="1" source="AI9wzrMsEUOPAEiOR618-94" target="AI9wzrMsEUOPAEiOR618-37" edge="1">
          <mxGeometry relative="1" as="geometry" />
        </mxCell>
        <mxCell id="cOJxNtVdOqRdXwOeLeGy-11" style="rounded=0;orthogonalLoop=1;jettySize=auto;html=1;exitX=1;exitY=0.5;exitDx=0;exitDy=0;entryX=0;entryY=0.5;entryDx=0;entryDy=0;dashed=1;" parent="1" source="AI9wzrMsEUOPAEiOR618-94" target="AI9wzrMsEUOPAEiOR618-96" edge="1">
          <mxGeometry relative="1" as="geometry" />
        </mxCell>
        <mxCell id="AI9wzrMsEUOPAEiOR618-94" value="$$0$$" style="rounded=1;whiteSpace=wrap;html=1;fillColor=#e1d5e7;strokeColor=#9673a6;dashed=1;" parent="1" vertex="1">
          <mxGeometry x="439" y="639" width="80" height="40" as="geometry" />
        </mxCell>
        <mxCell id="AI9wzrMsEUOPAEiOR618-95" value="$$\begin{align*}&lt;br style=&quot;border-color: var(--border-color);&quot;&gt;x^{\prime}_6 &amp;amp;= o^{\prime}_2 \cdot w_3 + o^{\prime}_3 \cdot 0 \\&lt;br style=&quot;border-color: var(--border-color);&quot;&gt;&amp;amp;+ 0 \cdot w_2 + 0 \cdot 0 + 0 \cdot w_1&lt;br style=&quot;border-color: var(--border-color);&quot;&gt;\end{align*}$$" style="rounded=1;whiteSpace=wrap;html=1;shadow=0;fillColor=#ffe6cc;strokeColor=#d79b00;dashed=1;" parent="1" vertex="1">
          <mxGeometry x="598" y="639" width="202" height="40" as="geometry" />
        </mxCell>
        <mxCell id="AI9wzrMsEUOPAEiOR618-96" value="$$\begin{align*}&lt;br style=&quot;border-color: var(--border-color);&quot;&gt;x^{\prime}_7 &amp;amp;= o^{\prime}_3 \cdot w_3 + 0 \cdot 0 \\&lt;br style=&quot;border-color: var(--border-color);&quot;&gt;&amp;amp;+ 0 \cdot w_2 + 0 \cdot 0 + 0 \cdot w_1&lt;br style=&quot;border-color: var(--border-color);&quot;&gt;\end{align*}$$" style="rounded=1;whiteSpace=wrap;html=1;shadow=0;fillColor=#ffe6cc;strokeColor=#d79b00;dashed=1;" parent="1" vertex="1">
          <mxGeometry x="598" y="720" width="202" height="40" as="geometry" />
        </mxCell>
        <mxCell id="70FV3hWoP9IKaXDLPHWi-6" style="rounded=0;orthogonalLoop=1;jettySize=auto;html=1;exitX=1;exitY=0.5;exitDx=0;exitDy=0;entryX=0;entryY=0.5;entryDx=0;entryDy=0;fillColor=#0050ef;strokeColor=#001DBC;strokeWidth=2;dashed=1;" parent="1" source="jrPqt0o_kJQLOIT-r3Px-1" target="AI9wzrMsEUOPAEiOR618-37" edge="1">
          <mxGeometry relative="1" as="geometry" />
        </mxCell>
        <mxCell id="70FV3hWoP9IKaXDLPHWi-13" style="rounded=0;orthogonalLoop=1;jettySize=auto;html=1;exitX=1;exitY=0.5;exitDx=0;exitDy=0;entryX=0;entryY=0.5;entryDx=0;entryDy=0;fillColor=#60a917;strokeColor=#2D7600;strokeWidth=2;dashed=1;" parent="1" source="jrPqt0o_kJQLOIT-r3Px-1" target="AI9wzrMsEUOPAEiOR618-96" edge="1">
          <mxGeometry relative="1" as="geometry" />
        </mxCell>
        <mxCell id="cOJxNtVdOqRdXwOeLeGy-10" style="rounded=0;orthogonalLoop=1;jettySize=auto;html=1;exitX=1;exitY=0.5;exitDx=0;exitDy=0;entryX=0;entryY=0.5;entryDx=0;entryDy=0;dashed=1;" parent="1" source="jrPqt0o_kJQLOIT-r3Px-1" target="AI9wzrMsEUOPAEiOR618-95" edge="1">
          <mxGeometry relative="1" as="geometry" />
        </mxCell>
        <mxCell id="jrPqt0o_kJQLOIT-r3Px-1" value="$$0$$" style="rounded=1;whiteSpace=wrap;html=1;fillColor=#e1d5e7;strokeColor=#9673a6;dashed=1;" parent="1" vertex="1">
          <mxGeometry x="439" y="720" width="80" height="40" as="geometry" />
        </mxCell>
        <mxCell id="70FV3hWoP9IKaXDLPHWi-1" style="rounded=0;orthogonalLoop=1;jettySize=auto;html=1;exitX=1;exitY=0.5;exitDx=0;exitDy=0;entryX=0;entryY=0.5;entryDx=0;entryDy=0;strokeColor=#FF0000;strokeWidth=2;dashed=1;" parent="1" source="DJg0KhcRT244G4eHjmvs-1" target="AI9wzrMsEUOPAEiOR618-34" edge="1">
          <mxGeometry relative="1" as="geometry" />
        </mxCell>
        <mxCell id="70FV3hWoP9IKaXDLPHWi-15" style="rounded=0;orthogonalLoop=1;jettySize=auto;html=1;exitX=1;exitY=0.5;exitDx=0;exitDy=0;entryX=0;entryY=0.5;entryDx=0;entryDy=0;dashed=1;" parent="1" source="DJg0KhcRT244G4eHjmvs-1" target="AI9wzrMsEUOPAEiOR618-33" edge="1">
          <mxGeometry relative="1" as="geometry" />
        </mxCell>
        <mxCell id="DJg0KhcRT244G4eHjmvs-1" value="$$0$$" style="rounded=1;whiteSpace=wrap;html=1;fillColor=#e1d5e7;strokeColor=#9673a6;dashed=1;" parent="1" vertex="1">
          <mxGeometry x="438" y="160" width="80" height="40" as="geometry" />
        </mxCell>
        <mxCell id="_9EvqGRQT63GRmplDn_e-1" style="rounded=0;orthogonalLoop=1;jettySize=auto;html=1;exitX=1;exitY=0.5;exitDx=0;exitDy=0;entryX=0;entryY=0.5;entryDx=0;entryDy=0;strokeWidth=2;strokeColor=#FF0000;dashed=1;" parent="1" source="DJg0KhcRT244G4eHjmvs-2" target="AI9wzrMsEUOPAEiOR618-33" edge="1">
          <mxGeometry relative="1" as="geometry" />
        </mxCell>
        <mxCell id="DJg0KhcRT244G4eHjmvs-2" value="$$0$$" style="rounded=1;whiteSpace=wrap;html=1;fillColor=#e1d5e7;strokeColor=#9673a6;dashed=1;" parent="1" vertex="1">
          <mxGeometry x="438" y="80" width="80" height="40" as="geometry" />
        </mxCell>
        <mxCell id="70FV3hWoP9IKaXDLPHWi-9" style="rounded=0;orthogonalLoop=1;jettySize=auto;html=1;exitX=1;exitY=0.5;exitDx=0;exitDy=0;entryX=0;entryY=0.5;entryDx=0;entryDy=0;fillColor=#0050ef;strokeColor=#001DBC;strokeWidth=2;dashed=1;" parent="1" source="DJg0KhcRT244G4eHjmvs-3" target="AI9wzrMsEUOPAEiOR618-95" edge="1">
          <mxGeometry relative="1" as="geometry" />
        </mxCell>
        <mxCell id="cOJxNtVdOqRdXwOeLeGy-12" style="rounded=0;orthogonalLoop=1;jettySize=auto;html=1;exitX=1;exitY=0.5;exitDx=0;exitDy=0;entryX=0;entryY=0.5;entryDx=0;entryDy=0;dashed=1;" parent="1" source="DJg0KhcRT244G4eHjmvs-3" target="AI9wzrMsEUOPAEiOR618-96" edge="1">
          <mxGeometry relative="1" as="geometry" />
        </mxCell>
        <mxCell id="DJg0KhcRT244G4eHjmvs-3" value="$$0$$" style="rounded=1;whiteSpace=wrap;html=1;fillColor=#e1d5e7;strokeColor=#9673a6;dashed=1;" parent="1" vertex="1">
          <mxGeometry x="439" y="799" width="80" height="40" as="geometry" />
        </mxCell>
        <mxCell id="70FV3hWoP9IKaXDLPHWi-10" style="rounded=0;orthogonalLoop=1;jettySize=auto;html=1;exitX=1;exitY=0.5;exitDx=0;exitDy=0;entryX=0;entryY=0.5;entryDx=0;entryDy=0;fillColor=#0050ef;strokeColor=#001DBC;strokeWidth=2;dashed=1;" parent="1" source="DJg0KhcRT244G4eHjmvs-4" target="AI9wzrMsEUOPAEiOR618-96" edge="1">
          <mxGeometry relative="1" as="geometry" />
        </mxCell>
        <mxCell id="DJg0KhcRT244G4eHjmvs-4" value="$$0$$" style="rounded=1;whiteSpace=wrap;html=1;fillColor=#e1d5e7;strokeColor=#9673a6;dashed=1;" parent="1" vertex="1">
          <mxGeometry x="439" y="880" width="80" height="40" as="geometry" />
        </mxCell>
        <mxCell id="cOJxNtVdOqRdXwOeLeGy-20" value="" style="endArrow=classic;html=1;rounded=0;strokeWidth=2;fillColor=#0050ef;strokeColor=#001DBC;" parent="1" edge="1">
          <mxGeometry width="50" height="50" relative="1" as="geometry">
            <mxPoint x="240" y="119.29" as="sourcePoint" />
            <mxPoint x="320" y="119.29" as="targetPoint" />
          </mxGeometry>
        </mxCell>
        <mxCell id="cOJxNtVdOqRdXwOeLeGy-21" value="" style="endArrow=classic;html=1;rounded=0;fillColor=#60a917;strokeColor=#2D7600;strokeWidth=2;" parent="1" edge="1">
          <mxGeometry width="50" height="50" relative="1" as="geometry">
            <mxPoint x="240" y="159.29" as="sourcePoint" />
            <mxPoint x="320" y="159.29" as="targetPoint" />
          </mxGeometry>
        </mxCell>
        <mxCell id="cOJxNtVdOqRdXwOeLeGy-22" value="" style="endArrow=classic;html=1;rounded=0;strokeColor=#FF0000;strokeWidth=2;" parent="1" edge="1">
          <mxGeometry width="50" height="50" relative="1" as="geometry">
            <mxPoint x="240" y="199.29" as="sourcePoint" />
            <mxPoint x="320" y="199.29" as="targetPoint" />
          </mxGeometry>
        </mxCell>
        <mxCell id="cOJxNtVdOqRdXwOeLeGy-23" value="" style="endArrow=classic;html=1;rounded=0;dashed=1;" parent="1" edge="1">
          <mxGeometry width="50" height="50" relative="1" as="geometry">
            <mxPoint x="240" y="239.29000000000002" as="sourcePoint" />
            <mxPoint x="320" y="239.29000000000002" as="targetPoint" />
          </mxGeometry>
        </mxCell>
        <mxCell id="L1zq-tkNqCi_pKc1ihOf-1" value="$$\color{blue}{w_1}$$" style="text;html=1;strokeColor=none;fillColor=none;align=center;verticalAlign=middle;whiteSpace=wrap;rounded=0;" parent="1" vertex="1">
          <mxGeometry x="301" y="103" width="60" height="30" as="geometry" />
        </mxCell>
        <mxCell id="L1zq-tkNqCi_pKc1ihOf-2" value="$$\color{green}{w_2}$$" style="text;html=1;strokeColor=none;fillColor=none;align=center;verticalAlign=middle;whiteSpace=wrap;rounded=0;" parent="1" vertex="1">
          <mxGeometry x="301" y="143" width="60" height="30" as="geometry" />
        </mxCell>
        <mxCell id="L1zq-tkNqCi_pKc1ihOf-3" value="$$\color{red}{w_1}$$" style="text;html=1;strokeColor=none;fillColor=none;align=center;verticalAlign=middle;whiteSpace=wrap;rounded=0;" parent="1" vertex="1">
          <mxGeometry x="301" y="183" width="60" height="30" as="geometry" />
        </mxCell>
        <mxCell id="L1zq-tkNqCi_pKc1ihOf-4" value="$$\color{black}{0}$$" style="text;html=1;strokeColor=none;fillColor=none;align=center;verticalAlign=middle;whiteSpace=wrap;rounded=0;" parent="1" vertex="1">
          <mxGeometry x="301" y="225" width="60" height="30" as="geometry" />
        </mxCell>
        <mxCell id="i8JXW3peuYQHQVsyop2L-1" value="&lt;font style=&quot;font-size: 13px;&quot;&gt;图 (4-a) 膨胀卷积运算&lt;/font&gt;" style="text;html=1;strokeColor=none;fillColor=none;align=center;verticalAlign=middle;whiteSpace=wrap;rounded=0;" parent="1" vertex="1">
          <mxGeometry x="40" y="930" width="340" height="30" as="geometry" />
        </mxCell>
      </root>
    </mxGraphModel>
  </diagram>
  <diagram id="LzHJLkCS0ew-cznlK762" name="zfnet_感受野">
    <mxGraphModel dx="1036" dy="615" grid="1" gridSize="10" guides="1" tooltips="1" connect="1" arrows="1" fold="1" page="1" pageScale="1" pageWidth="827" pageHeight="1169" math="1" shadow="0">
      <root>
        <mxCell id="0" />
        <mxCell id="1" parent="0" />
        <mxCell id="LTrcvdoKz0gMzTpINzRK-91" value="" style="rounded=1;whiteSpace=wrap;html=1;strokeColor=none;fillColor=#dae8fc;" parent="1" vertex="1">
          <mxGeometry y="350" width="820" height="60" as="geometry" />
        </mxCell>
        <mxCell id="4YiE9OF5EV3x4W7ZNXJH-9" value="" style="rounded=0;whiteSpace=wrap;html=1;fillColor=#dae8fc;strokeColor=#6c8ebf;dashed=1;" parent="1" vertex="1">
          <mxGeometry x="332" y="350" width="418" height="60" as="geometry" />
        </mxCell>
        <mxCell id="4YiE9OF5EV3x4W7ZNXJH-5" value="" style="rounded=0;whiteSpace=wrap;html=1;dashed=1;fillColor=#dae8fc;strokeColor=#6c8ebf;" parent="1" vertex="1">
          <mxGeometry x="95" y="350" width="170" height="60" as="geometry" />
        </mxCell>
        <mxCell id="LTrcvdoKz0gMzTpINzRK-92" value="" style="rounded=1;whiteSpace=wrap;html=1;fillColor=#ffe6cc;strokeColor=none;" parent="1" vertex="1">
          <mxGeometry y="270" width="820" height="60" as="geometry" />
        </mxCell>
        <mxCell id="LTrcvdoKz0gMzTpINzRK-94" value="" style="rounded=1;whiteSpace=wrap;html=1;fillColor=#fff2cc;strokeColor=none;" parent="1" vertex="1">
          <mxGeometry y="110" width="820" height="60" as="geometry" />
        </mxCell>
        <mxCell id="LTrcvdoKz0gMzTpINzRK-93" value="" style="rounded=1;whiteSpace=wrap;html=1;fillColor=#f8cecc;strokeColor=none;" parent="1" vertex="1">
          <mxGeometry y="190" width="820" height="60" as="geometry" />
        </mxCell>
        <mxCell id="LTrcvdoKz0gMzTpINzRK-29" style="rounded=0;orthogonalLoop=1;jettySize=auto;html=1;exitX=0.5;exitY=0;exitDx=0;exitDy=0;entryX=0.5;entryY=1;entryDx=0;entryDy=0;endArrow=none;endFill=0;" parent="1" source="LTrcvdoKz0gMzTpINzRK-1" target="LTrcvdoKz0gMzTpINzRK-17" edge="1">
          <mxGeometry relative="1" as="geometry" />
        </mxCell>
        <mxCell id="LTrcvdoKz0gMzTpINzRK-1" value="$$x_1$$" style="ellipse;whiteSpace=wrap;html=1;aspect=fixed;fillColor=#0050ef;fontColor=#ffffff;strokeColor=#001DBC;" parent="1" vertex="1">
          <mxGeometry x="100" y="360" width="40" height="40" as="geometry" />
        </mxCell>
        <mxCell id="LTrcvdoKz0gMzTpINzRK-31" style="rounded=0;orthogonalLoop=1;jettySize=auto;html=1;exitX=0.5;exitY=0;exitDx=0;exitDy=0;entryX=0.5;entryY=1;entryDx=0;entryDy=0;endArrow=none;endFill=0;" parent="1" source="LTrcvdoKz0gMzTpINzRK-2" target="LTrcvdoKz0gMzTpINzRK-17" edge="1">
          <mxGeometry relative="1" as="geometry" />
        </mxCell>
        <mxCell id="LTrcvdoKz0gMzTpINzRK-2" value="$$x_2$$" style="ellipse;whiteSpace=wrap;html=1;aspect=fixed;fillColor=#0050ef;fontColor=#ffffff;strokeColor=#001DBC;" parent="1" vertex="1">
          <mxGeometry x="160" y="360" width="40" height="40" as="geometry" />
        </mxCell>
        <mxCell id="LTrcvdoKz0gMzTpINzRK-32" style="rounded=0;orthogonalLoop=1;jettySize=auto;html=1;exitX=0.5;exitY=0;exitDx=0;exitDy=0;entryX=0.5;entryY=1;entryDx=0;entryDy=0;endArrow=none;endFill=0;" parent="1" source="LTrcvdoKz0gMzTpINzRK-3" target="LTrcvdoKz0gMzTpINzRK-17" edge="1">
          <mxGeometry relative="1" as="geometry" />
        </mxCell>
        <mxCell id="LTrcvdoKz0gMzTpINzRK-3" value="$$x_3$$" style="ellipse;whiteSpace=wrap;html=1;aspect=fixed;fillColor=#0050ef;fontColor=#ffffff;strokeColor=#001DBC;" parent="1" vertex="1">
          <mxGeometry x="220" y="360" width="40" height="40" as="geometry" />
        </mxCell>
        <mxCell id="LTrcvdoKz0gMzTpINzRK-33" style="rounded=0;orthogonalLoop=1;jettySize=auto;html=1;exitX=0.5;exitY=0;exitDx=0;exitDy=0;entryX=0.5;entryY=1;entryDx=0;entryDy=0;endArrow=none;endFill=0;" parent="1" source="LTrcvdoKz0gMzTpINzRK-4" target="LTrcvdoKz0gMzTpINzRK-20" edge="1">
          <mxGeometry relative="1" as="geometry" />
        </mxCell>
        <mxCell id="LTrcvdoKz0gMzTpINzRK-4" value="$$x_5$$" style="ellipse;whiteSpace=wrap;html=1;aspect=fixed;fillColor=#0050ef;fontColor=#ffffff;strokeColor=#001DBC;" parent="1" vertex="1">
          <mxGeometry x="340" y="360" width="40" height="40" as="geometry" />
        </mxCell>
        <mxCell id="LTrcvdoKz0gMzTpINzRK-36" style="rounded=0;orthogonalLoop=1;jettySize=auto;html=1;exitX=0.5;exitY=0;exitDx=0;exitDy=0;entryX=0.5;entryY=1;entryDx=0;entryDy=0;endArrow=none;endFill=0;" parent="1" source="LTrcvdoKz0gMzTpINzRK-5" target="LTrcvdoKz0gMzTpINzRK-20" edge="1">
          <mxGeometry relative="1" as="geometry" />
        </mxCell>
        <mxCell id="LTrcvdoKz0gMzTpINzRK-37" style="rounded=0;orthogonalLoop=1;jettySize=auto;html=1;exitX=0.5;exitY=0;exitDx=0;exitDy=0;entryX=0.5;entryY=1;entryDx=0;entryDy=0;endArrow=none;endFill=0;" parent="1" source="LTrcvdoKz0gMzTpINzRK-5" target="LTrcvdoKz0gMzTpINzRK-21" edge="1">
          <mxGeometry relative="1" as="geometry" />
        </mxCell>
        <mxCell id="LTrcvdoKz0gMzTpINzRK-5" value="$$x_6$$" style="ellipse;whiteSpace=wrap;html=1;aspect=fixed;fillColor=#0050ef;fontColor=#ffffff;strokeColor=#001DBC;" parent="1" vertex="1">
          <mxGeometry x="400" y="360" width="40" height="40" as="geometry" />
        </mxCell>
        <mxCell id="LTrcvdoKz0gMzTpINzRK-35" style="rounded=0;orthogonalLoop=1;jettySize=auto;html=1;exitX=0.5;exitY=0;exitDx=0;exitDy=0;entryX=0.5;entryY=1;entryDx=0;entryDy=0;endArrow=none;endFill=0;" parent="1" source="LTrcvdoKz0gMzTpINzRK-6" target="LTrcvdoKz0gMzTpINzRK-20" edge="1">
          <mxGeometry relative="1" as="geometry" />
        </mxCell>
        <mxCell id="LTrcvdoKz0gMzTpINzRK-38" style="rounded=0;orthogonalLoop=1;jettySize=auto;html=1;exitX=0.5;exitY=0;exitDx=0;exitDy=0;entryX=0.5;entryY=1;entryDx=0;entryDy=0;endArrow=none;endFill=0;" parent="1" source="LTrcvdoKz0gMzTpINzRK-6" target="LTrcvdoKz0gMzTpINzRK-21" edge="1">
          <mxGeometry relative="1" as="geometry" />
        </mxCell>
        <mxCell id="LTrcvdoKz0gMzTpINzRK-40" style="rounded=0;orthogonalLoop=1;jettySize=auto;html=1;exitX=0.5;exitY=0;exitDx=0;exitDy=0;entryX=0.5;entryY=1;entryDx=0;entryDy=0;endArrow=none;endFill=0;" parent="1" source="LTrcvdoKz0gMzTpINzRK-6" target="LTrcvdoKz0gMzTpINzRK-23" edge="1">
          <mxGeometry relative="1" as="geometry" />
        </mxCell>
        <mxCell id="LTrcvdoKz0gMzTpINzRK-6" value="$$x_7$$" style="ellipse;whiteSpace=wrap;html=1;aspect=fixed;fillColor=#0050ef;fontColor=#ffffff;strokeColor=#001DBC;" parent="1" vertex="1">
          <mxGeometry x="460" y="360" width="40" height="40" as="geometry" />
        </mxCell>
        <mxCell id="LTrcvdoKz0gMzTpINzRK-9" value="输入层" style="text;html=1;strokeColor=none;fillColor=none;align=center;verticalAlign=middle;whiteSpace=wrap;rounded=0;" parent="1" vertex="1">
          <mxGeometry x="5" y="365" width="70" height="30" as="geometry" />
        </mxCell>
        <mxCell id="LTrcvdoKz0gMzTpINzRK-39" style="rounded=0;orthogonalLoop=1;jettySize=auto;html=1;exitX=0.5;exitY=0;exitDx=0;exitDy=0;entryX=0.5;entryY=1;entryDx=0;entryDy=0;endArrow=none;endFill=0;" parent="1" source="LTrcvdoKz0gMzTpINzRK-10" target="LTrcvdoKz0gMzTpINzRK-21" edge="1">
          <mxGeometry relative="1" as="geometry" />
        </mxCell>
        <mxCell id="LTrcvdoKz0gMzTpINzRK-41" style="rounded=0;orthogonalLoop=1;jettySize=auto;html=1;exitX=0.5;exitY=0;exitDx=0;exitDy=0;entryX=0.5;entryY=1;entryDx=0;entryDy=0;endArrow=none;endFill=0;" parent="1" source="LTrcvdoKz0gMzTpINzRK-10" target="LTrcvdoKz0gMzTpINzRK-23" edge="1">
          <mxGeometry relative="1" as="geometry" />
        </mxCell>
        <mxCell id="LTrcvdoKz0gMzTpINzRK-65" style="rounded=0;orthogonalLoop=1;jettySize=auto;html=1;exitX=0.5;exitY=0;exitDx=0;exitDy=0;entryX=0.5;entryY=1;entryDx=0;entryDy=0;endArrow=none;endFill=0;" parent="1" source="LTrcvdoKz0gMzTpINzRK-10" target="LTrcvdoKz0gMzTpINzRK-24" edge="1">
          <mxGeometry relative="1" as="geometry" />
        </mxCell>
        <mxCell id="LTrcvdoKz0gMzTpINzRK-10" value="$$x_8$$" style="ellipse;whiteSpace=wrap;html=1;aspect=fixed;fillColor=#0050ef;fontColor=#ffffff;strokeColor=#001DBC;" parent="1" vertex="1">
          <mxGeometry x="520" y="360" width="40" height="40" as="geometry" />
        </mxCell>
        <mxCell id="LTrcvdoKz0gMzTpINzRK-43" style="rounded=0;orthogonalLoop=1;jettySize=auto;html=1;exitX=0.5;exitY=0;exitDx=0;exitDy=0;entryX=0.5;entryY=1;entryDx=0;entryDy=0;endArrow=none;endFill=0;" parent="1" source="LTrcvdoKz0gMzTpINzRK-11" target="LTrcvdoKz0gMzTpINzRK-23" edge="1">
          <mxGeometry relative="1" as="geometry" />
        </mxCell>
        <mxCell id="LTrcvdoKz0gMzTpINzRK-66" style="rounded=0;orthogonalLoop=1;jettySize=auto;html=1;exitX=0.5;exitY=0;exitDx=0;exitDy=0;entryX=0.5;entryY=1;entryDx=0;entryDy=0;endArrow=none;endFill=0;" parent="1" source="LTrcvdoKz0gMzTpINzRK-11" target="LTrcvdoKz0gMzTpINzRK-24" edge="1">
          <mxGeometry relative="1" as="geometry" />
        </mxCell>
        <mxCell id="LTrcvdoKz0gMzTpINzRK-70" style="rounded=0;orthogonalLoop=1;jettySize=auto;html=1;exitX=0.5;exitY=0;exitDx=0;exitDy=0;entryX=0.5;entryY=1;entryDx=0;entryDy=0;endArrow=none;endFill=0;" parent="1" source="LTrcvdoKz0gMzTpINzRK-11" target="LTrcvdoKz0gMzTpINzRK-25" edge="1">
          <mxGeometry relative="1" as="geometry" />
        </mxCell>
        <mxCell id="LTrcvdoKz0gMzTpINzRK-11" value="$$x_9$$" style="ellipse;whiteSpace=wrap;html=1;aspect=fixed;fillColor=#0050ef;fontColor=#ffffff;strokeColor=#001DBC;" parent="1" vertex="1">
          <mxGeometry x="580" y="360" width="40" height="40" as="geometry" />
        </mxCell>
        <mxCell id="LTrcvdoKz0gMzTpINzRK-68" style="rounded=0;orthogonalLoop=1;jettySize=auto;html=1;exitX=0.5;exitY=0;exitDx=0;exitDy=0;entryX=0.5;entryY=1;entryDx=0;entryDy=0;endArrow=none;endFill=0;" parent="1" source="LTrcvdoKz0gMzTpINzRK-12" target="LTrcvdoKz0gMzTpINzRK-24" edge="1">
          <mxGeometry relative="1" as="geometry" />
        </mxCell>
        <mxCell id="LTrcvdoKz0gMzTpINzRK-71" style="rounded=0;orthogonalLoop=1;jettySize=auto;html=1;exitX=0.5;exitY=0;exitDx=0;exitDy=0;entryX=0.5;entryY=1;entryDx=0;entryDy=0;endArrow=none;endFill=0;" parent="1" source="LTrcvdoKz0gMzTpINzRK-12" target="LTrcvdoKz0gMzTpINzRK-25" edge="1">
          <mxGeometry relative="1" as="geometry" />
        </mxCell>
        <mxCell id="LTrcvdoKz0gMzTpINzRK-12" value="$$x_{10}$$" style="ellipse;whiteSpace=wrap;html=1;aspect=fixed;fillColor=#0050ef;fontColor=#ffffff;strokeColor=#001DBC;" parent="1" vertex="1">
          <mxGeometry x="640" y="360" width="40" height="40" as="geometry" />
        </mxCell>
        <mxCell id="LTrcvdoKz0gMzTpINzRK-73" style="rounded=0;orthogonalLoop=1;jettySize=auto;html=1;exitX=0.5;exitY=0;exitDx=0;exitDy=0;entryX=0.5;entryY=1;entryDx=0;entryDy=0;endArrow=none;endFill=0;" parent="1" source="LTrcvdoKz0gMzTpINzRK-13" target="LTrcvdoKz0gMzTpINzRK-25" edge="1">
          <mxGeometry relative="1" as="geometry" />
        </mxCell>
        <mxCell id="LTrcvdoKz0gMzTpINzRK-13" value="$$x_{11}$$" style="ellipse;whiteSpace=wrap;html=1;aspect=fixed;fillColor=#0050ef;fontColor=#ffffff;strokeColor=#001DBC;" parent="1" vertex="1">
          <mxGeometry x="700" y="360" width="40" height="40" as="geometry" />
        </mxCell>
        <mxCell id="LTrcvdoKz0gMzTpINzRK-14" value="" style="ellipse;whiteSpace=wrap;html=1;aspect=fixed;" parent="1" vertex="1">
          <mxGeometry x="760" y="360" width="40" height="40" as="geometry" />
        </mxCell>
        <mxCell id="LTrcvdoKz0gMzTpINzRK-16" value="" style="ellipse;whiteSpace=wrap;html=1;aspect=fixed;" parent="1" vertex="1">
          <mxGeometry x="100" y="280" width="40" height="40" as="geometry" />
        </mxCell>
        <mxCell id="LTrcvdoKz0gMzTpINzRK-17" value="$$z_2$$" style="ellipse;whiteSpace=wrap;html=1;aspect=fixed;fillColor=#f0a30a;fontColor=#000000;strokeColor=#BD7000;" parent="1" vertex="1">
          <mxGeometry x="160" y="280" width="40" height="40" as="geometry" />
        </mxCell>
        <mxCell id="LTrcvdoKz0gMzTpINzRK-18" value="" style="ellipse;whiteSpace=wrap;html=1;aspect=fixed;" parent="1" vertex="1">
          <mxGeometry x="220" y="280" width="40" height="40" as="geometry" />
        </mxCell>
        <mxCell id="LTrcvdoKz0gMzTpINzRK-19" value="" style="ellipse;whiteSpace=wrap;html=1;aspect=fixed;" parent="1" vertex="1">
          <mxGeometry x="340" y="280" width="40" height="40" as="geometry" />
        </mxCell>
        <mxCell id="LTrcvdoKz0gMzTpINzRK-60" style="rounded=0;orthogonalLoop=1;jettySize=auto;html=1;exitX=0.5;exitY=0;exitDx=0;exitDy=0;entryX=0.5;entryY=1;entryDx=0;entryDy=0;endArrow=none;endFill=0;" parent="1" source="LTrcvdoKz0gMzTpINzRK-20" target="LTrcvdoKz0gMzTpINzRK-51" edge="1">
          <mxGeometry relative="1" as="geometry" />
        </mxCell>
        <mxCell id="LTrcvdoKz0gMzTpINzRK-20" value="$$z_6$$" style="ellipse;whiteSpace=wrap;html=1;aspect=fixed;fillColor=#f0a30a;fontColor=#000000;strokeColor=#BD7000;" parent="1" vertex="1">
          <mxGeometry x="400" y="280" width="40" height="40" as="geometry" />
        </mxCell>
        <mxCell id="LTrcvdoKz0gMzTpINzRK-61" style="rounded=0;orthogonalLoop=1;jettySize=auto;html=1;exitX=0.5;exitY=0;exitDx=0;exitDy=0;entryX=0.5;entryY=1;entryDx=0;entryDy=0;endArrow=none;endFill=0;" parent="1" source="LTrcvdoKz0gMzTpINzRK-21" target="LTrcvdoKz0gMzTpINzRK-51" edge="1">
          <mxGeometry relative="1" as="geometry" />
        </mxCell>
        <mxCell id="LTrcvdoKz0gMzTpINzRK-21" value="$$z_7$$" style="ellipse;whiteSpace=wrap;html=1;aspect=fixed;fillColor=#f0a30a;fontColor=#000000;strokeColor=#BD7000;" parent="1" vertex="1">
          <mxGeometry x="460" y="280" width="40" height="40" as="geometry" />
        </mxCell>
        <mxCell id="LTrcvdoKz0gMzTpINzRK-22" value="z 卷积层&lt;br&gt;kernel_size=3" style="text;html=1;strokeColor=none;fillColor=none;align=center;verticalAlign=middle;whiteSpace=wrap;rounded=0;" parent="1" vertex="1">
          <mxGeometry y="285" width="80" height="30" as="geometry" />
        </mxCell>
        <mxCell id="LTrcvdoKz0gMzTpINzRK-62" style="rounded=0;orthogonalLoop=1;jettySize=auto;html=1;exitX=0.5;exitY=0;exitDx=0;exitDy=0;entryX=0.5;entryY=1;entryDx=0;entryDy=0;endArrow=none;endFill=0;" parent="1" source="LTrcvdoKz0gMzTpINzRK-23" target="LTrcvdoKz0gMzTpINzRK-51" edge="1">
          <mxGeometry relative="1" as="geometry" />
        </mxCell>
        <mxCell id="LTrcvdoKz0gMzTpINzRK-23" value="$$z_8$$" style="ellipse;whiteSpace=wrap;html=1;aspect=fixed;fillColor=#f0a30a;fontColor=#000000;strokeColor=#BD7000;" parent="1" vertex="1">
          <mxGeometry x="520" y="280" width="40" height="40" as="geometry" />
        </mxCell>
        <mxCell id="LTrcvdoKz0gMzTpINzRK-63" style="rounded=0;orthogonalLoop=1;jettySize=auto;html=1;exitX=0.5;exitY=0;exitDx=0;exitDy=0;entryX=0.5;entryY=1;entryDx=0;entryDy=0;endArrow=none;endFill=0;" parent="1" source="LTrcvdoKz0gMzTpINzRK-24" target="LTrcvdoKz0gMzTpINzRK-51" edge="1">
          <mxGeometry relative="1" as="geometry" />
        </mxCell>
        <mxCell id="LTrcvdoKz0gMzTpINzRK-24" value="$$z_9$$" style="ellipse;whiteSpace=wrap;html=1;aspect=fixed;fillColor=#f0a30a;fontColor=#000000;strokeColor=#BD7000;" parent="1" vertex="1">
          <mxGeometry x="580" y="280" width="40" height="40" as="geometry" />
        </mxCell>
        <mxCell id="LTrcvdoKz0gMzTpINzRK-64" style="rounded=0;orthogonalLoop=1;jettySize=auto;html=1;exitX=0.5;exitY=0;exitDx=0;exitDy=0;entryX=0.5;entryY=1;entryDx=0;entryDy=0;endArrow=none;endFill=0;" parent="1" source="LTrcvdoKz0gMzTpINzRK-25" target="LTrcvdoKz0gMzTpINzRK-51" edge="1">
          <mxGeometry relative="1" as="geometry" />
        </mxCell>
        <mxCell id="LTrcvdoKz0gMzTpINzRK-25" value="$$z_{10}$$" style="ellipse;whiteSpace=wrap;html=1;aspect=fixed;fillColor=#f0a30a;fontColor=#000000;strokeColor=#BD7000;" parent="1" vertex="1">
          <mxGeometry x="640" y="280" width="40" height="40" as="geometry" />
        </mxCell>
        <mxCell id="LTrcvdoKz0gMzTpINzRK-26" value="" style="ellipse;whiteSpace=wrap;html=1;aspect=fixed;" parent="1" vertex="1">
          <mxGeometry x="700" y="280" width="40" height="40" as="geometry" />
        </mxCell>
        <mxCell id="LTrcvdoKz0gMzTpINzRK-27" value="" style="ellipse;whiteSpace=wrap;html=1;aspect=fixed;" parent="1" vertex="1">
          <mxGeometry x="760" y="280" width="40" height="40" as="geometry" />
        </mxCell>
        <mxCell id="LTrcvdoKz0gMzTpINzRK-44" value="" style="ellipse;whiteSpace=wrap;html=1;aspect=fixed;" parent="1" vertex="1">
          <mxGeometry x="100" y="200" width="40" height="40" as="geometry" />
        </mxCell>
        <mxCell id="LTrcvdoKz0gMzTpINzRK-45" value="" style="ellipse;whiteSpace=wrap;html=1;aspect=fixed;" parent="1" vertex="1">
          <mxGeometry x="160" y="200" width="40" height="40" as="geometry" />
        </mxCell>
        <mxCell id="LTrcvdoKz0gMzTpINzRK-46" value="" style="ellipse;whiteSpace=wrap;html=1;aspect=fixed;" parent="1" vertex="1">
          <mxGeometry x="220" y="200" width="40" height="40" as="geometry" />
        </mxCell>
        <mxCell id="LTrcvdoKz0gMzTpINzRK-47" value="" style="ellipse;whiteSpace=wrap;html=1;aspect=fixed;" parent="1" vertex="1">
          <mxGeometry x="340" y="200" width="40" height="40" as="geometry" />
        </mxCell>
        <mxCell id="LTrcvdoKz0gMzTpINzRK-48" value="" style="ellipse;whiteSpace=wrap;html=1;aspect=fixed;" parent="1" vertex="1">
          <mxGeometry x="400" y="200" width="40" height="40" as="geometry" />
        </mxCell>
        <mxCell id="LTrcvdoKz0gMzTpINzRK-49" value="" style="ellipse;whiteSpace=wrap;html=1;aspect=fixed;" parent="1" vertex="1">
          <mxGeometry x="460" y="200" width="40" height="40" as="geometry" />
        </mxCell>
        <mxCell id="LTrcvdoKz0gMzTpINzRK-50" value="h 卷积层&lt;br style=&quot;border-color: var(--border-color);&quot;&gt;kernel_size=5" style="text;html=1;strokeColor=none;fillColor=none;align=center;verticalAlign=middle;whiteSpace=wrap;rounded=0;" parent="1" vertex="1">
          <mxGeometry y="205" width="80" height="30" as="geometry" />
        </mxCell>
        <mxCell id="LTrcvdoKz0gMzTpINzRK-51" value="$$h_8$$" style="ellipse;whiteSpace=wrap;html=1;aspect=fixed;fillColor=#e51400;fontColor=#ffffff;strokeColor=#B20000;" parent="1" vertex="1">
          <mxGeometry x="520" y="200" width="40" height="40" as="geometry" />
        </mxCell>
        <mxCell id="LTrcvdoKz0gMzTpINzRK-52" value="" style="ellipse;whiteSpace=wrap;html=1;aspect=fixed;" parent="1" vertex="1">
          <mxGeometry x="580" y="200" width="40" height="40" as="geometry" />
        </mxCell>
        <mxCell id="LTrcvdoKz0gMzTpINzRK-53" value="" style="ellipse;whiteSpace=wrap;html=1;aspect=fixed;" parent="1" vertex="1">
          <mxGeometry x="640" y="200" width="40" height="40" as="geometry" />
        </mxCell>
        <mxCell id="LTrcvdoKz0gMzTpINzRK-54" value="" style="ellipse;whiteSpace=wrap;html=1;aspect=fixed;" parent="1" vertex="1">
          <mxGeometry x="700" y="200" width="40" height="40" as="geometry" />
        </mxCell>
        <mxCell id="LTrcvdoKz0gMzTpINzRK-55" value="" style="ellipse;whiteSpace=wrap;html=1;aspect=fixed;" parent="1" vertex="1">
          <mxGeometry x="760" y="200" width="40" height="40" as="geometry" />
        </mxCell>
        <mxCell id="LTrcvdoKz0gMzTpINzRK-75" value="" style="ellipse;whiteSpace=wrap;html=1;aspect=fixed;" parent="1" vertex="1">
          <mxGeometry x="280" y="360" width="40" height="40" as="geometry" />
        </mxCell>
        <mxCell id="LTrcvdoKz0gMzTpINzRK-76" value="" style="ellipse;whiteSpace=wrap;html=1;aspect=fixed;" parent="1" vertex="1">
          <mxGeometry x="280" y="280" width="40" height="40" as="geometry" />
        </mxCell>
        <mxCell id="LTrcvdoKz0gMzTpINzRK-77" value="" style="ellipse;whiteSpace=wrap;html=1;aspect=fixed;" parent="1" vertex="1">
          <mxGeometry x="280" y="200" width="40" height="40" as="geometry" />
        </mxCell>
        <mxCell id="LTrcvdoKz0gMzTpINzRK-78" value="" style="ellipse;whiteSpace=wrap;html=1;aspect=fixed;" parent="1" vertex="1">
          <mxGeometry x="100" y="120" width="40" height="40" as="geometry" />
        </mxCell>
        <mxCell id="LTrcvdoKz0gMzTpINzRK-79" value="" style="ellipse;whiteSpace=wrap;html=1;aspect=fixed;" parent="1" vertex="1">
          <mxGeometry x="160" y="120" width="40" height="40" as="geometry" />
        </mxCell>
        <mxCell id="LTrcvdoKz0gMzTpINzRK-80" value="" style="ellipse;whiteSpace=wrap;html=1;aspect=fixed;" parent="1" vertex="1">
          <mxGeometry x="220" y="120" width="40" height="40" as="geometry" />
        </mxCell>
        <mxCell id="LTrcvdoKz0gMzTpINzRK-81" value="" style="ellipse;whiteSpace=wrap;html=1;aspect=fixed;" parent="1" vertex="1">
          <mxGeometry x="340" y="120" width="40" height="40" as="geometry" />
        </mxCell>
        <mxCell id="LTrcvdoKz0gMzTpINzRK-82" value="" style="ellipse;whiteSpace=wrap;html=1;aspect=fixed;" parent="1" vertex="1">
          <mxGeometry x="400" y="120" width="40" height="40" as="geometry" />
        </mxCell>
        <mxCell id="LTrcvdoKz0gMzTpINzRK-83" value="" style="ellipse;whiteSpace=wrap;html=1;aspect=fixed;" parent="1" vertex="1">
          <mxGeometry x="460" y="120" width="40" height="40" as="geometry" />
        </mxCell>
        <mxCell id="LTrcvdoKz0gMzTpINzRK-84" value="" style="ellipse;whiteSpace=wrap;html=1;aspect=fixed;" parent="1" vertex="1">
          <mxGeometry x="520" y="120" width="40" height="40" as="geometry" />
        </mxCell>
        <mxCell id="LTrcvdoKz0gMzTpINzRK-85" value="" style="ellipse;whiteSpace=wrap;html=1;aspect=fixed;" parent="1" vertex="1">
          <mxGeometry x="580" y="120" width="40" height="40" as="geometry" />
        </mxCell>
        <mxCell id="LTrcvdoKz0gMzTpINzRK-86" value="" style="ellipse;whiteSpace=wrap;html=1;aspect=fixed;" parent="1" vertex="1">
          <mxGeometry x="640" y="120" width="40" height="40" as="geometry" />
        </mxCell>
        <mxCell id="LTrcvdoKz0gMzTpINzRK-87" value="" style="ellipse;whiteSpace=wrap;html=1;aspect=fixed;" parent="1" vertex="1">
          <mxGeometry x="700" y="120" width="40" height="40" as="geometry" />
        </mxCell>
        <mxCell id="LTrcvdoKz0gMzTpINzRK-88" value="" style="ellipse;whiteSpace=wrap;html=1;aspect=fixed;" parent="1" vertex="1">
          <mxGeometry x="760" y="120" width="40" height="40" as="geometry" />
        </mxCell>
        <mxCell id="LTrcvdoKz0gMzTpINzRK-89" value="" style="ellipse;whiteSpace=wrap;html=1;aspect=fixed;" parent="1" vertex="1">
          <mxGeometry x="280" y="120" width="40" height="40" as="geometry" />
        </mxCell>
        <mxCell id="LTrcvdoKz0gMzTpINzRK-90" value="输出层" style="text;html=1;strokeColor=none;fillColor=none;align=center;verticalAlign=middle;whiteSpace=wrap;rounded=0;" parent="1" vertex="1">
          <mxGeometry x="10" y="125" width="60" height="30" as="geometry" />
        </mxCell>
        <mxCell id="Lllnx6beO0ShhAwbszHY-1" value="&lt;font style=&quot;font-size: 15px;&quot;&gt;图五: 感受野与 ZFNet&lt;/font&gt;" style="text;html=1;strokeColor=none;fillColor=none;align=center;verticalAlign=middle;whiteSpace=wrap;rounded=0;" parent="1" vertex="1">
          <mxGeometry x="332" y="60" width="156" height="30" as="geometry" />
        </mxCell>
        <mxCell id="4YiE9OF5EV3x4W7ZNXJH-7" value="$$z_2$$" style="text;html=1;strokeColor=none;fillColor=none;align=center;verticalAlign=middle;whiteSpace=wrap;rounded=0;" parent="1" vertex="1">
          <mxGeometry x="129" y="410" width="20" height="30" as="geometry" />
        </mxCell>
        <mxCell id="4YiE9OF5EV3x4W7ZNXJH-8" value="元素的感受野" style="text;html=1;strokeColor=none;fillColor=none;align=center;verticalAlign=middle;whiteSpace=wrap;rounded=0;" parent="1" vertex="1">
          <mxGeometry x="149" y="410" width="80" height="30" as="geometry" />
        </mxCell>
        <mxCell id="4YiE9OF5EV3x4W7ZNXJH-10" value="$$h_8$$" style="text;html=1;strokeColor=none;fillColor=none;align=center;verticalAlign=middle;whiteSpace=wrap;rounded=0;" parent="1" vertex="1">
          <mxGeometry x="491" y="410" width="20" height="30" as="geometry" />
        </mxCell>
        <mxCell id="4YiE9OF5EV3x4W7ZNXJH-11" value="元素的感受野" style="text;html=1;strokeColor=none;fillColor=none;align=center;verticalAlign=middle;whiteSpace=wrap;rounded=0;" parent="1" vertex="1">
          <mxGeometry x="511" y="410" width="80" height="30" as="geometry" />
        </mxCell>
      </root>
    </mxGraphModel>
  </diagram>
</mxfile>
